<svg xmlns="http://www.w3.org/2000/svg" width="946.754" height="742.733" viewBox="0 0 946.754 742.733"><g transform="translate(419.004 -119.867)"><g transform="translate(151.996 128)"><g transform="translate(0 16.289)"><path d="M280.924,245.433H266.072l-30.108,25.322,6.4-25.322H159.2a7.2,7.2,0,0,1-7.2-7.2v-77.12a7.2,7.2,0,0,1,7.2-7.2H280.924a7.2,7.2,0,0,1,7.2,7.2v77.12A7.2,7.2,0,0,1,280.924,245.433Z" transform="translate(-151.996 -153.905)" fill="#f60"/></g><g transform="translate(125.314 -8.133)"><path d="M379.4,149.617a2.43,2.43,0,0,1-1.718-4.149l8.919-8.918a2.43,2.43,0,1,1,3.436,3.437l-8.919,8.918A2.418,2.418,0,0,1,379.4,149.617Z" transform="translate(-364.389 -127.162)" fill="#4f4f4f"/><path d="M396.361,160.121H385.328a2.43,2.43,0,0,1,0-4.859h11.034a2.43,2.43,0,1,1,0,4.859Z" transform="translate(-363.755 -125.086)" fill="#4f4f4f"/><path d="M368.034,143.893a2.43,2.43,0,0,1-2.43-2.43V130.43a2.43,2.43,0,1,1,4.859,0v11.034A2.43,2.43,0,0,1,368.034,143.893Z" transform="translate(-365.604 -128)" fill="#4f4f4f"/></g><g transform="translate(-543 236.289)"><path d="M159.2,245.433h14.852l30.108,25.322-6.4-25.322h83.16a7.2,7.2,0,0,0,7.2-7.2v-77.12a7.2,7.2,0,0,0-7.2-7.2H159.2a7.2,7.2,0,0,0-7.2,7.2v77.12A7.2,7.2,0,0,0,159.2,245.433Z" transform="translate(-151.996 -153.905)" fill="#4f4f4f"/></g></g><g transform="translate(191.468 160.295)"><circle cx="29.697" cy="29.697" r="29.697" transform="translate(0 0)" fill="#4f4f4f"/><g transform="translate(12.805 11.229)"><rect width="15.728" height="19.222" transform="translate(9.029)" fill="#fff"/><path d="M229.577,226.447l16.893,19.222,16.893-19.222Z" transform="translate(-229.577 -207.225)" fill="#fff"/></g></g><g transform="translate(-605.155 301.292)"><path d="M457.579,530.039H413.553a6.634,6.634,0,0,1-6.625-6.625v-5.558h50.213c.024,5.995.049,10.048.049,10.048A6.373,6.373,0,0,0,457.579,530.039Z" transform="translate(-53.246 -96.191)" fill="#acb3ba"/><path d="M287.372,517.856v5.558a6.619,6.619,0,0,1-6.626,6.625H228.47a6.619,6.619,0,0,1-6.626-6.625v-5.558Z" transform="translate(-8.608 -96.191)" fill="#acb3ba"/><path d="M446.295,275.548V375.3a55.292,55.292,0,0,0-14.513-1.845c-15.508,0-28.055,5.68-28.055,12.693,0,.389.121,32.279.169,49.025H202.46a16.319,16.319,0,0,1-16.309-16.333V191.309A16.314,16.314,0,0,1,202.46,175H381.909v17.329A85.97,85.97,0,0,0,446.295,275.548Z" transform="translate(0 -13.504)" fill="#c5c5c5"/><path d="M432.429,273.34V379.712C419.711,380.9,410.2,386,410.2,392.114c0,.268.049,15.362.1,30.216H212.985V393.691H220.7V340.469h-7.717v-58.83H220.7V228.417h-7.717V199.755H388.4A85.86,85.86,0,0,0,432.429,273.34Z" transform="translate(-6.472 -19.474)" fill="#eaeaea"/><rect width="13.412" height="53.215" transform="translate(200.814 208.941)" fill="#acb3ba"/><rect width="13.412" height="53.215" transform="translate(200.814 320.996)" fill="#acb3ba"/><circle cx="39.371" cy="39.371" r="39.371" transform="translate(324.983 252.206)" fill="#324a5e"/><circle cx="34.119" cy="34.119" r="34.119" transform="translate(330.235 257.458)" fill="#2b3b4e"/><path d="M393.363,347.4H383.51a1.418,1.418,0,0,1-1.432-1.431,1.439,1.439,0,0,1,1.432-1.456h9.853q-.073.728-.073,1.456A13.753,13.753,0,0,0,393.363,347.4Z" transform="translate(-47.252 -54.385)" fill="#acb3ba"/><path d="M395.371,318.758l6.965,6.966a16.059,16.059,0,0,0-2.038,2.038l-6.965-6.966a1.464,1.464,0,0,1,0-2.038A1.451,1.451,0,0,1,395.371,318.758Z" transform="translate(-49.867 -48.073)" fill="#acb3ba"/><path d="M402.334,364.106l-6.965,6.965a1.441,1.441,0,0,1-2.038-2.038l6.965-6.965A14.7,14.7,0,0,0,402.334,364.106Z" transform="translate(-49.865 -58.619)" fill="#acb3ba"/><path d="M421.97,308.937v9.853a13.786,13.786,0,0,0-1.433-.072q-.727,0-1.455.072v-9.853a1.444,1.444,0,0,1,2.888,0Z" transform="translate(-56.177 -45.46)" fill="#acb3ba"/><path d="M420.537,370.52a13.786,13.786,0,0,0,1.433-.072V380.3a1.444,1.444,0,1,1-2.888,0v-9.853Q419.809,370.521,420.537,370.52Z" transform="translate(-56.177 -60.64)" fill="#acb3ba"/><path d="M445.644,369.033a1.441,1.441,0,0,1-2.038,2.038l-6.966-6.965a13.45,13.45,0,0,0,2.039-2.038Z" transform="translate(-60.411 -58.619)" fill="#acb3ba"/><path d="M436.64,325.724l6.966-6.966a1.441,1.441,0,0,1,2.038,2.038l-6.965,6.966A16.019,16.019,0,0,0,436.64,325.724Z" transform="translate(-60.411 -48.073)" fill="#acb3ba"/><path d="M456.33,345.965a1.439,1.439,0,0,1-1.456,1.431H445.02a13.756,13.756,0,0,0,.072-1.431q0-.728-.072-1.456h9.853A1.46,1.46,0,0,1,456.33,345.965Z" transform="translate(-62.432 -54.385)" fill="#acb3ba"/><circle cx="18.314" cy="18.314" r="18.314" transform="translate(346.04 273.262)" fill="#ced5e0"/><circle cx="13.845" cy="13.845" r="13.845" transform="matrix(0.241, -0.971, 0.971, 0.241, 347.58, 301.676)" fill="#acb3ba"/><path d="M441.41,192.329c0,.486,0,.971.024,1.456h-8.543c-.024-.486-.024-.971-.024-1.48V175h8.543Z" transform="translate(-59.501 -13.504)" fill="#ced5e0"/><path d="M522.535,304.906v8.834l-2.16-.558a93.381,93.381,0,0,1-18.2-6.771v-9.684a84.383,84.383,0,0,0,20.338,8.179Z" transform="translate(-76.216 -42.861)" fill="#ced5e0"/><path d="M485.466,273.34v9.684A94.593,94.593,0,0,1,432.9,199.755h8.543A85.86,85.86,0,0,0,485.466,273.34Z" transform="translate(-59.509 -19.474)" fill="#acb3ba"/><path d="M508.523,119.009s-16.8,20.34-64.4,17.54v42.267a85.98,85.98,0,0,0,64.4,83.227h0a85.979,85.979,0,0,0,64.4-83.227V136.549C525.322,139.349,508.523,119.009,508.523,119.009Z" transform="translate(-62.217)" fill="#fff"/><path d="M512.449,254.283A73.636,73.636,0,0,1,460.4,183.889V154.2c26.242-.615,42.766-8.014,52.044-14.153,9.277,6.14,25.8,13.539,52.046,14.154v29.692A73.635,73.635,0,0,1,512.449,254.283Z" transform="translate(-66.143 -5.073)" fill="#f60"/><rect width="17.153" height="17.153" rx="0.742" transform="translate(237.089 268.829)" fill="#324a5e"/><rect width="17.153" height="17.153" rx="0.742" transform="translate(258.602 268.829)" fill="#324a5e"/><rect width="17.153" height="17.153" rx="0.742" transform="translate(280.115 268.829)" fill="#324a5e"/><rect width="17.153" height="17.153" rx="0.742" transform="translate(237.089 289.097)" fill="#324a5e"/><rect width="17.153" height="17.153" rx="0.742" transform="translate(258.602 289.097)" fill="#324a5e"/><rect width="17.153" height="17.153" rx="0.742" transform="translate(280.115 289.097)" fill="#324a5e"/><rect width="17.153" height="17.153" rx="0.742" transform="translate(237.089 309.366)" fill="#324a5e"/><rect width="17.153" height="17.153" rx="0.742" transform="translate(258.602 309.366)" fill="#324a5e"/><rect width="17.153" height="17.153" rx="0.742" transform="translate(280.115 309.366)" fill="#324a5e"/><path d="M349.9,461.16a3.374,3.374,0,0,0-.019.437v-.437Z" transform="translate(-39.487 -82.518)" fill="#f9b54c"/><path d="M401.034,448.029v.437a3.514,3.514,0,0,0-.018-.437Z" transform="translate(-51.82 -79.351)" fill="#f9b54c"/><path d="M501.9,464.288a2.956,2.956,0,0,0-.017.383v-.383Z" transform="translate(-76.146 -83.272)" fill="#f9b54c"/><path d="M470.823,530.039h-8.761a12.39,12.39,0,0,1-.171-2.135s-.023-4.077-.049-10.048h8.543c.024,5.995.049,10.048.049,10.048A6.373,6.373,0,0,0,470.823,530.039Z" transform="translate(-66.489 -96.191)" fill="#959a9e"/><path d="M512.723,426.812v8.834a55.292,55.292,0,0,0-14.513-1.845c-15.508,0-28.055,5.68-28.055,12.693,0,.389.121,32.279.169,49.025H461.78c-.072-16.771-.194-48.611-.194-49.025,0-12.3,15.411-21.259,36.622-21.259A64.214,64.214,0,0,1,512.723,426.812Z" transform="translate(-66.428 -73.853)" fill="#ced5e0"/><path d="M492.385,425.585v8.591c-12.717,1.19-22.231,6.285-22.231,12.4,0,.268.049,15.362.1,30.216h-8.543c-.049-14.853-.121-29.924-.121-30.216C461.587,435.438,474.231,427.066,492.385,425.585Z" transform="translate(-66.428 -73.938)" fill="#acb3ba"/><path d="M334.4,575.784c-16.48-.024-29.842-6.1-29.842-13.568v10.563c0,7.47,13.362,13.526,29.842,13.551,16.48-.025,29.843-6.081,29.843-13.551V562.216C364.243,569.687,350.881,575.76,334.4,575.784Z" transform="translate(-28.557 -106.89)" fill="#f9b54c"/><ellipse cx="29.945" cy="13.565" rx="29.945" ry="13.565" transform="translate(275.755 441.764)" fill="#ffd05b"/><ellipse cx="22.966" cy="10.403" rx="22.966" ry="10.403" transform="translate(282.734 444.926)" fill="#f9b54c"/><path d="M349.44,562.3c0-2.1-3.777-3.815-8.421-3.815-1.831,0-3.321-.675-3.321-1.5s1.49-1.5,3.321-1.5a5.74,5.74,0,0,1,2.418.474,4.97,4.97,0,0,0,3.606.049c1.026-.437,1.074-1.169.109-1.633a12.522,12.522,0,0,0-3.583-1.02v-.672c0-.638-1.142-1.156-2.55-1.156s-2.55.518-2.55,1.156v.671c-3.4.491-5.871,1.935-5.871,3.636,0,2.1,3.777,3.815,8.421,3.815,1.831,0,3.321.675,3.321,1.5s-1.49,1.5-3.321,1.5a5.745,5.745,0,0,1-2.419-.474,4.964,4.964,0,0,0-3.605-.049c-1.026.437-1.075,1.169-.109,1.633a12.55,12.55,0,0,0,3.583,1.021v.672c0,.638,1.142,1.156,2.55,1.156s2.55-.518,2.55-1.156v-.671C346.97,565.443,349.44,564,349.44,562.3Z" transform="translate(-35.319 -104.309)" fill="#ffd05b"/><path d="M401.882,566.566c-13.62-9.278-21.264-21.808-17.068-27.989l-5.933,8.739c-4.2,6.181,3.456,18.7,17.077,27.975,13.649,9.236,28.105,11.733,32.3,5.552l5.933-8.739C430,578.285,415.531,575.8,401.882,566.566Z" transform="translate(-46.204 -101.189)" fill="#f9b54c"/><ellipse cx="13.565" cy="29.945" rx="13.565" ry="29.945" transform="matrix(0.562, -0.827, 0.827, 0.562, 330.785, 448.475)" fill="#ffd05b"/><ellipse cx="10.403" cy="22.965" rx="10.403" ry="22.965" transform="matrix(0.562, -0.827, 0.827, 0.562, 338.335, 449.779)" fill="#f9b54c"/><path d="M422.289,564.99c1.182-1.741-.982-5.278-4.824-7.887-1.515-1.028-2.368-2.424-1.9-3.11s2.078-.407,3.592.621a5.742,5.742,0,0,1,1.735,1.751,4.966,4.966,0,0,0,2.955,2.066c1.1.215,1.546-.363,1.008-1.29a12.559,12.559,0,0,0-2.391-2.856l.377-.556c.359-.528-.3-1.6-1.461-2.389s-2.4-1-2.76-.477l-.376.555c-3.089-1.5-5.944-1.7-6.9-.29-1.182,1.74.983,5.278,4.825,7.886,1.515,1.029,2.368,2.424,1.9,3.11s-2.078.408-3.592-.621a5.723,5.723,0,0,1-1.735-1.751,4.972,4.972,0,0,0-2.956-2.066c-1.094-.214-1.546.364-1.008,1.29a12.563,12.563,0,0,0,2.391,2.857l-.377.556c-.359.528.3,1.6,1.461,2.389s2.4,1.005,2.759.477l.377-.555C418.479,566.2,421.334,566.4,422.289,564.99Z" transform="translate(-53.637 -103.985)" fill="#ffd05b"/><path d="M536.473,193.987a10.97,10.97,0,1,0-17.037,9.132v15.738a6.068,6.068,0,0,0,6.068,6.068h0a6.069,6.069,0,0,0,6.068-6.068V203.119A10.953,10.953,0,0,0,536.473,193.987Z" transform="translate(-79.197 -15.437)" fill="#fff"/><path d="M546.822,452.752v.384a3.25,3.25,0,0,0-.015-.384Z" transform="translate(-86.981 -80.49)" fill="#f9b54c"/><path d="M501.135,465.973c-15.444-.024-27.967-5.714-27.967-12.715v9.9c0,7,12.522,12.675,27.967,12.7,15.444-.024,27.966-5.7,27.966-12.7v-9.9C529.1,460.259,516.578,465.949,501.135,465.973Z" transform="translate(-69.221 -80.612)" fill="#f9b54c"/><path d="M501.135,478.934c-15.444-.024-27.967-5.714-27.967-12.715v9.9c0,7,12.522,12.675,27.967,12.7,15.444-.024,27.966-5.7,27.966-12.7v-9.9C529.1,473.22,516.578,478.91,501.135,478.934Z" transform="translate(-69.221 -83.738)" fill="#ffd05b"/><path d="M529.105,479.189v8.833a31.993,31.993,0,0,0-26.236,13.664c-.024,0-.024.024-.024.048-.558.049-1.141.049-1.723.049-14.538-.025-26.478-5.048-27.813-11.48a5.02,5.02,0,0,1-.146-1.213v-9.9c0,6.99,12.524,12.693,27.959,12.716C516.583,491.882,529.105,486.179,529.105,479.189Z" transform="translate(-69.22 -86.866)" fill="#f9b54c"/><path d="M502.87,504.833c-.024,0-.024.024-.024.048a31.385,31.385,0,0,0-4.611,9.8c-14.076-.679-25.071-6.068-25.071-12.619v-9.83a5.02,5.02,0,0,0,.146,1.213c1.433,6.384,13.349,11.407,27.813,11.431C501.7,504.881,502.288,504.881,502.87,504.833Z" transform="translate(-69.22 -90.013)" fill="#ffd05b"/><path d="M497.07,526.306c0,.412,0,.825.024,1.238-13.543-.9-23.93-6.165-23.93-12.549v-9.9c0,6.577,10.995,11.964,25.071,12.644A32.136,32.136,0,0,0,497.07,526.306Z" transform="translate(-69.22 -93.114)" fill="#f9b54c"/><path d="M499.085,540.618c-14.49-.484-25.921-5.97-25.921-12.668v-9.9c0,6.383,10.388,11.674,23.93,12.571A31.7,31.7,0,0,0,499.085,540.618Z" transform="translate(-69.22 -96.238)" fill="#ffd05b"/><ellipse cx="28.062" cy="12.712" rx="28.062" ry="12.712" transform="translate(403.716 359.937)" fill="#ffd05b"/><ellipse cx="21.522" cy="9.749" rx="21.522" ry="9.749" transform="translate(410.256 362.9)" fill="#f9b54c"/><path d="M515.228,453.335c0-1.971-3.541-3.575-7.893-3.575-1.716,0-3.111-.632-3.111-1.41s1.4-1.409,3.111-1.409a5.364,5.364,0,0,1,2.267.444,4.658,4.658,0,0,0,3.379.046c.961-.41,1.007-1.095.1-1.531a11.751,11.751,0,0,0-3.358-.956v-.63c0-.6-1.07-1.083-2.39-1.083s-2.39.485-2.39,1.083v.628c-3.186.46-5.5,1.814-5.5,3.407,0,1.971,3.54,3.576,7.892,3.576,1.716,0,3.112.632,3.112,1.409s-1.4,1.41-3.112,1.41a5.376,5.376,0,0,1-2.267-.444,4.658,4.658,0,0,0-3.379-.046c-.961.41-1.007,1.1-.1,1.531a11.789,11.789,0,0,0,3.358.956v.63c0,.6,1.07,1.083,2.39,1.083s2.39-.485,2.39-1.083v-.629C512.913,456.282,515.228,454.929,515.228,453.335Z" transform="translate(-75.558 -78.194)" fill="#ffd05b"/><circle cx="32.024" cy="32.024" r="32.024" transform="translate(416.99 418.648) rotate(-26.268)" fill="#ffd05b"/><circle cx="24.56" cy="24.56" r="24.56" transform="matrix(0.16, -0.987, 0.987, 0.16, 431.702, 453.501)" fill="#f9b54c"/><path d="M553.021,533.233a9.017,9.017,0,0,0-9.006-9.007,3.551,3.551,0,1,1,2.587-5.983,2.728,2.728,0,0,0,3.972-3.739,9.025,9.025,0,0,0-3.831-2.408v-1.587a2.728,2.728,0,0,0-5.456,0v1.584a9.006,9.006,0,0,0,2.728,17.59,3.551,3.551,0,0,1,0,7.1,3.516,3.516,0,0,1-2.587-1.119,2.728,2.728,0,0,0-3.972,3.74,9.041,9.041,0,0,0,3.831,2.409V543.4a2.728,2.728,0,1,0,5.456,0v-1.584A9.021,9.021,0,0,0,553.021,533.233Z" transform="translate(-84.135 -93.761)" fill="#ffd05b"/><g transform="translate(-610.249 -3974.692)"><g transform="translate(1404 4157.8)"><g transform="translate(0 0)"><rect width="234.681" height="318.54" rx="8.142" transform="translate(20.613 234.681) rotate(-90)" fill="#4f4f4f"/><g transform="translate(43.854 21.995)"><rect width="270.901" height="191.107" fill="#fff"/></g><circle cx="7.955" cy="7.955" r="7.955" transform="translate(317.108 123.262) rotate(-76.761)" fill="#e7e8eb"/><path d="M26.355,119.68l5.149-.633s6.749,20.149-6.327,25.376Z" transform="translate(-25.177 -54.39)" fill="#faeae4"/></g></g><text transform="translate(1579.4 4306)" fill="#3b3b3b" font-size="31" font-family="MyriadPro-Bold, Myriad Pro" font-weight="700"><tspan x="-93.883" y="0">Hardware for </tspan><tspan fill="#f60" font-size="41"><tspan x="-44.854" y="40">FREE</tspan></tspan></text><g transform="translate(1530.616 4197.528)"><path d="M524.2,660.746a12.158,12.158,0,0,1,1.078-5.264,8.025,8.025,0,0,1,3.045-3.49,8.924,8.924,0,0,1,9,0,8.027,8.027,0,0,1,3.045,3.49,12.125,12.125,0,0,1,1.077,5.25v.9a12.226,12.226,0,0,1-1.057,5.244,7.961,7.961,0,0,1-3.025,3.476,8.938,8.938,0,0,1-9,.014,8.036,8.036,0,0,1-3.059-3.456,11.867,11.867,0,0,1-1.1-5.166Zm5.367,5.7a3.994,3.994,0,0,0,6.508.063,8.58,8.58,0,0,0,1.14-4.8v-.987a8.517,8.517,0,0,0-1.14-4.838,4.027,4.027,0,0,0-6.494-.021,8.424,8.424,0,0,0-1.154,4.79v.987a8.624,8.624,0,0,0,1.14,4.81Z" transform="translate(-524.197 -612.089)" fill="#f60"/><path d="M602.036,670.295l.111,1.794a3.723,3.723,0,0,1,3.352-2.072,4.212,4.212,0,0,1,1.252.181l-.056,3.865a10.966,10.966,0,0,0-1.446-.111q-2.281,0-2.99,1.543v9.845H598.24V670.295Z" transform="translate(-578.227 -626.13)" fill="#f60"/><path d="M635.942,655.809a5.1,5.1,0,0,1,4.311-2.086,4.61,4.61,0,0,1,3.63,1.641v-7.676h4.033v21.359h-3.63l-.195-1.6a4.73,4.73,0,0,1-3.865,1.877,5.107,5.107,0,0,1-4.263-2.092,9.359,9.359,0,0,1-1.606-5.82A9.038,9.038,0,0,1,635.942,655.809Zm3.171,9.136a2.4,2.4,0,0,0,2.141,1.127,2.69,2.69,0,0,0,2.628-1.571v-5.937a2.652,2.652,0,0,0-2.6-1.572q-2.907,0-2.907,4.714a5.922,5.922,0,0,0,.737,3.24Z" transform="translate(-604.582 -609.837)" fill="#f60"/><path d="M694.032,678.175v-.389a9.087,9.087,0,0,1,.876-4.054,6.433,6.433,0,0,1,2.482-2.754,6.969,6.969,0,0,1,3.664-.966,6.245,6.245,0,0,1,4.86,1.946,7.911,7.911,0,0,1,1.773,5.521v1.641h-9.581a3.734,3.734,0,0,0,1.175,2.364,3.551,3.551,0,0,0,2.482.89,4.338,4.338,0,0,0,3.629-1.683l1.975,2.211a6.033,6.033,0,0,1-2.447,2,8.033,8.033,0,0,1-3.421.716,7.386,7.386,0,0,1-5.389-2.03A7.217,7.217,0,0,1,694.032,678.175Zm4.116-1.794h5.59v-.319a2.965,2.965,0,0,0-.723-2.065,2.6,2.6,0,0,0-1.973-.73,2.516,2.516,0,0,0-1.94.807A4.15,4.15,0,0,0,698.148,676.381Z" transform="translate(-648.126 -626.125)" fill="#f60"/><path d="M756.8,670.295l.111,1.794a3.724,3.724,0,0,1,3.352-2.072,4.21,4.21,0,0,1,1.251.181l-.056,3.865a10.942,10.942,0,0,0-1.446-.111q-2.281,0-2.99,1.543v9.845H753V670.295Z" transform="translate(-691.157 -626.13)" fill="#f60"/><path d="M790.543,661.964v-1.376a12.45,12.45,0,0,1,1.022-5.25,7.56,7.56,0,0,1,2.948-3.393,9.708,9.708,0,0,1,10.145.542,7.339,7.339,0,0,1,2.406,5H803a4.037,4.037,0,0,0-1.231-2.545,3.93,3.93,0,0,0-2.622-.806,3.7,3.7,0,0,0-3.24,1.6,8.412,8.412,0,0,0-1.127,4.756v1.293a8,8,0,0,0,1.21,4.811,4.143,4.143,0,0,0,3.546,1.627,4.632,4.632,0,0,0,3.352-1v-3.493h-3.8v-3.073h7.968v8.079a7.241,7.241,0,0,1-3.184,2.093,13.341,13.341,0,0,1-4.561.744,9.033,9.033,0,0,1-4.61-1.147,7.652,7.652,0,0,1-3.06-3.331A11.714,11.714,0,0,1,790.543,661.964Z" transform="translate(-718.549 -612.084)" fill="#333"/><path d="M861.9,660.746a12.158,12.158,0,0,1,1.078-5.264,8.028,8.028,0,0,1,3.045-3.49,8.924,8.924,0,0,1,9,0,8.027,8.027,0,0,1,3.045,3.49,12.124,12.124,0,0,1,1.078,5.25v.9a12.225,12.225,0,0,1-1.057,5.244,7.962,7.962,0,0,1-3.024,3.476,8.938,8.938,0,0,1-9,.014A8.034,8.034,0,0,1,863,666.914a11.862,11.862,0,0,1-1.1-5.166Zm5.368,5.7a3.993,3.993,0,0,0,6.508.063,8.58,8.58,0,0,0,1.14-4.8v-.987a8.516,8.516,0,0,0-1.14-4.838,4.027,4.027,0,0,0-6.494-.021,8.425,8.425,0,0,0-1.154,4.79v.987A8.622,8.622,0,0,0,867.272,666.447Z" transform="translate(-770.623 -612.089)" fill="#333"/><path d="M577.563,742.021a1.946,1.946,0,0,1-.162.818,1.227,1.227,0,0,1-.46.542,1.257,1.257,0,0,1-.691.189,1.2,1.2,0,0,1-.955-.423,1.69,1.69,0,0,1-.364-1.141v-.348a1.935,1.935,0,0,1,.163-.817,1.213,1.213,0,0,1,1.151-.738,1.261,1.261,0,0,1,.687.188,1.232,1.232,0,0,1,.46.531,1.91,1.91,0,0,1,.169.795Zm-.285-.366A1.491,1.491,0,0,0,577,740.7a.992.992,0,0,0-1.505,0,1.5,1.5,0,0,0-.278.97v.351a1.493,1.493,0,0,0,.278.951.993.993,0,0,0,1.511,0,1.531,1.531,0,0,0,.27-.965Z" transform="translate(-561.218 -677.272)"/><path d="M595.6,742.243h-.981v1.406h-.288v-3.373h1.1a1.25,1.25,0,0,1,.844.262,1,1,0,0,1,.114,1.3.971.971,0,0,1-.51.343l.843,1.437v.03h-.3Zm-.981-.241h.874a.811.811,0,0,0,.577-.2.772.772,0,0,0-.009-1.084.942.942,0,0,0-.637-.2h-.8Z" transform="translate(-575.374 -677.397)"/><path d="M612.528,743.656v-3.374h.943a1.468,1.468,0,0,1,.744.189,1.309,1.309,0,0,1,.514.541,1.7,1.7,0,0,1,.184.8v.311a1.706,1.706,0,0,1-.183.8,1.3,1.3,0,0,1-.516.54,1.514,1.514,0,0,1-.764.189Zm.285-3.133v2.892h.64a1.1,1.1,0,0,0,.855-.353,1.366,1.366,0,0,0,.322-.957v-.3a1.336,1.336,0,0,0-.317-.932,1.083,1.083,0,0,0-.838-.351Z" transform="translate(-588.653 -677.403)"/><path d="M632.915,742.039h-1.578v1.377h1.815v.241h-2.1v-3.374h2.088v.241h-1.8V741.8h1.578Z" transform="translate(-602.17 -677.403)"/><path d="M649.3,742.243h-.981v1.406h-.288v-3.373h1.1a1.25,1.25,0,0,1,.844.262,1,1,0,0,1,.114,1.3.971.971,0,0,1-.51.343l.844,1.437v.03h-.3Zm-.98-.241h.874a.811.811,0,0,0,.577-.2.772.772,0,0,0-.009-1.084.942.942,0,0,0-.637-.2h-.8Z" transform="translate(-614.563 -677.397)"/><path d="M666.754,743.656h-.285v-3.374h.285Z" transform="translate(-628.014 -677.403)"/><path d="M680.449,743.656h-.285l-1.939-2.888v2.888h-.287v-3.374h.287l1.942,2.89v-2.89h.283Z" transform="translate(-636.383 -677.403)"/><path d="M699.611,743.134a.957.957,0,0,1-.465.329,2.015,2.015,0,0,1-.708.118,1.314,1.314,0,0,1-.7-.189,1.262,1.262,0,0,1-.477-.537,1.825,1.825,0,0,1-.172-.8v-.427a1.629,1.629,0,0,1,.355-1.108,1.2,1.2,0,0,1,.953-.406,1.267,1.267,0,0,1,.838.265,1.1,1.1,0,0,1,.378.731h-.285a.874.874,0,0,0-.3-.564.975.975,0,0,0-.627-.192.919.919,0,0,0-.749.337,1.457,1.457,0,0,0-.276.948v.4a1.666,1.666,0,0,0,.131.681,1.036,1.036,0,0,0,.376.458.99.99,0,0,0,.562.162,1.564,1.564,0,0,0,.632-.116.681.681,0,0,0,.255-.178v-.871h-.906v-.241h1.191Z" transform="translate(-650.352 -677.282)"/><path d="M728.128,740.282l1.243,2.978,1.249-2.978H731v3.374h-.285v-1.469l.023-1.507-1.256,2.976h-.22l-1.251-2.964.023,1.487v1.479h-.284v-3.375Z" transform="translate(-672.731 -677.403)"/><path d="M750.826,742.708h-1.532l-.348.948h-.3l1.277-3.374h.27l1.277,3.374h-.3Zm-1.444-.241h1.354l-.676-1.838Z" transform="translate(-687.98 -677.403)"/><path d="M767.96,743.656v-3.374h.943a1.467,1.467,0,0,1,.744.189,1.308,1.308,0,0,1,.514.541,1.7,1.7,0,0,1,.184.8v.311a1.7,1.7,0,0,1-.183.8,1.3,1.3,0,0,1-.516.541,1.514,1.514,0,0,1-.764.189Zm.285-3.134v2.892h.64a1.1,1.1,0,0,0,.855-.353,1.367,1.367,0,0,0,.322-.957v-.3a1.337,1.337,0,0,0-.317-.932,1.084,1.084,0,0,0-.838-.351Z" transform="translate(-702.073 -677.403)"/><path d="M788.346,742.039h-1.578v1.377h1.815v.241h-2.1v-3.374h2.088v.241h-1.8V741.8h1.578Z" transform="translate(-715.589 -677.403)"/><path d="M816.655,742.039h-1.578v1.377h1.815v.241h-2.1v-3.374h2.088v.241h-1.8V741.8h1.578Z" transform="translate(-736.247 -677.403)"/><path d="M832.663,742.708h-1.532l-.348.948h-.3l1.277-3.374h.27l1.277,3.374h-.3Zm-1.444-.241h1.354l-.676-1.838Z" transform="translate(-747.697 -677.403)"/><path d="M851.1,742.7a.547.547,0,0,0-.2-.444,2.078,2.078,0,0,0-.721-.31,2.522,2.522,0,0,1-.765-.321.778.778,0,0,1-.024-1.273,1.31,1.31,0,0,1,.815-.243,1.352,1.352,0,0,1,.6.13.988.988,0,0,1,.411.362.949.949,0,0,1,.146.517h-.287a.71.71,0,0,0-.236-.557.918.918,0,0,0-.635-.211,1,1,0,0,0-.617.173.541.541,0,0,0-.23.452.512.512,0,0,0,.206.42,1.918,1.918,0,0,0,.661.286,3.129,3.129,0,0,1,.688.257.983.983,0,0,1,.351.319.8.8,0,0,1,.118.438.762.762,0,0,1-.319.64,1.356,1.356,0,0,1-.84.241,1.65,1.65,0,0,1-.655-.128,1,1,0,0,1-.452-.357.918.918,0,0,1-.154-.526h.285a.672.672,0,0,0,.266.563,1.128,1.128,0,0,0,.709.206,1.052,1.052,0,0,0,.633-.174A.543.543,0,0,0,851.1,742.7Z" transform="translate(-761.187 -677.274)"/><path d="M867.212,742.122l1.031-1.84h.329l-1.219,2.1v1.27h-.285v-1.27l-1.216-2.1h.337Z" transform="translate(-773.506 -677.403)"/><path d="M746.781,564.512a10.362,10.362,0,0,0-10.23-9.065q-3.2-.008-6.4,0a3.911,3.911,0,0,0-.568,7.8c1.4.034,2.808,0,4.212.012a1.011,1.011,0,0,0,.182-.013l.036-2.9a.647.647,0,0,1,1.069-.481l6.4,5.526a.647.647,0,0,1-.013.989l-6.5,5.334a.646.646,0,0,1-1.057-.5v-2.839c-.061-.009-2.869-.018-4.2-.006a7.991,7.991,0,0,1-3.5-.817,8.961,8.961,0,0,1-5.19-8.067l-6.942-3.022a17.951,17.951,0,0,0-.216,3.642c.156,3.93,1.048,7.722,3.64,10.577a16.762,16.762,0,0,0,12.695,5.578c2.1.031,4.195.035,6.292,0a10.4,10.4,0,0,0,10.288-11.734Z" transform="translate(-662.588 -542.524)" fill="#333"/><path d="M720.237,521.763a8.92,8.92,0,0,1,8.39-6.193c3.644-.014,7.287,0,10.931-.009.407,0,.815-.045,1.221-.081a3.925,3.925,0,0,0-.519-7.815q-3.064-.006-6.131,0c-2.433,0-4.882-.084-7.3.137a15.851,15.851,0,0,0-11.28,6.261,16.193,16.193,0,0,0-3.369,7.516l7.627,3.02a9.231,9.231,0,0,1,.426-2.835Z" transform="translate(-661.373 -507.649)" fill="#f60"/><path d="M641.739,515.652a9.334,9.334,0,0,1,8.913,6.6l3.816-8.159a16.731,16.731,0,0,0-26.359,1.148l5.409,5.344A9.325,9.325,0,0,1,641.739,515.652Z" transform="translate(-600.022 -508.064)" fill="#333"/><path d="M646.034,529.956a35.191,35.191,0,0,0-2.383,3.877,22.84,22.84,0,0,0-1.432,4.282,9.319,9.319,0,1,1-17.134-1.667l-5.409-5.344a16.752,16.752,0,1,0,26.359-1.148Z" transform="translate(-591.589 -523.927)" fill="#f60"/></g></g></g><g transform="translate(-1293.629 -3667.984)"><g transform="translate(1161.177 3827.8)"><g transform="translate(0 0)"><rect width="229.734" height="311.826" rx="8.142" transform="translate(20.179 229.734) rotate(-90)" fill="#4f4f4f"/><g transform="translate(42.929 21.532)"><rect width="265.19" height="187.079" fill="#fff"/></g><circle cx="7.787" cy="7.787" r="7.787" transform="translate(310.423 120.663) rotate(-76.761)" fill="#e7e8eb"/><path d="M26.33,119.667l5.04-.62s6.607,19.724-6.193,24.841Z" transform="translate(-25.177 -55.753)" fill="#faeae4"/></g></g><g transform="translate(1229.736 3863.422)"><path d="M143.831,2327.394a2.487,2.487,0,0,1,2.487,2.487v10.668a2.487,2.487,0,0,1-4.973,0v-10.668a2.486,2.486,0,0,1,2.486-2.487Z" transform="translate(-131.656 -2301.581)" fill="#a4c639"/><path d="M135.524,2304.048c-.008.093-.015.189-.015.286V2320.5a3.105,3.105,0,0,0,3.084,3.139H155.03a3.106,3.106,0,0,0,3.084-3.139v-16.163c0-.1,0-.192-.012-.286Z" transform="translate(-129.026 -2291.062)" fill="#a4c639"/><path d="M147.1,2308.151a2.487,2.487,0,0,1,2.487,2.487v10.668a2.487,2.487,0,0,1-4.974,0v-10.668a2.487,2.487,0,0,1,2.487-2.487ZM126.2,2296.764a2.487,2.487,0,0,1,2.487,2.487v10.668a2.487,2.487,0,0,1-4.973,0v-10.668a2.486,2.486,0,0,1,2.486-2.487Zm30.6,0a2.487,2.487,0,0,1,2.486,2.487v10.668a2.487,2.487,0,0,1-4.973,0v-10.668a2.487,2.487,0,0,1,2.487-2.487Zm-26.513-2.5c.069-4.965,4.4-9.035,9.964-9.572h2.5c5.562.536,9.9,4.607,9.964,9.572Z" transform="translate(-123.709 -2282.338)" fill="#a4c639"/><path d="M138.331,2288.7a1.873,1.873,0,0,1-1.624-.937l-2.623-4.544a1.873,1.873,0,0,1,3.245-1.873l2.623,4.544a1.874,1.874,0,0,1-1.621,2.811Zm15.449,0a1.873,1.873,0,0,1-1.621-2.811l2.624-4.544a1.873,1.873,0,0,1,3.245,1.873l-2.623,4.544A1.874,1.874,0,0,1,153.78,2288.7Z" transform="translate(-128.271 -2280.408)" fill="#a4c639"/><path d="M147.89,2292.982a1.287,1.287,0,0,1-2.573.007v-.007a1.287,1.287,0,0,1,2.573-.007Zm9.6,0a1.287,1.287,0,0,1-2.573.007v-.007a1.287,1.287,0,0,1,2.573-.007Z" transform="translate(-133.446 -2285.507)" fill="#fff"/></g><text transform="translate(1280.625 3888.584)" fill="#3b3b3b" font-size="20" font-family="MyriadPro-Bold, Myriad Pro" font-weight="700"><tspan x="0" y="0">9 android</tspan></text><text transform="translate(1229.625 3944.584)" fill="#3b3b3b" font-size="20" font-family="MyriadPro-Bold, Myriad Pro" font-weight="700"><tspan x="0" y="0">No Hardware Required</tspan><tspan x="0" y="28">Just Download </tspan><tspan y="28" fill="#ff7d26">ROS </tspan><tspan y="28">App</tspan></text></g><g transform="translate(-289.004 202.6)" fill="none" stroke="#2c2c2c" stroke-width="1" stroke-dasharray="10"><circle cx="330" cy="330" r="330" stroke="none"/><circle cx="330" cy="330" r="329.5" fill="none"/></g><path d="M3144.552,4253.721h266.382" transform="translate(-3244.004 -3682.4)" fill="none" stroke="#2b2b2b" stroke-width="1" stroke-dasharray="7"/><path d="M200.855,322.878l4.708,11.031L200.8,344.923l27.567-11.015Z" transform="translate(114.128 904.222) rotate(180)" fill="#ff7d26"/><g transform="translate(-40.204 531.6)"><text fill="#434343" font-size="20" font-family="Poppins-Medium, Poppins" font-weight="500"><tspan x="0" y="21">Cancel any time</tspan></text></g><g transform="translate(-53.204 584.6)"><text fill="#434343" font-size="20" font-family="Poppins-Medium, Poppins" font-weight="500"><tspan x="0" y="21">No Contract Required</tspan></text></g><g transform="translate(-380.804 376.049)"><text transform="translate(8 5)" fill="#fff" font-size="20" font-family="Poppins-Medium, Poppins" font-weight="500"><tspan x="0" y="21">Just </tspan><tspan x="0" y="51">Deposit</tspan></text></g><circle cx="21.5" cy="21.5" r="21.5" transform="translate(17.996 478.6)" fill="#f60"/><text transform="translate(30.996 509.6)" fill="#fff" font-size="26" font-family="Poppins-Medium, Poppins" font-weight="500"><tspan x="0" y="0">X</tspan></text><g transform="translate(-11.704 765.113)"><text transform="translate(-37 -12)" fill="#434343" font-size="26" font-family="Poppins-Medium, Poppins" font-weight="500"><tspan x="2.282" y="27">Fully Refunded</tspan></text></g><g transform="translate(-913.206 464.384)"><path d="M1036.265,289.6a28.744,28.744,0,0,0-2.225-24.577,29.076,29.076,0,0,0-24.494-13.833c-.355,0-.711.007-1.066.021a28.318,28.318,0,0,0-13.258,52.768l10.71-12.049a8.627,8.627,0,0,1,12.9,11.462l-3.5,3.941A28.559,28.559,0,0,0,1036.265,289.6Z" transform="translate(-51.839 -51.959)" fill="#4f4f4f"/><g transform="translate(940.179 211.331)"><path d="M1039.862,320.963a4.377,4.377,0,0,1-3.263-1.312,4.723,4.723,0,0,1,0-6.482,4.388,4.388,0,0,1,3.263-1.307,4.462,4.462,0,0,1,2.194.557,4.072,4.072,0,0,1,1.569,1.506l-1.488.862a2.313,2.313,0,0,0-.925-.919,2.994,2.994,0,0,0-3.407.469,3.13,3.13,0,0,0,0,4.138,2.744,2.744,0,0,0,2.056.8,2.783,2.783,0,0,0,1.357-.331,2.242,2.242,0,0,0,.919-.906l1.488.863a4.085,4.085,0,0,1-1.563,1.506A4.448,4.448,0,0,1,1039.862,320.963Z" transform="translate(-1035.311 -311.862)" fill="#fff"/><path d="M1084.662,321.493l-.525-1.575h-3.488l-.525,1.575h-1.862l3.063-8.751h2.138l3.076,8.751Zm-3.462-3.188h2.4l-1.2-3.576Z" transform="translate(-1069.698 -312.567)" fill="#fff"/><path d="M1124.208,320.963a3.908,3.908,0,0,1-2.188-.581,3.108,3.108,0,0,1-1.25-1.581l1.475-.863a1.967,1.967,0,0,0,2.013,1.338,1.733,1.733,0,0,0,1.062-.262.827.827,0,0,0-.075-1.382,6.381,6.381,0,0,0-1.475-.556,9.143,9.143,0,0,1-.994-.35,4.27,4.27,0,0,1-.813-.469,1.91,1.91,0,0,1-.619-.744,2.432,2.432,0,0,1-.213-1.05,2.343,2.343,0,0,1,.844-1.894,3.061,3.061,0,0,1,2.031-.706,3.377,3.377,0,0,1,1.869.519,3.484,3.484,0,0,1,1.257,1.444l-1.45.838a1.747,1.747,0,0,0-1.675-1.125,1.32,1.32,0,0,0-.844.243.77.77,0,0,0-.306.632.8.8,0,0,0,.344.669,4.8,4.8,0,0,0,1.319.556c.266.084.469.148.607.194s.325.117.562.213a3.386,3.386,0,0,1,.55.269,4.374,4.374,0,0,1,.444.337,1.744,1.744,0,0,1,.381.438,2.509,2.509,0,0,1,.319,1.238,2.346,2.346,0,0,1-.881,1.925A3.538,3.538,0,0,1,1124.208,320.963Z" transform="translate(-1103.73 -311.862)" fill="#fff"/><path d="M1164.244,312.742h1.712v8.751h-1.712v-3.625h-3.25v3.625h-1.725v-8.751h1.725v3.475h3.25Z" transform="translate(-1134.552 -312.567)" fill="#fff"/><path d="M1064.239,375.138a2.163,2.163,0,0,1,1.15,2,2.352,2.352,0,0,1-.787,1.825,2.784,2.784,0,0,1-1.938.713h-3.713v-8.751h3.451a2.723,2.723,0,0,1,1.894.693,2.278,2.278,0,0,1,.769,1.769A2.134,2.134,0,0,1,1064.239,375.138Zm-1.838-2.6h-1.725v1.925h1.725a.9.9,0,0,0,.669-.275.945.945,0,0,0,.269-.687.957.957,0,0,0-.262-.687A.892.892,0,0,0,1062.4,372.538Zm.262,5.526a.972.972,0,0,0,.725-.294,1.019,1.019,0,0,0,.287-.744,1,1,0,0,0-.287-.731.974.974,0,0,0-.725-.294h-1.988v2.063Z" transform="translate(-1054.236 -359.148)" fill="#fff"/><path d="M1099.4,379.676l-.526-1.575h-3.488l-.525,1.575h-1.863l3.063-8.751h2.138l3.075,8.751Zm-3.463-3.188h2.4l-1.2-3.576Z" transform="translate(-1081.492 -359.148)" fill="#fff"/><path d="M1139.741,379.147a4.378,4.378,0,0,1-3.263-1.312,4.722,4.722,0,0,1,0-6.482,4.389,4.389,0,0,1,3.263-1.306,4.46,4.46,0,0,1,2.194.556,4.071,4.071,0,0,1,1.569,1.507l-1.488.862a2.309,2.309,0,0,0-.925-.919,2.994,2.994,0,0,0-3.407.469,3.13,3.13,0,0,0,0,4.138,2.745,2.745,0,0,0,2.057.8,2.782,2.782,0,0,0,1.356-.331,2.238,2.238,0,0,0,.919-.906l1.488.862a4.079,4.079,0,0,1-1.563,1.506A4.448,4.448,0,0,1,1139.741,379.147Z" transform="translate(-1115.275 -358.445)" fill="#fff"/><path d="M1189.054,379.676h-1.988l-3.126-4.1v4.1h-1.725v-8.751h1.725v3.863l3-3.863h1.988l-3.238,4.25Z" transform="translate(-1152.924 -359.148)" fill="#fff"/></g><path d="M965.532,277.594,957,269.058a41.384,41.384,0,0,0,36.3-62.651,41.705,41.705,0,0,0-37.165-20.082,41.384,41.384,0,0,0-27.772,70.461l.017.017a4.313,4.313,0,0,0,6.116-6.083,32.766,32.766,0,1,1,21.275,9.664c-.768-.047-1.535-.129-2.3-.229l10.3-11.583a4.314,4.314,0,0,0-6.448-5.732L941.79,260.309a4.313,4.313,0,0,0,.174,5.916l17.469,17.469a4.313,4.313,0,0,0,6.1-6.1Z" transform="translate(0 0)" fill="#f60"/></g></g></svg>