<svg xmlns="http://www.w3.org/2000/svg" width="35.761" height="35" viewBox="0 0 35.761 35"><g transform="translate(0.001 -2.718)"><path d="M10.5,2.718a.7.7,0,0,0-.474.2l-2.1,2.1a.7.7,0,1,0,.978,1l.012-.012.9-.9v6.005h-1.4a.7.7,0,1,0-.02,1.4h2a.7.7,0,0,0,.226,0h1.287a.7.7,0,1,0,.02-1.4H11.22V3.417a.7.7,0,0,0-.7-.7Zm7.714,0a.7.7,0,0,0-.474.2l-2.1,2.1a.7.7,0,1,0,.969,1.009l.02-.02.9-.9v6.005h-1.4a.7.7,0,0,0-.02,1.4h2a.7.7,0,0,0,.227,0h1.287a.7.7,0,1,0,.02-1.4h-.719V3.417a.7.7,0,0,0-.7-.7Zm-15.757,0A2.458,2.458,0,0,0,.009,5.171v4.9a2.448,2.448,0,1,0,4.9,0v-4.9A2.458,2.458,0,0,0,2.457,2.723Zm23.141,0A2.458,2.458,0,0,0,23.15,5.171v4.9a2.448,2.448,0,1,0,4.9,0v-4.9A2.458,2.458,0,0,0,25.6,2.723Zm7.714,0a2.458,2.458,0,0,0-2.448,2.448v4.9a2.448,2.448,0,1,0,4.9,0v-4.9A2.458,2.458,0,0,0,33.312,2.723ZM2.457,4.122A1.032,1.032,0,0,1,3.507,5.171v4.9a1.032,1.032,0,0,1-1.049,1.049,1.032,1.032,0,0,1-1.049-1.049v-4.9A1.032,1.032,0,0,1,2.457,4.122Zm23.141,0a1.032,1.032,0,0,1,1.049,1.049v4.9a1.049,1.049,0,1,1-2.1,0v-4.9A1.032,1.032,0,0,1,25.6,4.122Zm7.714,0a1.032,1.032,0,0,1,1.049,1.049v4.9a1.049,1.049,0,1,1-2.1,0v-4.9A1.032,1.032,0,0,1,33.312,4.122ZM2.787,15.318a.7.7,0,0,0-.474.2l-2.1,2.1a.7.7,0,0,0,.989.989l.9-.9v6.005H.709a.7.7,0,0,0-.02,1.4h2a.7.7,0,0,0,.227,0H4.206a.7.7,0,0,0,.02-1.4H3.507V16.017a.7.7,0,0,0-.7-.7Zm15.427,0a.7.7,0,0,0-.474.2l-2.1,2.1a.7.7,0,1,0,.977,1l.012-.012.9-.9v6.005h-1.4a.7.7,0,0,0-.02,1.4h2a.7.7,0,0,0,.227,0h1.287a.7.7,0,0,0,.02-1.4h-.719V16.017a.7.7,0,0,0-.7-.7Zm7.714,0a.7.7,0,0,0-.474.2l-2.1,2.1a.7.7,0,1,0,.977,1l.012-.012.9-.9v6.005h-1.4a.7.7,0,0,0-.02,1.4h2a.7.7,0,0,0,.227,0h1.287a.7.7,0,0,0,.02-1.4h-.719V16.017a.7.7,0,0,0-.7-.7Zm-15.756,0a2.458,2.458,0,0,0-2.448,2.448v4.9a2.448,2.448,0,1,0,4.9,0v-4.9A2.458,2.458,0,0,0,10.171,15.323Zm23.141,0a2.458,2.458,0,0,0-2.448,2.448v4.9a2.448,2.448,0,0,0,4.9,0v-4.9A2.458,2.458,0,0,0,33.312,15.323Zm-23.141,1.4a1.032,1.032,0,0,1,1.049,1.049v4.9a1.049,1.049,0,0,1-2.1,0v-4.9A1.032,1.032,0,0,1,10.171,16.721Zm23.141,0a1.032,1.032,0,0,1,1.049,1.049v4.9a1.049,1.049,0,0,1-2.1,0v-4.9A1.032,1.032,0,0,1,33.312,16.721ZM2.787,27.917a.7.7,0,0,0-.474.2l-2.1,2.1a.7.7,0,0,0,.989.989l.9-.9v6H.709a.7.7,0,0,0-.02,1.4h2a.7.7,0,0,0,.227,0H4.206a.7.7,0,0,0,.02-1.4H3.507V28.616a.7.7,0,0,0-.7-.7Zm7.714,0a.7.7,0,0,0-.474.2l-2.1,2.1a.7.7,0,0,0,.989.989l.9-.9v6h-1.4a.7.7,0,0,0-.02,1.4h2a.7.7,0,0,0,.226,0h1.287a.7.7,0,0,0,.02-1.4H11.22V28.616a.7.7,0,0,0-.7-.7Zm7.714,0a.7.7,0,0,0-.474.2l-2.1,2.1a.7.7,0,0,0,.977,1l.012-.012.9-.9v6h-1.4a.7.7,0,0,0-.02,1.4h2a.7.7,0,0,0,.227,0h1.287a.7.7,0,0,0,.02-1.4h-.719V28.616a.7.7,0,0,0-.7-.7Zm7.714,0a.7.7,0,0,0-.474.2l-2.1,2.1a.7.7,0,0,0,.977,1l.012-.012.9-.9v6h-1.4a.7.7,0,0,0-.02,1.4h2a.7.7,0,0,0,.227,0h1.287a.7.7,0,0,0,.02-1.4h-.719V28.616a.7.7,0,0,0-.7-.7Zm7.385,0a2.458,2.458,0,0,0-2.448,2.448v4.9a2.448,2.448,0,1,0,4.9,0v-4.9A2.458,2.458,0,0,0,33.312,27.922Zm0,1.4a1.032,1.032,0,0,1,1.049,1.049v4.9a1.049,1.049,0,1,1-2.1,0v-4.9A1.032,1.032,0,0,1,33.312,29.321Z" fill="#fff"/></g></svg>