<svg xmlns="http://www.w3.org/2000/svg" width="42.2" height="42.2" viewBox="0 0 42.2 42.2"><rect width="4" height="1" transform="translate(10.2 35.2)" fill="#fff"/><path d="M21.252,17.293v-.125a5.445,5.445,0,0,0-2.723-4.709v-.736a2.723,2.723,0,0,0-5.445,0v.736a5.445,5.445,0,0,0-2.723,4.709v.125a2.037,2.037,0,0,0,.681,3.959h9.529a2.037,2.037,0,0,0,.681-3.959Zm-6.806-5.57a1.361,1.361,0,0,1,2.723,0V11.9a5.265,5.265,0,0,0-2.723,0Zm1.361,1.361a4.088,4.088,0,0,1,4.084,4.084H11.723a4.088,4.088,0,0,1,4.084-4.084Zm4.765,6.806H11.042a.681.681,0,1,1,0-1.361h9.529a.681.681,0,0,1,0,1.361Z" transform="translate(-3.555 -3.555)" fill="#fff"/><path d="M43,12.77,34.337,4.107a.681.681,0,0,0-.962,0L28.562,8.921a.681.681,0,0,0,0,.962l.481.481-.763.763H25.5V4.4A3.407,3.407,0,0,0,22.1,1H4.4A3.407,3.407,0,0,0,1,4.4V39.8a3.407,3.407,0,0,0,3.4,3.4H22.1a3.407,3.407,0,0,0,3.4-3.4V24.15l1.134,1.134,1.925,1.925a.681.681,0,0,0,.962,0l5.295-5.293a.688.688,0,0,0,.164-.266l.912-2.736.849-.849.481.481a.681.681,0,0,0,.962,0L43,13.733a.681.681,0,0,0,0-.962ZM22.1,41.839H4.4A2.042,2.042,0,0,1,2.361,39.8V4.4A2.042,2.042,0,0,1,4.4,2.361H22.1A2.042,2.042,0,0,1,24.142,4.4v7.011l-1.361,1.361V4.4a.681.681,0,0,0-.681-.681H4.4a.681.681,0,0,0-.681.681V39.8a.681.681,0,0,0,.681.681H22.1a.681.681,0,0,0,.681-.681V22.4l.487-.487.875.875V39.8A2.042,2.042,0,0,1,22.1,41.839ZM16.048,24.322l1.926,1.925a.628.628,0,0,0,.681.161.677.677,0,0,1-.638.457H8.487a.681.681,0,0,1-.681-.681V23.461a.681.681,0,0,1,.681-.681h8.14l-.579.579A.681.681,0,0,0,16.048,24.322Zm1.94-2.9h-9.5a2.042,2.042,0,0,0-2.042,2.042v2.723a2.042,2.042,0,0,0,2.042,2.042h9.529a2.042,2.042,0,0,0,2.042-2.042v-1.06l1.361-1.361V39.116H5.084V5.084H21.419v9.053l-.557.557a.681.681,0,0,0,0,.962L22.3,17.1Zm16.831-3.355a.669.669,0,0,0-.165.266l-.912,2.736-4.7,4.7-.962-.962,2.406-2.406-.962-.963-2.406,2.407-.963-.962,2.407-2.407-.965-.96-2.407,2.407-.962-.963,2.406-2.407-.962-.962L18.455,24.8l-.963-.962,6.257-6.257,1.925-1.925-.962-.962L23.268,16.14l-.964-.962,2.688-2.689h3.569a.681.681,0,0,0,.481-.2L30,11.327,35.781,17.1Zm2.887-.962-7.7-7.7,3.85-3.85,7.7,7.7Z" transform="translate(-1 -1)" fill="#fff"/></svg>