<svg xmlns="http://www.w3.org/2000/svg" width="55" height="30.052" viewBox="0 0 55 30.052"><g transform="translate(0 0)"><path d="M344.428,116.923a2.481,2.481,0,0,0-1.825-.8h-.734a3.668,3.668,0,0,0-3.674,3.365l-.795,9.053a1.534,1.534,0,0,1-1.536,1.407h-6.878a4,4,0,0,0-4,4v.4a2.417,2.417,0,0,0,2.415,2.415h1.474l-1.452,4.741,0,.011-1.11,3.624a.806.806,0,1,0,1.541.472l.936-3.056h11.05l.936,3.056a.806.806,0,1,0,1.541-.472l-2.634-8.6a5.909,5.909,0,0,0,1.328-.557.806.806,0,1,0-.8-1.4,4.312,4.312,0,0,1-2.142.569H327.4a.8.8,0,0,1-.8-.8v-.4a2.388,2.388,0,0,1,2.386-2.386h6.878a3.136,3.136,0,0,0,3.142-2.878l.794-9.054a2.065,2.065,0,0,1,2.068-1.895h.734a.864.864,0,0,1,.861.94l-1.1,12.537a4.332,4.332,0,0,1-.179.909.806.806,0,0,0,1.539.479,5.958,5.958,0,0,0,.246-1.248l1.1-12.537A2.483,2.483,0,0,0,344.428,116.923Zm-13.865,19.832h7.5l1.28,4.18H329.283Z" transform="translate(-290.078 -116.12)" fill="#fff"/><path d="M16.093,129.947H9.215a1.534,1.534,0,0,1-1.536-1.407l-.794-9.053a3.668,3.668,0,0,0-3.674-3.365H2.476A2.475,2.475,0,0,0,.01,118.813l1.1,12.537A5.926,5.926,0,0,0,5.4,136.532l-2.633,8.6A.806.806,0,1,0,4.3,145.6l.936-3.056h11.05l.936,3.056a.806.806,0,1,0,1.541-.472l-1.11-3.624,0-.011L16.2,136.756h1.474a2.417,2.417,0,0,0,2.415-2.415v-.4A4,4,0,0,0,16.093,129.947ZM5.732,140.936l1.28-4.18h7.5l1.28,4.18Zm12.746-6.594a.8.8,0,0,1-.8.8H7.011a4.417,4.417,0,0,1-.509-.03h0a4.285,4.285,0,0,1-3.787-3.9l-1.1-12.537a.864.864,0,0,1,.861-.94H3.21a2.065,2.065,0,0,1,2.068,1.895l.794,9.053h0a3.137,3.137,0,0,0,3.142,2.878h6.878a2.388,2.388,0,0,1,2.386,2.386v.4Z" transform="translate(-0.001 -116.121)" fill="#fff"/><path d="M140.585,188.176a2.9,2.9,0,0,0-2.807-2.171h-.5V171.339H147.2a1.894,1.894,0,0,0,1.855-2.275,3.654,3.654,0,0,0-3.566-2.908h-16.75a.806.806,0,0,0,0,1.611h16.75a2.037,2.037,0,0,1,1.988,1.621.282.282,0,0,1-.276.339H121.735a.282.282,0,0,1-.276-.339,2.037,2.037,0,0,1,1.988-1.621h1.513a.806.806,0,1,0,0-1.611h-1.513a3.654,3.654,0,0,0-3.566,2.908,1.894,1.894,0,0,0,1.855,2.275h9.921v14.667h-.5a2.9,2.9,0,0,0-2.807,2.17l-.189.727a1.542,1.542,0,0,0,1.493,1.931h9.628a1.542,1.542,0,0,0,1.493-1.931Zm-7.318-16.837h2.4v14.667h-2.4Zm-3.525,17.883.167-.64a1.289,1.289,0,0,1,1.248-.965h6.62a1.289,1.289,0,0,1,1.248.965l.167.64Z" transform="translate(-106.968 -160.781)" fill="#fff"/></g></svg>