<svg xmlns="http://www.w3.org/2000/svg" width="45.333" height="46.896" viewBox="0 0 45.333 46.896"><g transform="translate(0 0)"><path d="M3.126,46.9H25.011a3.126,3.126,0,0,0,3.126-3.126V37.447a4.7,4.7,0,0,0,3.838-3.838h5.542a.782.782,0,0,0,.782-.782V30.483a3.126,3.126,0,0,0-2.345-3.015V18.759a8.606,8.606,0,0,0-5.746-8.1,3.11,3.11,0,0,0-2.07-4.293V3.126A3.126,3.126,0,0,0,25.011,0H3.126A3.126,3.126,0,0,0,0,3.126V43.77A3.126,3.126,0,0,0,3.126,46.9Zm21.885-1.563H3.126A1.563,1.563,0,0,1,1.563,43.77V42.554a3.094,3.094,0,0,0,1.563.435H25.011a3.094,3.094,0,0,0,1.563-.435V43.77A1.563,1.563,0,0,1,25.011,45.333Zm2.345-9.379a3.126,3.126,0,0,1-3.015-2.345h6.031A3.126,3.126,0,0,1,27.356,35.954Zm9.379-5.471v1.563H17.977V30.483a1.563,1.563,0,0,1,1.563-1.563H35.172A1.563,1.563,0,0,1,36.736,30.483ZM34.391,18.759v8.6H20.322v-8.6a7.034,7.034,0,0,1,14.069,0ZM28.919,9.379a1.546,1.546,0,0,1-.279.888,7.81,7.81,0,0,0-2.568,0,1.546,1.546,0,0,1-.279-.888,1.563,1.563,0,0,1,3.126,0ZM20.08,1.563l-1,1.069a1.563,1.563,0,0,1-1.14.494H10.2a1.568,1.568,0,0,1-1.14-.494l-1-1.069ZM1.563,3.126A1.563,1.563,0,0,1,3.126,1.563H5.914l2,2.138A3.14,3.14,0,0,0,10.2,4.69h7.738A3.135,3.135,0,0,0,20.219,3.7l2-2.138h2.788a1.563,1.563,0,0,1,1.563,1.563V6.364a3.11,3.11,0,0,0-2.07,4.293,8.606,8.606,0,0,0-5.746,8.1v8.709a3.126,3.126,0,0,0-2.345,3.015v2.345a.782.782,0,0,0,.782.782h5.542a4.7,4.7,0,0,0,3.838,3.838v2.415a1.563,1.563,0,0,1-1.563,1.563H3.126a1.563,1.563,0,0,1-1.563-1.563Z" transform="translate(0 0)" fill="#fff"/><path d="M7.782,29.724a.782.782,0,0,0,.782-.782,9.389,9.389,0,0,1,9.379-9.379.782.782,0,0,0,0-1.563A10.954,10.954,0,0,0,7,28.943.782.782,0,0,0,7.782,29.724Z" transform="translate(-1.529 -3.931)" fill="#fff"/><path d="M18.816,22A7.825,7.825,0,0,0,11,29.816a.782.782,0,1,0,1.563,0,6.26,6.26,0,0,1,6.253-6.253.782.782,0,1,0,0-1.563Z" transform="translate(-2.402 -4.805)" fill="#fff"/><path d="M19.69,26A4.694,4.694,0,0,0,15,30.69a.782.782,0,1,0,1.563,0,3.126,3.126,0,0,1,3.126-3.126.782.782,0,1,0,0-1.563Z" transform="translate(-3.276 -5.678)" fill="#fff"/><path d="M43.782,55.161a.782.782,0,0,0,0,1.563A10.954,10.954,0,0,0,54.724,45.782a.782.782,0,1,0-1.563,0A9.389,9.389,0,0,1,43.782,55.161Z" transform="translate(-9.391 -9.828)" fill="#fff"/><path d="M43.782,52.034a.782.782,0,1,0,0,1.563A7.825,7.825,0,0,0,51.6,45.782a.782.782,0,1,0-1.563,0A6.26,6.26,0,0,1,43.782,52.034Z" transform="translate(-9.391 -9.828)" fill="#fff"/><path d="M46.908,45.782a3.126,3.126,0,0,1-3.126,3.126.782.782,0,1,0,0,1.563,4.694,4.694,0,0,0,4.69-4.69.782.782,0,1,0-1.563,0Z" transform="translate(-9.391 -9.828)" fill="#fff"/></g></svg>