<svg xmlns="http://www.w3.org/2000/svg" viewBox="0 0 306 335" width="306" height="335">
	<defs>
		<linearGradient id="grd1" gradientUnits="userSpaceOnUse"  x1="53.444" y1="103.629" x2="50.284" y2="61.143">
			<stop offset="0" stop-color="#fe7062"  />
			<stop offset="1" stop-color="#ff928e"  />
		</linearGradient>
		<linearGradient id="grd2" gradientUnits="userSpaceOnUse"  x1="16.299" y1="107.799" x2="14.233" y2="80.017">
			<stop offset="0" stop-color="#fe7062"  />
			<stop offset="1" stop-color="#ff928e"  />
		</linearGradient>
		<linearGradient id="grd3" gradientUnits="userSpaceOnUse"  x1="48.285" y1="143.74" x2="45.626" y2="107.99">
			<stop offset="0" stop-color="#fe7062"  />
			<stop offset="1" stop-color="#ff928e"  />
		</linearGradient>
	</defs>
	<style>
		tspan { white-space:pre }
		.shp0 { fill: #f37018 } 
		.shp1 { fill: #f6b968 } 
		.shp2 { fill: #eeaa59 } 
		.shp3 { fill: #ffcc90 } 
		.shp4 { fill: #ffe0bc } 
		.shp5 { fill: #b0b0b0 } 
		.shp6 { fill: #efecef } 
		.shp7 { fill: #ff6600 } 
		.shp8 { fill: #333333 } 
		.shp9 { fill: #000000 } 
		.shp10 { fill: url(#grd1) } 
		.shp11 { fill: #ff7d26 } 
		.shp12 { opacity: 0.78;fill: #ffffff } 
		.shp13 { fill: #dcdcdc } 
		.shp14 { fill: #4f4f4f } 
		.shp15 { fill: url(#grd2) } 
		.shp16 { fill: url(#grd3) } 
		.shp17 { fill: #ffffff } 
	</style>
	<g id="Ordergo - Landing">
		<g id="Group 9111">
			<g id="Group 2460">
				<path id="Ellipse 15" class="shp0" d="M163.39 321.76C84.92 321.76 21.49 258.33 21.49 179.86C21.49 101.39 84.92 37.96 163.39 37.96C241.86 37.96 305.29 101.39 305.29 179.86C305.29 258.33 241.86 321.76 163.39 321.76Z" />
				<g id="Group 9129">
					<g id="Group 9128">
						<g id="Group 9114">
							<path id="Path 2828" class="shp1" d="M127.81 162.76C130.61 162.49 133.16 165.04 133.5 168.47L133.5 168.47C133.84 171.9 131.85 174.9 129.04 175.18L84.59 179.58C81.79 179.86 79.25 177.3 78.91 173.88L78.91 173.88C78.57 170.45 80.56 167.45 83.36 167.17L127.81 162.76Z" />
							<path id="Path 2829" class="shp2" d="M127.96 162.95L81.61 162.93C80.11 163.07 78.34 168.44 77.54 169.8L128.68 165.62C129.3 165.56 131.58 164.81 132.17 164.94C131.09 163.59 129.58 162.79 127.96 162.95Z" />
							<path id="Path 2830" class="shp1" d="M134.82 151.03C137.63 150.87 140.07 153.52 140.27 156.96L140.27 156.96C140.48 160.4 138.36 163.32 135.55 163.48L90.29 166.35C87.48 166.52 85.71 163.61 85.5 160.17L85.5 160.17C85.31 156.73 87.42 153.81 90.23 153.64L134.82 151.03Z" />
							<path id="Path 2831" class="shp2" d="M134.63 151.05L88.93 153.55C87.43 153.7 87.42 156.54 86.62 157.9L137.04 152.91C137.66 152.84 138.25 152.91 138.83 153.04C137.77 151.69 136.25 150.89 134.63 151.05Z" />
							<path id="Path 2832" class="shp1" d="M135.86 138.48C138.67 138.31 141.11 140.97 141.31 144.41L141.31 144.41C141.51 147.84 139.4 150.77 136.59 150.93L92 153.54C89.18 153.71 86.74 151.05 86.54 147.61L86.54 147.61C86.35 144.18 88.46 141.26 91.27 141.09L135.86 138.48Z" />
							<path id="Path 2833" class="shp3" d="M64.88 180.52C66.11 177.04 88.1 136.26 93.98 135.13C98.98 134.16 130.03 134.53 138.57 134.79C138.83 134.79 139.63 134.79 139.63 134.79C143.02 134.79 145.77 137.9 145.77 141.74C145.77 145.58 143.02 148.69 139.63 148.69L103.97 148.69C102.8 149.1 101.99 149.48 101.68 149.85C99.65 152.22 90.35 172.05 89.72 181.56L76 188.08L64.79 180.94C64.82 180.76 64.85 180.6 64.88 180.52Z" />
							<g id="Group 9113">
								<path id="Path 2834" class="shp4" d="M92.64 136.33C92.85 136.2 93.14 136.27 93.28 136.48L94.98 138.96C95.12 139.17 95.07 139.45 94.86 139.58L94.86 139.58C94.65 139.72 94.36 139.65 94.21 139.44L92.52 136.96C92.37 136.75 92.43 136.47 92.64 136.33L92.64 136.33Z" />
								<path id="Path 2835" class="shp4" d="M94.23 135.33C94.44 135.2 94.73 135.26 94.88 135.48L96.57 137.95C96.71 138.17 96.66 138.45 96.45 138.58L96.45 138.58C96.24 138.71 95.95 138.65 95.8 138.43L94.11 135.96C93.96 135.74 94.02 135.46 94.23 135.33L94.23 135.33Z" />
							</g>
						</g>
						<g id="Group 9115">
							<path id="Path 2836" class="shp5" d="M99.58 214.95C95.36 214.95 91.95 211.26 91.95 206.7L91.95 8.57C91.95 4 95.36 0.3 99.58 0.3L230.81 0.3C235.03 0.3 238.44 4 238.44 8.57L238.44 206.7C238.44 211.26 235.03 214.95 230.81 214.95L99.58 214.95Z" />
							<path id="Path 2867" class="shp6" d="M105.16 13.49L225.23 13.49L225.23 190.6L105.16 190.6L105.16 13.49Z" />
							<g id="Vector Smart Object3">
								<path id="Path 2529" fill-rule="evenodd" class="shp7" d="M114.98 104.15C114.94 102.53 115.27 100.93 115.94 99.45C116.52 98.17 117.46 97.08 118.66 96.34C121.14 94.89 124.21 94.89 126.69 96.34C127.88 97.08 128.82 98.17 129.4 99.45C130.07 100.92 130.4 102.52 130.36 104.14L130.36 104.94C130.4 106.55 130.08 108.15 129.42 109.62C128.85 110.9 127.91 111.98 126.72 112.73C124.24 114.18 121.17 114.18 118.69 112.74C117.49 112 116.55 110.93 115.96 109.65C115.29 108.21 114.95 106.63 114.98 105.04L114.98 104.15ZM119.77 109.24C120.43 110.18 121.5 110.75 122.66 110.76C123.81 110.77 124.9 110.23 125.58 109.29C126.25 108.31 126.58 106.88 126.59 105L126.59 104.12C126.59 102.23 126.25 100.79 125.58 99.81C124.9 98.88 123.83 98.33 122.68 98.33C121.54 98.32 120.46 98.87 119.78 99.79C119.1 100.76 118.76 102.18 118.75 104.06L118.75 104.94C118.75 106.79 119.09 108.22 119.77 109.24L119.77 109.24Z" />
								<path id="Path 2530" class="shp7" d="M136.22 100.14L136.32 101.74C137.04 100.51 138.04 99.89 139.31 99.89C139.69 99.89 140.07 99.94 140.43 100.05L140.38 103.5C139.95 103.44 139.52 103.41 139.09 103.4C137.73 103.4 136.84 103.86 136.42 104.78L136.42 113.57L132.83 113.57L132.83 100.14L136.22 100.14Z" />
								<path id="Path 2531" fill-rule="evenodd" class="shp7" d="M142.96 101.75C143.9 100.51 145.18 99.89 146.81 99.89C148.05 99.86 149.25 100.4 150.05 101.36L150.05 94.51L153.65 94.51L153.65 113.57L150.41 113.57L150.23 112.14C149.42 113.22 148.14 113.84 146.78 113.82C145.29 113.86 143.86 113.16 142.98 111.95C142.03 110.7 141.55 108.97 141.55 106.75C141.55 104.66 142.02 102.99 142.96 101.75ZM145.79 109.91C146.2 110.56 146.93 110.95 147.7 110.91C148.81 110.91 149.59 110.44 150.05 109.51L150.05 104.21C149.6 103.28 148.83 102.81 147.73 102.81C146 102.81 145.13 104.21 145.13 107.02C145.13 108.27 145.35 109.24 145.79 109.91L145.79 109.91Z" />
								<path id="Path 2532" fill-rule="evenodd" class="shp7" d="M155.94 107.18L155.94 106.83C155.92 105.58 156.19 104.34 156.72 103.21C157.21 102.19 157.98 101.34 158.94 100.75C159.93 100.17 161.06 99.87 162.21 99.89C164.05 99.89 165.49 100.47 166.55 101.63C167.6 102.79 168.13 104.43 168.13 106.56L168.13 108.02L159.58 108.02C159.66 108.83 160.03 109.58 160.63 110.13C161.24 110.67 162.03 110.95 162.84 110.92C164.22 110.92 165.3 110.42 166.08 109.42L167.84 111.39C167.29 112.17 166.53 112.79 165.66 113.18C164.7 113.61 163.66 113.83 162.61 113.81C160.64 113.81 159.03 113.21 157.8 112C156.56 110.79 155.94 109.19 155.94 107.18ZM159.62 105.58L164.61 105.58L164.61 105.29C164.59 104.5 164.37 103.88 163.96 103.45C163.55 103.01 162.96 102.8 162.2 102.8C161.54 102.77 160.91 103.04 160.47 103.52C160.02 104 159.74 104.68 159.62 105.58Z" />
								<path id="Path 2533" class="shp7" d="M173.55 100.14L173.65 101.74C174.37 100.51 175.37 99.89 176.64 99.89C177.02 99.89 177.4 99.94 177.76 100.05L177.71 103.5C177.28 103.44 176.85 103.41 176.42 103.4C175.06 103.4 174.17 103.86 173.75 104.78L173.75 113.57L170.17 113.57L170.17 100.14L173.55 100.14Z" />
								<path id="Path 2534" class="shp8" d="M179.23 105.24L179.23 104.01C179.19 102.4 179.5 100.8 180.14 99.33C180.69 98.07 181.6 97.02 182.77 96.3C183.99 95.58 185.38 95.22 186.8 95.25C188.94 95.25 190.61 95.76 191.82 96.78C193.03 97.8 193.75 99.29 193.97 101.25L190.34 101.25C190.18 100.21 189.81 99.45 189.25 98.97C188.68 98.49 187.9 98.25 186.91 98.25C185.64 98.25 184.68 98.73 184.01 99.68C183.35 100.63 183.02 102.05 183.01 103.93L183.01 105.08C183.01 106.98 183.37 108.41 184.09 109.37C184.81 110.34 185.86 110.83 187.25 110.83C188.65 110.83 189.65 110.53 190.25 109.93L190.25 106.82L186.86 106.82L186.86 104.07L193.97 104.07L193.97 111.28C193.2 112.15 192.22 112.79 191.13 113.15C189.82 113.61 188.44 113.83 187.06 113.82C185.62 113.85 184.2 113.49 182.94 112.79C181.75 112.1 180.8 111.06 180.21 109.82C179.54 108.39 179.2 106.82 179.23 105.24Z" />
								<path id="Path 2535" fill-rule="evenodd" class="shp8" d="M196.44 104.15C196.4 102.53 196.73 100.93 197.4 99.45C197.98 98.17 198.93 97.08 200.12 96.34C202.6 94.89 205.67 94.89 208.15 96.34C209.34 97.08 210.29 98.17 210.87 99.45C211.53 100.92 211.86 102.52 211.83 104.14L211.83 104.94C211.86 106.55 211.54 108.15 210.88 109.62C210.31 110.9 209.37 111.98 208.18 112.73C205.7 114.18 202.63 114.18 200.15 112.74C198.96 112 198.01 110.93 197.42 109.65C196.75 108.21 196.41 106.63 196.44 105.04L196.44 104.15ZM201.23 109.24C201.89 110.18 202.96 110.75 204.12 110.76C205.27 110.77 206.36 110.23 207.04 109.29C207.71 108.31 208.05 106.88 208.05 105L208.05 104.12C208.05 102.23 207.71 100.79 207.04 99.81C206.36 98.88 205.29 98.33 204.14 98.33C203 98.33 201.92 98.87 201.24 99.79C200.56 100.76 200.22 102.18 200.21 104.06L200.21 104.94C200.21 106.79 200.55 108.22 201.23 109.24Z" />
								<path id="Path 2536" fill-rule="evenodd" class="shp9" d="M129.56 118.51C129.57 118.76 129.52 119.01 129.42 119.24C129.33 119.44 129.19 119.61 129.01 119.72C128.82 119.84 128.61 119.9 128.39 119.89C128.06 119.9 127.75 119.76 127.54 119.51C127.31 119.23 127.19 118.86 127.21 118.5L127.21 118.19C127.21 117.94 127.26 117.69 127.36 117.46C127.53 117.05 127.94 116.79 128.39 116.8C128.6 116.79 128.82 116.85 129 116.97C129.18 117.08 129.32 117.25 129.41 117.44C129.51 117.66 129.56 117.9 129.56 118.15L129.56 118.51ZM129.31 118.18C129.33 117.88 129.24 117.58 129.06 117.33C128.89 117.14 128.65 117.02 128.39 117.02C128.13 117.02 127.89 117.14 127.72 117.33C127.54 117.58 127.45 117.89 127.47 118.2L127.47 118.51C127.45 118.81 127.54 119.11 127.72 119.36C127.89 119.56 128.13 119.67 128.39 119.67C128.65 119.67 128.9 119.56 129.07 119.36C129.24 119.11 129.33 118.81 129.31 118.5L129.31 118.18Z" />
								<path id="Path 2537" fill-rule="evenodd" class="shp9" d="M133.02 118.6L132.15 118.6L132.15 119.85L131.89 119.85L131.89 116.84L132.87 116.84C133.14 116.83 133.41 116.91 133.62 117.08C133.94 117.38 133.99 117.88 133.72 118.24C133.61 118.39 133.45 118.49 133.27 118.54L134.02 119.83L134.02 119.85L133.75 119.85L133.02 118.6ZM132.15 118.38L132.93 118.38C133.12 118.39 133.3 118.33 133.44 118.2C133.71 117.93 133.7 117.5 133.43 117.23C133.27 117.11 133.07 117.04 132.87 117.06L132.15 117.06L132.15 118.38Z" />
								<path id="Path 2538" fill-rule="evenodd" class="shp9" d="M136.28 119.85L136.28 116.84L137.12 116.84C137.36 116.84 137.58 116.9 137.79 117.01C137.98 117.12 138.14 117.29 138.25 117.49C138.36 117.71 138.41 117.96 138.41 118.21L138.41 118.49C138.41 118.73 138.36 118.98 138.25 119.2C138.14 119.4 137.98 119.57 137.79 119.68C137.58 119.8 137.34 119.86 137.1 119.85L136.28 119.85ZM136.54 117.06L136.54 119.64L137.11 119.64C137.4 119.65 137.67 119.53 137.87 119.32C138.07 119.08 138.17 118.78 138.16 118.47L138.16 118.2C138.17 117.9 138.07 117.6 137.87 117.37C137.68 117.16 137.41 117.05 137.13 117.06L136.54 117.06Z" />
								<path id="Path 2539" class="shp9" d="M142.41 118.41L141 118.41L141 119.64L142.62 119.64L142.62 119.85L140.75 119.85L140.75 116.84L142.61 116.84L142.61 117.06L141 117.06L141 118.19L142.41 118.19L142.41 118.41Z" />
								<path id="Path 2540" fill-rule="evenodd" class="shp9" d="M145.98 118.6L145.1 118.6L145.1 119.85L144.85 119.85L144.85 116.84L145.83 116.84C146.1 116.83 146.37 116.91 146.58 117.08C146.9 117.38 146.94 117.88 146.68 118.24C146.57 118.39 146.41 118.49 146.23 118.54L146.98 119.83L146.98 119.85L146.71 119.85L145.98 118.6ZM145.1 118.38L145.88 118.38C146.07 118.39 146.26 118.33 146.4 118.2C146.66 117.93 146.66 117.5 146.39 117.23C146.23 117.11 146.03 117.04 145.82 117.06L145.1 117.06L145.1 118.38Z" />
								<path id="Path 2541" class="shp9" d="M149.55 119.85L149.29 119.85L149.29 116.84L149.55 116.84L149.55 119.85Z" />
								<path id="Path 2542" class="shp9" d="M154.3 119.85L154.05 119.85L152.32 117.28L152.32 119.85L152.06 119.85L152.06 116.84L152.32 116.84L154.05 119.42L154.05 116.84L154.3 116.84L154.3 119.85Z" />
								<path id="Path 2543" class="shp9" d="M158.93 119.49C158.83 119.63 158.68 119.74 158.52 119.79C158.32 119.86 158.1 119.9 157.89 119.89C157.67 119.9 157.45 119.84 157.26 119.73C157.07 119.61 156.93 119.44 156.83 119.25C156.73 119.02 156.68 118.78 156.68 118.53L156.68 118.15C156.66 117.8 156.77 117.44 157 117.16C157.21 116.92 157.52 116.79 157.85 116.8C158.12 116.79 158.38 116.87 158.59 117.04C158.79 117.2 158.91 117.44 158.93 117.69L158.68 117.69C158.65 117.5 158.56 117.32 158.41 117.19C158.25 117.07 158.05 117.01 157.85 117.02C157.59 117.01 157.34 117.12 157.18 117.32C157 117.56 156.91 117.86 156.93 118.16L156.93 118.52C156.93 118.73 156.97 118.94 157.05 119.13C157.12 119.29 157.24 119.44 157.39 119.54C157.53 119.63 157.71 119.68 157.89 119.68C158.08 119.69 158.27 119.65 158.45 119.58C158.54 119.54 158.62 119.49 158.68 119.42L158.68 118.64L157.87 118.64L157.87 118.43L158.93 118.43L158.93 119.49Z" />
								<path id="Path 2544" class="shp9" d="M164.41 116.84L165.52 119.5L166.64 116.84L166.98 116.84L166.98 119.85L166.72 119.85L166.72 118.54L166.74 117.2L165.62 119.85L165.42 119.85L164.31 117.21L164.33 118.53L164.33 119.85L164.08 119.85L164.08 116.84L164.41 116.84Z" />
								<path id="Path 2545" fill-rule="evenodd" class="shp9" d="M171.06 119.01L169.69 119.01L169.38 119.85L169.12 119.85L170.26 116.84L170.5 116.84L171.64 119.85L171.37 119.85L171.06 119.01ZM169.77 118.79L170.98 118.79L170.38 117.15L169.77 118.79Z" />
								<path id="Path 2546" fill-rule="evenodd" class="shp9" d="M173.78 119.85L173.78 116.84L174.62 116.84C174.85 116.84 175.08 116.9 175.28 117.01C175.48 117.12 175.64 117.29 175.74 117.49C175.85 117.71 175.91 117.96 175.9 118.21L175.9 118.49C175.91 118.73 175.85 118.98 175.74 119.2C175.64 119.4 175.48 119.57 175.28 119.68C175.07 119.8 174.84 119.86 174.6 119.85L173.78 119.85ZM174.03 117.06L174.03 119.64L174.6 119.64C174.89 119.65 175.17 119.53 175.36 119.32C175.56 119.08 175.67 118.78 175.65 118.47L175.65 118.2C175.67 117.9 175.56 117.6 175.37 117.37C175.18 117.16 174.9 117.05 174.62 117.06L174.03 117.06Z" />
								<path id="Path 2547" class="shp9" d="M179.91 118.41L178.5 118.41L178.5 119.64L180.12 119.64L180.12 119.85L178.24 119.85L178.24 116.84L180.11 116.84L180.11 117.06L178.5 117.06L178.5 118.19L179.91 118.19L179.91 118.41Z" />
								<path id="Path 2548" class="shp9" d="M186.73 118.41L185.33 118.41L185.33 119.64L186.95 119.64L186.95 119.85L185.07 119.85L185.07 116.84L186.94 116.84L186.94 117.06L185.33 117.06L185.33 118.19L186.73 118.19L186.73 118.41Z" />
								<path id="Path 2549" fill-rule="evenodd" class="shp9" d="M190.8 119.01L189.43 119.01L189.12 119.85L188.86 119.85L190 116.84L190.24 116.84L191.38 119.85L191.11 119.85L190.8 119.01ZM189.51 118.79L190.72 118.79L190.12 117.15L189.51 118.79Z" />
								<path id="Path 2550" class="shp9" d="M195.22 119.11C195.23 118.96 195.16 118.81 195.04 118.72C194.85 118.58 194.63 118.49 194.4 118.44C194.16 118.38 193.93 118.29 193.72 118.15C193.53 118.03 193.42 117.82 193.41 117.59C193.41 117.36 193.51 117.15 193.7 117.02C193.91 116.87 194.16 116.79 194.42 116.8C194.61 116.8 194.79 116.84 194.96 116.92C195.11 116.99 195.24 117.1 195.33 117.24C195.41 117.38 195.46 117.54 195.46 117.7L195.2 117.7C195.21 117.51 195.13 117.33 194.99 117.2C194.83 117.07 194.63 117 194.42 117.01C194.23 117 194.04 117.06 193.87 117.17C193.74 117.26 193.67 117.41 193.67 117.57C193.67 117.72 193.73 117.86 193.85 117.95C194.03 118.07 194.23 118.16 194.44 118.2C194.66 118.25 194.86 118.33 195.06 118.43C195.18 118.5 195.29 118.6 195.37 118.72C195.44 118.83 195.48 118.97 195.48 119.11C195.48 119.33 195.38 119.55 195.19 119.68C194.97 119.83 194.71 119.91 194.44 119.89C194.24 119.9 194.04 119.86 193.86 119.78C193.69 119.72 193.55 119.6 193.45 119.46C193.36 119.32 193.31 119.16 193.32 118.99L193.57 118.99C193.56 119.19 193.65 119.38 193.81 119.49C193.99 119.62 194.22 119.69 194.44 119.68C194.64 119.69 194.84 119.63 195.01 119.52C195.14 119.43 195.22 119.28 195.22 119.11Z" />
								<path id="Path 2551" class="shp9" d="M198.6 118.48L199.52 116.84L199.82 116.84L198.73 118.72L198.73 119.85L198.47 119.85L198.47 118.72L197.39 116.84L197.69 116.84L198.6 118.48Z" />
								<path id="Path 2552" class="shp8" d="M190.11 80.35C189.58 75.77 185.59 72.27 180.98 72.26C179.08 72.25 177.17 72.25 175.27 72.26C173.05 72.26 171.51 73.9 171.67 76.12C171.77 77.7 173.23 79.18 174.76 79.21C176.02 79.24 177.27 79.21 178.52 79.22C178.58 79.22 178.63 79.22 178.69 79.21L178.72 76.62C178.72 76.4 178.85 76.19 179.06 76.1C179.26 76.01 179.5 76.04 179.67 76.19L185.39 81.12C185.51 81.23 185.59 81.4 185.59 81.57C185.58 81.74 185.51 81.9 185.37 82.01L179.58 86.77C179.4 86.91 179.16 86.94 178.96 86.84C178.76 86.75 178.63 86.54 178.63 86.32L178.63 83.79C178.58 83.78 176.07 83.77 174.88 83.78C173.8 83.78 172.73 83.53 171.76 83.05C168.95 81.75 167.15 78.95 167.13 75.85L160.93 73.15C160.76 74.23 160.69 75.32 160.74 76.41C160.88 79.91 161.67 83.3 163.99 85.84C167.01 89.18 170.84 90.76 175.31 90.82C177.19 90.85 179.06 90.85 180.93 90.82C183.46 90.78 185.69 89.91 187.48 88.09C189.59 85.95 190.46 83.32 190.11 80.35Z" />
								<path id="Path 2553" class="shp7" d="M167.51 73.32C168.55 70.06 171.57 67.83 174.99 67.79C178.25 67.78 181.5 67.79 184.75 67.79C185.11 67.79 185.48 67.75 185.84 67.71C187.77 67.54 188.93 65.89 188.87 64.13C188.81 62.12 187.34 60.74 185.38 60.74C183.55 60.74 181.73 60.74 179.9 60.74C177.73 60.74 175.55 60.66 173.39 60.86C169.26 61.24 165.9 63.2 163.33 66.45C161.76 68.39 160.73 70.7 160.32 73.16L167.13 75.85C167.12 74.99 167.25 74.14 167.51 73.32L167.51 73.32Z" />
								<path id="Path 2554" class="shp8" d="M152.2 67.5C155.86 67.5 159.09 69.89 160.16 73.39L163.56 66.11C160.58 62.61 156.15 60.68 151.55 60.88C146.96 61.08 142.71 63.38 140.04 67.13L144.87 71.9C146.31 69.19 149.13 67.5 152.2 67.5Z" />
								<path id="Path 2555" class="shp7" d="M163.56 66.11C162.78 67.21 162.07 68.37 161.44 69.57C160.66 71.13 160.16 73.39 160.16 73.39C161.26 76.99 159.8 80.88 156.61 82.87C153.41 84.87 149.28 84.46 146.53 81.89C143.77 79.32 143.09 75.22 144.87 71.9L140.04 67.13C135.51 73.47 136.61 82.22 142.56 87.25C148.51 92.27 157.32 91.89 162.81 86.36C168.3 80.84 168.63 72.02 163.56 66.11Z" />
							</g>
							<g id="Group 9130">
								<g id="Group 8812">
									<path id="Ellipse 48" class="shp10" d="M64.88 74.94C56.77 83.05 43.67 83.05 35.56 74.94C27.45 66.84 27.45 53.73 35.56 45.63C43.67 37.52 56.77 37.52 64.88 45.63C72.99 53.73 72.99 66.84 64.88 74.94Z" />
									<path id="Ellipse 49" class="shp11" d="M64.39 74.46C56.55 82.29 43.89 82.29 36.05 74.46C28.21 66.62 28.21 53.95 36.05 46.11C43.89 38.28 56.55 38.28 64.39 46.11C72.23 53.95 72.23 66.62 64.39 74.46Z" />
									<path id="Path 2631" class="shp12" d="M33.69 52.41C33.63 52.41 33.56 52.39 33.49 52.36C33.27 52.25 33.18 51.98 33.29 51.76C36.54 45.33 43.02 41.34 50.22 41.34C51.37 41.34 52.52 41.44 53.64 41.64C53.88 41.69 54.04 41.92 54 42.16C53.95 42.41 53.72 42.57 53.48 42.52C52.41 42.33 51.31 42.23 50.22 42.23C43.36 42.23 37.18 46.04 34.09 52.16C34.01 52.32 33.86 52.41 33.69 52.41Z" />
									<path id="Ellipse 50" class="shp13" d="M50.66 77.69C41.28 77.69 33.69 70.1 33.69 60.72C33.69 51.34 41.28 43.76 50.66 43.76C60.04 43.76 67.62 51.34 67.62 60.72C67.62 70.1 60.04 77.69 50.66 77.69Z" />
									<g id="Group 8811">
										<path id="Path 2632" class="shp14" d="M48.99 73.33L48.99 71.49C47.07 71.41 45.17 70.96 43.81 70.36C43.33 70.15 43.08 69.61 43.22 69.1L43.69 67.38C43.86 66.75 44.55 66.43 45.15 66.68C46.49 67.24 48.15 67.69 49.93 67.69C51.79 67.69 53.17 67.06 53.17 65.77C53.17 64.61 52.1 63.92 49.53 63.23C45.85 62.22 43.21 60.62 43.21 57.38C43.21 54.46 45.35 52.23 49.05 51.64L49.05 49.79C49.05 49.2 49.54 48.72 50.13 48.72L51.21 48.72C51.81 48.72 52.29 49.2 52.29 49.79L52.29 51.45C54.07 51.52 55.37 51.82 56.39 52.19C56.92 52.37 57.21 52.94 57.06 53.48L56.63 55.07C56.47 55.68 55.81 56.02 55.22 55.79C54.27 55.43 52.93 55.06 51.19 55.06C48.99 55.06 48.36 55.97 48.36 56.79C48.36 57.79 49.68 58.48 52.54 59.36C56.62 60.59 58.32 62.28 58.32 65.33C58.32 68.13 56.25 70.64 52.23 71.27L52.23 73.33C52.23 73.93 51.75 74.41 51.15 74.41L50.07 74.41C49.47 74.41 48.99 73.93 48.99 73.33Z" />
									</g>
								</g>
								<g id="Group 8833">
									<path id="Ellipse 48" class="shp15" d="M23.78 89.04C18.48 94.34 9.91 94.34 4.61 89.04C-0.7 83.74 -0.7 75.17 4.61 69.87C9.91 64.57 18.48 64.57 23.78 69.87C29.08 75.17 29.08 83.74 23.78 89.04Z" />
									<path id="Ellipse 49" class="shp11" d="M23.46 88.72C18.33 93.85 10.05 93.85 4.92 88.72C-0.2 83.6 -0.2 75.31 4.92 70.19C10.05 65.06 18.33 65.06 23.46 70.19C28.58 75.31 28.58 83.6 23.46 88.72Z" />
									<path id="Path 2631" class="shp12" d="M3.38 74.3C3.34 74.3 3.3 74.29 3.25 74.27C3.11 74.2 3.05 74.03 3.12 73.88C5.25 69.68 9.49 67.07 14.19 67.07C14.94 67.07 15.69 67.13 16.43 67.27C16.59 67.3 16.69 67.45 16.66 67.61C16.63 67.77 16.48 67.87 16.32 67.84C15.62 67.72 14.91 67.65 14.19 67.65C9.71 67.65 5.67 70.14 3.65 74.14C3.59 74.25 3.49 74.3 3.38 74.3Z" />
									<path id="Ellipse 50" class="shp13" d="M14.48 90.83C8.34 90.83 3.38 85.88 3.38 79.74C3.38 73.61 8.34 68.65 14.48 68.65C20.61 68.65 25.57 73.61 25.57 79.74C25.57 85.88 20.61 90.83 14.48 90.83Z" />
									<g id="Group 8811">
										<path id="Path 2632" class="shp14" d="M13.39 87.99L13.39 86.78C12.13 86.73 10.89 86.43 10 86.05C9.69 85.91 9.53 85.55 9.62 85.22L9.92 84.1C10.04 83.69 10.48 83.47 10.88 83.64C11.75 84.01 12.84 84.3 14 84.3C15.22 84.3 16.12 83.89 16.12 83.04C16.12 82.28 15.42 81.83 13.74 81.38C11.33 80.72 9.61 79.67 9.61 77.56C9.61 75.65 11.01 74.19 13.43 73.8L13.43 72.59C13.43 72.21 13.74 71.89 14.13 71.89L14.84 71.89C15.23 71.89 15.54 72.21 15.54 72.59L15.54 73.68C16.71 73.73 17.56 73.92 18.23 74.16C18.57 74.28 18.76 74.65 18.67 75L18.38 76.04C18.28 76.45 17.85 76.67 17.46 76.52C16.84 76.28 15.96 76.04 14.83 76.04C13.39 76.04 12.98 76.64 12.98 77.17C12.98 77.83 13.84 78.28 15.71 78.85C18.38 79.65 19.49 80.76 19.49 82.76C19.49 84.58 18.13 86.23 15.5 86.64L15.5 87.99C15.5 88.38 15.19 88.69 14.8 88.69L14.09 88.69C13.7 88.69 13.39 88.38 13.39 87.99Z" />
									</g>
								</g>
								<g id="Group 8834">
									<path id="Ellipse 48" class="shp16" d="M57.91 119.6C51.09 126.42 40.06 126.42 33.24 119.6C26.42 112.78 26.42 101.75 33.24 94.93C40.06 88.11 51.09 88.11 57.91 94.93C64.73 101.75 64.73 112.78 57.91 119.6Z" />
									<path id="Ellipse 49" class="shp11" d="M57.5 119.19C50.9 125.79 40.24 125.79 33.65 119.19C27.05 112.6 27.05 101.94 33.65 95.34C40.24 88.75 50.9 88.75 57.5 95.34C64.09 101.94 64.09 112.6 57.5 119.19Z" />
									<path id="Path 2631" class="shp12" d="M31.67 100.64C31.61 100.64 31.55 100.63 31.5 100.6C31.31 100.5 31.24 100.28 31.33 100.09C34.06 94.68 39.52 91.32 45.57 91.32C46.54 91.32 47.51 91.41 48.45 91.58C48.65 91.62 48.79 91.81 48.75 92.02C48.71 92.22 48.52 92.36 48.31 92.32C47.42 92.16 46.49 92.08 45.57 92.08C39.8 92.08 34.6 95.28 32 100.43C31.94 100.56 31.8 100.64 31.67 100.64Z" />
									<path id="Ellipse 50" class="shp13" d="M45.94 121.91C38.05 121.91 31.67 115.53 31.67 107.63C31.67 99.74 38.05 93.36 45.94 93.36C53.83 93.36 60.21 99.74 60.21 107.63C60.21 115.53 53.83 121.91 45.94 121.91Z" />
									<g id="Group 8811">
										<path id="Path 2632" class="shp14" d="M44.54 118.25L44.54 116.69C42.92 116.63 41.32 116.25 40.18 115.75C39.78 115.57 39.57 115.12 39.68 114.69L40.08 113.24C40.22 112.71 40.8 112.44 41.31 112.65C42.44 113.12 43.83 113.5 45.33 113.5C46.89 113.5 48.05 112.97 48.05 111.88C48.05 110.91 47.16 110.32 44.99 109.74C41.9 108.9 39.68 107.55 39.68 104.83C39.68 102.37 41.47 100.49 44.59 99.99L44.59 98.44C44.59 97.94 45 97.53 45.5 97.53L46.41 97.53C46.91 97.53 47.31 97.94 47.31 98.44L47.31 99.83C48.81 99.89 49.9 100.15 50.77 100.45C51.21 100.61 51.45 101.09 51.33 101.54L50.97 102.88C50.83 103.39 50.28 103.68 49.78 103.49C48.98 103.18 47.85 102.87 46.39 102.87C44.54 102.87 44.01 103.64 44.01 104.32C44.01 105.17 45.12 105.75 47.53 106.49C50.96 107.52 52.39 108.95 52.39 111.51C52.39 113.87 50.64 115.98 47.26 116.51L47.26 118.25C47.26 118.75 46.86 119.15 46.36 119.15L45.44 119.15C44.94 119.15 44.54 118.75 44.54 118.25Z" />
									</g>
								</g>
							</g>
						</g>
						<path id="Path 2837" class="shp3" d="M64.79 180.94L89.72 181.56C89.59 183.52 89.82 185.06 90.57 185.9C96.34 192.26 101.06 191.57 108.43 186.99C112.73 184.31 116.98 180.68 125.08 176.35C142.97 166.78 143.65 173.29 145.77 176.63C149.59 182.63 127.36 192.62 121.23 200.89C112.97 212.08 102.7 226.92 102.7 226.92L102.7 262.74L64.88 262.74C64.88 262.74 63.72 188.02 64.79 180.94Z" />
						<path id="Path 2838" class="shp4" d="M142.32 180.95C142.32 180.95 141.52 179.17 140.05 177.25L140.05 177.25C140.05 177.25 140.04 177.25 140.04 177.24C140.03 177.24 140.03 177.22 140.03 177.22L140.03 177.22C138.56 175.3 137.04 174.08 137.04 174.08C134.74 175.83 131.27 178.42 130.95 180.76C130.81 181.81 131.26 182.78 131.84 183.49L131.84 183.5C131.84 183.51 131.85 183.51 131.85 183.52C131.86 183.52 131.86 183.52 131.86 183.53L131.87 183.53C132.41 184.28 133.23 184.97 134.28 185.1C136.62 185.4 140.02 182.71 142.32 180.95Z" />
						<g id="Group 9116">
							<path id="Path 2839" class="shp4" d="M117.7 187.74C117.92 187.61 118.32 187.85 118.6 188.28L121.87 193.33C122.15 193.77 122.21 194.23 122 194.37L122 194.37C121.79 194.51 121.4 194.26 121.11 193.82L117.84 188.78C117.56 188.34 117.5 187.88 117.7 187.74L117.7 187.74Z" />
							<path id="Path 2840" class="shp4" d="M119.28 186.72C119.5 186.59 119.89 186.83 120.18 187.26L123.45 192.31C123.73 192.75 123.79 193.22 123.58 193.35L123.58 193.35C123.37 193.49 122.97 193.24 122.69 192.8L119.42 187.75C119.14 187.32 119.08 186.85 119.28 186.72L119.28 186.72Z" />
						</g>
						<path id="Rectangle 17440" class="shp17" d="M57.7 243.12L117.49 243.12L117.49 262.74L57.7 262.74L57.7 243.12Z" />
						<g id="Group 9118">
							<g id="Group 9117">
								<path id="Path 2841" class="shp14" d="M127.63 261.32L127.43 334.61L48.9 334.61L49.3 261.32L127.63 261.32Z" />
							</g>
						</g>
						<g id="Group 9127">
							<path id="Path 2842" class="shp3" d="M187.6 200.92C188.85 207.12 186.17 212.89 181.61 213.81L181.61 213.81C177.05 214.73 172.34 210.46 171.08 204.26L159.15 145.26C157.9 139.06 160.57 133.28 165.14 132.36L165.14 132.36C169.7 131.44 174.42 135.72 175.67 141.92L187.6 200.92Z" />
							<path id="Path 2843" class="shp3" d="M204.59 199.91C205.41 203.97 202.38 208 197.82 208.93L197.82 208.93C193.26 209.85 188.9 207.31 188.08 203.25L180.27 164.66C179.45 160.61 182.48 156.57 187.04 155.65L187.04 155.65C191.61 154.72 195.97 157.27 196.79 161.32L204.59 199.91Z" />
							<path id="Path 2844" class="shp3" d="M182.21 244.29C184.33 248.54 182.66 253.66 178.49 255.73L178.49 255.73C174.33 257.8 169.24 256.04 167.12 251.79L147.04 211.39C144.93 207.14 146.59 202.01 150.76 199.94L150.76 199.94C154.93 197.86 160.02 199.64 162.13 203.88L182.21 244.29Z" />
							<path id="Path 2845" class="shp3" d="M221.72 199.55C222.51 203.48 219.45 207.4 214.89 208.32L214.89 208.32C210.33 209.25 205.99 206.82 205.19 202.89L197.65 165.58C196.86 161.66 199.91 157.73 204.47 156.8L204.47 156.8C209.03 155.88 213.38 158.32 214.17 162.23L221.72 199.55Z" />
							<path id="Path 2846" class="shp3" d="M238.99 199.95C239.75 203.74 236.68 207.57 232.12 208.49L232.12 208.49C227.56 209.41 223.24 207.08 222.47 203.29L215.17 167.17C214.41 163.38 217.47 159.56 222.03 158.63L222.03 158.63C226.6 157.71 230.92 160.04 231.69 163.83L238.99 199.95Z" />
							<path id="Path 2847" class="shp3" d="M169.78 197.81L176.36 230.36L242.09 215.28L238.95 199.77L169.78 197.81Z" />
							<path id="Path 2848" class="shp3" d="M241.8 213.87C241.8 213.87 245.57 230.16 244.47 234.95C243.07 241.06 237.31 242.51 236.92 243.34C236.51 244.17 241.55 266.29 241.55 266.29L191.59 276.39L187.54 256.81C187.54 256.81 170.67 261.26 167.96 251.82C164.93 241.34 162.99 233.07 162.99 233.07L176.36 230.36L203.77 220.68L241.8 213.87Z" />
							<path id="Rectangle 17441" class="shp17" d="M185.06 265.66L244.02 253.73L247.45 270.68L188.49 282.61L185.06 265.66Z" />
							<path id="Path 2849" class="shp2" d="M194.07 157.14C194.07 157.14 195.75 158.3 196.48 160.25C196.82 161.14 197.01 162.52 197.01 162.52L204.12 197.6C204.12 197.6 203.67 196.91 202.27 191.79C198.52 178.11 194.07 157.14 194.07 157.14Z" />
							<path id="Path 2850" class="shp2" d="M211.48 158.25C211.48 158.25 213.14 159.31 213.86 161.12C214.18 161.95 214.34 163.24 214.34 163.24L220.99 195.96C220.99 195.96 220.53 195.32 219.2 190.55C215.65 177.8 211.48 158.25 211.48 158.25Z" />
							<path id="Path 2851" class="shp2" d="M172.45 135.27C172.45 135.27 174.32 137.37 175.32 140.62C175.79 142.12 176.14 144.39 176.14 144.39L187.89 202.37C187.89 202.37 187.33 201.19 185.24 192.68C179.67 169.94 172.45 135.27 172.45 135.27Z" />
							<g id="Group 9119">
								<path id="Path 2852" class="shp4" d="M183.28 200.58C183.34 200.85 182.93 201.15 182.38 201.26L176.03 202.55C175.47 202.66 174.98 202.54 174.93 202.27L174.93 202.27C174.87 202.01 175.28 201.7 175.83 201.59L182.19 200.31C182.74 200.19 183.23 200.32 183.28 200.58L183.28 200.58Z" />
								<path id="Path 2853" class="shp4" d="M183.69 202.58C183.74 202.83 183.33 203.14 182.78 203.25L176.43 204.54C175.87 204.65 175.38 204.53 175.33 204.26L175.33 204.26C175.28 204 175.68 203.7 176.23 203.58L182.59 202.3C183.14 202.19 183.63 202.31 183.69 202.58L183.69 202.58Z" />
							</g>
							<g id="Group 9120">
								<path id="Path 2854" class="shp4" d="M199.8 197.21C199.85 197.47 199.45 197.78 198.9 197.89L192.54 199.17C191.99 199.28 191.49 199.16 191.44 198.9L191.44 198.9C191.38 198.63 191.79 198.33 192.35 198.22L198.71 196.93C199.25 196.82 199.75 196.94 199.8 197.21L199.8 197.21Z" />
								<path id="Path 2855" class="shp4" d="M200.2 199.19C200.25 199.45 199.85 199.76 199.3 199.88L192.94 201.16C192.39 201.27 191.89 201.15 191.84 200.88L191.84 200.88C191.79 200.62 192.2 200.32 192.75 200.2L199.11 198.92C199.66 198.81 200.15 198.93 200.2 199.19L200.2 199.19Z" />
							</g>
							<g id="Group 9121">
								<path id="Path 2856" class="shp4" d="M216.78 193.77C216.83 194.04 216.43 194.34 215.88 194.45L209.53 195.74C208.97 195.85 208.48 195.73 208.43 195.46L208.43 195.46C208.38 195.2 208.77 194.89 209.34 194.78L215.68 193.5C216.24 193.39 216.72 193.51 216.78 193.77L216.78 193.77Z" />
								<path id="Path 2857" class="shp4" d="M217.18 195.76C217.23 196.02 216.83 196.33 216.28 196.44L209.93 197.72C209.37 197.84 208.88 197.71 208.83 197.45L208.83 197.45C208.78 197.19 209.18 196.88 209.74 196.77L216.09 195.48C216.64 195.37 217.13 195.5 217.18 195.76L217.18 195.76Z" />
							</g>
							<g id="Group 9122">
								<path id="Path 2858" class="shp4" d="M232.84 190.53C232.89 190.79 232.48 191.09 231.93 191.2L225.57 192.49C225.03 192.6 224.54 192.48 224.48 192.22L224.48 192.22C224.43 191.95 224.83 191.65 225.38 191.54L231.74 190.25C232.29 190.14 232.78 190.26 232.84 190.53L232.84 190.53Z" />
								<path id="Path 2859" class="shp4" d="M233.23 192.51C233.29 192.78 232.89 193.08 232.33 193.19L225.97 194.48C225.43 194.59 224.93 194.46 224.88 194.2L224.88 194.2C224.83 193.94 225.24 193.63 225.78 193.52L232.14 192.24C232.69 192.13 233.18 192.25 233.23 192.51L233.23 192.51Z" />
							</g>
							<g id="Group 9123">
								<path id="Path 2860" class="shp4" d="M176.32 166.23C176.37 166.52 175.93 166.87 175.32 167L168.23 168.48C167.61 168.61 167.07 168.48 167.01 168.18L167.01 168.18C166.95 167.88 167.39 167.55 168.01 167.41L175.09 165.93C175.7 165.8 176.26 165.94 176.32 166.23L176.32 166.23Z" />
								<path id="Path 2861" class="shp4" d="M176.79 168.44C176.84 168.73 176.39 169.08 175.78 169.21L168.69 170.7C168.08 170.82 167.53 170.69 167.46 170.4L167.46 170.4C167.41 170.1 167.85 169.76 168.47 169.63L175.56 168.14C176.17 168.02 176.72 168.15 176.79 168.44L176.79 168.44Z" />
							</g>
							<g id="Group 9124">
								<path id="Path 2862" class="shp4" d="M166.23 222.71C166.34 222.97 165.99 223.41 165.42 223.68L158.84 226.69C158.27 226.96 157.71 226.95 157.58 226.68L157.58 226.68C157.45 226.4 157.82 225.97 158.39 225.7L164.96 222.68C165.53 222.42 166.11 222.44 166.23 222.71L166.23 222.71Z" />
								<path id="Path 2863" class="shp4" d="M167.17 224.75C167.29 225.03 166.93 225.47 166.36 225.73L159.79 228.75C159.22 229.01 158.65 229.01 158.52 228.74L158.52 228.74C158.4 228.46 158.76 228.03 159.33 227.76L165.91 224.74C166.48 224.48 167.04 224.49 167.17 224.75L167.17 224.75Z" />
							</g>
							<path id="Path 2864" class="shp4" d="M170.91 137.94C170.91 137.94 168.76 137.78 166.11 138.19L166.11 138.19L166.09 138.2C166.08 138.2 166.07 138.2 166.06 138.2L166.06 138.2C163.4 138.62 161.41 139.45 161.41 139.45C161.91 142.62 162.6 147.39 164.72 148.94C165.66 149.62 166.84 149.7 167.85 149.52L167.85 149.52C167.85 149.52 167.87 149.52 167.88 149.51C167.88 149.51 167.89 149.52 167.9 149.52L167.89 149.51C168.92 149.38 170.01 148.94 170.7 147.99C172.24 145.86 171.41 141.12 170.91 137.94Z" />
							<path id="Path 2865" class="shp4" d="M156.33 204.11C156.33 204.11 154.25 204.67 151.88 205.94L151.88 205.94C151.87 205.94 151.87 205.94 151.86 205.95C151.85 205.96 151.84 205.96 151.83 205.96L151.83 205.96C149.47 207.24 147.86 208.68 147.86 208.68C149.39 211.5 151.61 215.78 154.12 216.54C155.24 216.87 156.38 216.56 157.27 216.05L157.27 216.05L157.3 216.03C157.3 216.03 157.31 216.03 157.32 216.03L157.31 216.02C158.24 215.56 159.12 214.79 159.46 213.66C160.2 211.15 157.86 206.94 156.33 204.11Z" />
							<g id="Group 9126">
								<g id="Group 9125">
									<path id="Path 2866" class="shp14" d="M176.13 282.51L189.36 334.61L277.88 334.61L255.94 266.38L176.13 282.51Z" />
								</g>
							</g>
						</g>
					</g>
				</g>
			</g>
		</g>
	</g>
</svg>