<svg xmlns="http://www.w3.org/2000/svg" viewBox="0 0 325 319" width="325" height="319">
	<style>
		tspan { white-space:pre }
		.shp0 { fill: #f37018 } 
		.shp1 { fill: #ebebeb } 
		.shp2 { fill: #e0e0e0 } 
		.shp3 { opacity: 0.78;fill: #ffffff } 
		.shp4 { opacity: 0.78;fill: #dcdcdc } 
		.shp5 { fill: #4f4f4f } 
		.shp6 { fill: #d1d1d1 } 
		.shp7 { fill: #263238 } 
		.shp8 { opacity: 0.302;fill: #000000 } 
		.shp9 { fill: #ffffff } 
		.shp10 { fill: #a9a9a9 } 
		.shp11 { fill: #000000 } 
		.shp12 { fill: #455a64 } 
		.shp13 { fill: #e3b592 } 
		.shp14 { fill: #995037 } 
		.shp15 { fill: #303030 } 
	</style>
	<g id="Ordergo - Landing">
		<g id="Group 9111">
			<g id="Group 9109">
				<g id="Group 8805">
					<g id="Group 2460">
						<path id="Ellipse 15" class="shp0" d="M153.63 318.56C75.16 318.56 11.73 255.13 11.73 176.66C11.73 98.19 75.16 34.76 153.63 34.76C232.1 34.76 295.53 98.19 295.53 176.66C295.53 255.13 232.1 318.56 153.63 318.56Z" />
					</g>
				</g>
				<g id="Background Complete">
					<g id="Group 8850">
						<g id="Group 8835">
							<path id="Path 2665" class="shp1" d="M8.11 163.15C8.11 163.15 2.6 163.94 5.76 175.99C8.91 188.04 11.56 194.24 11.56 194.24C11.56 194.24 11.99 196.97 9.79 196.9C7.58 196.82 3.08 195.06 1.57 197.44C0.01 199.91 1.4 202.88 4.87 205.97C8.34 209.06 15.69 216.11 16.35 216.75C17.01 217.38 17.5 218.71 15.99 218.91C14.49 219.1 3.76 217.89 3.49 223.01C3.22 228.14 14.31 235.16 15.5 235.95C16.7 236.74 16.89 237.37 16.63 238.06C16.36 238.75 12.79 238.01 9.73 237.79C6.67 237.57 3.07 237.86 3.17 240.83C3.26 243.8 9.1 251.27 26.04 256.77L34.06 258.8L39.96 252.94C51.8 239.63 53.06 230.23 51.64 227.62C50.22 225.01 46.98 226.58 44.44 228.32C41.91 230.06 39.21 232.5 38.63 232.04C38.05 231.57 37.9 230.94 38.53 229.65C39.17 228.36 45.18 216.7 42.36 212.42C39.54 208.13 30.89 214.59 29.49 215.19C28.09 215.79 27.85 214.38 28.09 213.51C28.34 212.63 31.12 202.82 32.55 198.4C33.98 193.98 33.69 190.72 31.09 189.38C28.58 188.09 25.59 191.88 23.72 193.06C21.86 194.24 20.85 191.67 20.85 191.67C20.85 191.67 20 184.97 16.64 172.99C13.27 161 8 163.18 8 163.18" />
						</g>
						<g id="Group 8837">
							<g id="Group 8836">
								<path id="Path 2666" class="shp2" d="M34.07 260.79C31.63 251.98 27.55 236.24 23.99 222.75C20.42 209.26 17.18 197.05 14.78 188.23C13.58 183.83 12.61 180.26 11.94 177.78C11.6 176.56 11.34 175.6 11.16 174.94C11.08 174.62 11.02 174.38 10.97 174.2C10.93 174.03 10.91 173.95 10.91 173.95C10.91 173.95 10.94 174.03 10.99 174.19C11.05 174.37 11.12 174.61 11.21 174.93C11.4 175.58 11.68 176.53 12.03 177.75C12.74 180.21 13.74 183.77 14.96 188.18C17.4 196.99 20.67 209.2 24.23 222.68C27.8 236.18 31.85 251.92 34.24 260.74" />
							</g>
						</g>
						<g id="Group 8839">
							<g id="Group 8838">
								<path id="Path 2667" class="shp2" d="M7.77 200.16C7.78 200.15 7.96 200.25 8.3 200.44C8.63 200.64 9.1 200.93 9.68 201.3C10.84 202.04 12.42 203.1 14.13 204.3C15.82 205.5 17.35 206.57 18.52 207.4C19.04 207.77 19.49 208.08 19.85 208.33C20.17 208.55 20.34 208.67 20.33 208.69C20.32 208.7 20.13 208.6 19.8 208.41C19.46 208.22 18.99 207.92 18.41 207.55C17.26 206.8 15.7 205.72 13.99 204.51C12.29 203.33 10.75 202.27 9.58 201.45C9.05 201.09 8.6 200.78 8.24 200.53C7.93 200.31 7.76 200.18 7.77 200.16Z" />
							</g>
						</g>
						<g id="Group 8841">
							<g id="Group 8840">
								<path id="Path 2668" class="shp2" d="M20.99 208.29C20.93 208.26 22.98 204.91 25.56 200.83C28.14 196.74 30.29 193.46 30.35 193.5C30.41 193.53 28.36 196.88 25.78 200.96C23.2 205.05 21.05 208.33 20.99 208.29Z" />
							</g>
						</g>
						<g id="Group 8843">
							<g id="Group 8842">
								<path id="Path 2669" class="shp2" d="M25.54 229.26C25.52 229.24 25.68 229.09 25.97 228.83C26.31 228.54 26.72 228.17 27.22 227.73C28.27 226.8 29.71 225.51 31.25 224.03C32.79 222.55 34.14 221.16 35.11 220.15C35.57 219.68 35.95 219.28 36.26 218.95C36.54 218.67 36.69 218.52 36.71 218.54C36.72 218.55 36.59 218.72 36.34 219.02C36.09 219.32 35.72 219.76 35.25 220.28C34.31 221.32 32.98 222.73 31.43 224.22C29.88 225.7 28.42 226.97 27.34 227.87C26.79 228.31 26.35 228.67 26.04 228.91C25.72 229.15 25.55 229.27 25.54 229.26Z" />
							</g>
						</g>
						<g id="Group 8845">
							<g id="Group 8844">
								<path id="Path 2670" class="shp2" d="M11.95 224.54C11.96 224.52 12.16 224.57 12.5 224.67C12.9 224.79 13.39 224.94 13.97 225.11C15.21 225.5 16.91 226.05 18.79 226.68C20.66 227.3 22.36 227.88 23.58 228.32C24.15 228.52 24.63 228.7 25.02 228.84C25.36 228.97 25.55 229.05 25.54 229.06C25.54 229.08 25.34 229.03 24.99 228.93C24.59 228.81 24.1 228.66 23.52 228.49C22.29 228.1 20.58 227.55 18.71 226.92C16.83 226.3 15.14 225.72 13.92 225.29C13.35 225.08 12.87 224.9 12.47 224.76C12.13 224.63 11.95 224.55 11.95 224.54Z" />
							</g>
						</g>
						<g id="Group 8847">
							<g id="Group 8846">
								<path id="Path 2671" class="shp2" d="M13.61 243.55C13.62 243.54 13.87 243.6 14.32 243.73C14.81 243.87 15.44 244.06 16.2 244.29C17.79 244.78 19.98 245.47 22.39 246.25C24.8 247.03 26.98 247.75 28.55 248.28C29.3 248.54 29.93 248.75 30.41 248.92C30.85 249.08 31.09 249.17 31.08 249.19C31.08 249.21 30.83 249.14 30.38 249.02C29.89 248.87 29.26 248.68 28.5 248.45C26.91 247.96 24.72 247.27 22.31 246.49C19.9 245.72 17.72 245 16.14 244.46C15.39 244.21 14.77 243.99 14.29 243.82C13.85 243.67 13.61 243.57 13.61 243.55Z" />
							</g>
						</g>
						<g id="Group 8849">
							<g id="Group 8848">
								<path id="Path 2672" class="shp2" d="M30.7 248.94C30.69 248.92 30.88 248.73 31.24 248.38C31.64 248.01 32.15 247.52 32.77 246.93C34.06 245.71 35.83 244.01 37.73 242.07C39.64 240.14 41.32 238.35 42.53 237.04C43.11 236.42 43.59 235.9 43.96 235.5C44.3 235.14 44.49 234.94 44.51 234.95C44.52 234.96 44.35 235.18 44.03 235.57C43.72 235.95 43.25 236.5 42.66 237.17C41.49 238.5 39.83 240.32 37.92 242.25C36.01 244.19 34.22 245.87 32.89 247.07C32.23 247.66 31.69 248.14 31.31 248.46C30.93 248.78 30.72 248.95 30.7 248.94Z" />
							</g>
						</g>
					</g>
					<g id="Group 8880">
						<g id="Group 8854">
							<g id="Group 8853">
								<g id="Group 8852">
									<g id="Group 8851">
										<path id="Path 2673" class="shp1" d="M267.13 259.55C250.17 249.87 244.66 229.52 243.59 210.87C243.41 207.76 242.77 204.52 244 201.66C245.23 198.81 248.5 196.63 251.4 197.68C253.8 198.56 255.05 201.15 256.54 203.24C258.53 206.04 261.3 208.25 264.45 209.53C266.52 210.38 269.03 210.78 270.88 209.52C273.42 207.8 273.4 204.08 273.1 200.99C272.53 195.24 271.97 189.5 271.41 183.75C271.11 180.66 270.81 177.51 271.5 174.5C272.2 171.48 274.07 168.57 276.93 167.48C279.79 166.39 283.57 167.75 284.47 170.71C284.84 171.94 284.71 173.27 284.91 174.54C285.11 175.82 285.84 177.18 287.09 177.43C288.35 177.68 289.51 176.69 290.35 175.7C293.25 172.29 295.04 168.08 296.7 163.91C298.35 159.73 299.94 155.46 302.52 151.8C305.1 148.14 308.85 145.08 313.25 144.43C317.64 143.77 322.6 146.07 324.11 150.31C325.63 154.55 323.5 159.2 321.06 162.97C317.44 168.57 313.01 173.64 307.96 177.96C307.06 178.74 306.07 179.58 305.8 180.75C305.32 182.87 307.45 184.74 309.55 185.23C311.92 185.78 314.39 185.32 316.82 185.38C319.26 185.44 321.96 186.27 323.08 188.46C324.63 191.5 322.3 195.05 319.9 197.45C315.1 202.26 309.47 206.23 303.35 209.12C301.16 210.16 298.84 211.11 297.15 212.87C295.47 214.63 294.62 217.51 295.92 219.58C297.23 221.66 300.13 222.09 302.47 221.43C304.8 220.78 306.81 219.29 309 218.23C313.1 216.24 318.6 216.03 321.65 219.45C323.66 221.69 324.12 225.03 323.48 227.99C322.84 230.94 321.24 233.58 319.5 236.04C313.43 244.64 305.32 251.85 295.79 256.16C286.26 260.47 277.23 262.23 267.13 259.55Z" />
									</g>
								</g>
							</g>
						</g>
						<g id="Group 8859">
							<g id="Group 8858">
								<g id="Group 8857">
									<g id="Group 8856">
										<g id="Group 8855">
											<path id="Path 2674" class="shp2" d="M270.86 247.46C272.74 237.83 275.68 227.44 279.12 216.68C279.99 214 280.85 211.34 281.7 208.73C282.55 206.12 283.39 203.53 284.38 201.05C286.32 196.08 288.57 191.45 290.84 187.13C293.11 182.8 295.42 178.77 297.61 175.02C299.81 171.28 301.93 167.82 303.99 164.76C308.09 158.61 311.99 154.06 314.78 151.04C316.18 149.52 317.3 148.38 318.07 147.62C318.44 147.26 318.74 146.97 318.96 146.76C319.16 146.57 319.26 146.47 319.27 146.48C319.28 146.49 319.18 146.6 319 146.8C318.79 147.03 318.51 147.32 318.16 147.7C317.41 148.49 316.32 149.65 314.95 151.19C312.2 154.25 308.37 158.83 304.32 164.99C302.29 168.06 300.2 171.51 298.02 175.27C295.85 179.02 293.56 183.05 291.3 187.38C289.05 191.7 286.82 196.32 284.9 201.26C283.92 203.73 283.09 206.29 282.23 208.91C281.39 211.52 280.53 214.18 279.66 216.86C276.22 227.61 273.28 237.97 271.38 247.56" />
										</g>
									</g>
								</g>
							</g>
						</g>
						<g id="Group 8864">
							<g id="Group 8863">
								<g id="Group 8862">
									<g id="Group 8861">
										<g id="Group 8860">
											<path id="Path 2675" class="shp2" d="M284.54 201.02C284.5 201.02 284.35 200.57 284.12 199.73C283.88 198.89 283.57 197.67 283.21 196.15C282.49 193.12 281.65 188.89 280.73 184.24C279.81 179.57 278.91 175.38 278.15 172.36C277.77 170.86 277.45 169.64 277.22 168.8C277 167.96 276.89 167.49 276.93 167.48C276.97 167.46 277.14 167.91 277.44 168.73C277.73 169.55 278.11 170.76 278.53 172.26C279.4 175.26 280.37 179.46 281.29 184.12C282.18 188.72 282.99 192.88 283.6 196.06C283.89 197.49 284.14 198.7 284.33 199.67C284.5 200.53 284.58 201.01 284.54 201.02Z" />
										</g>
									</g>
								</g>
							</g>
						</g>
						<g id="Group 8869">
							<g id="Group 8868">
								<g id="Group 8867">
									<g id="Group 8866">
										<g id="Group 8865">
											<path id="Path 2676" class="shp2" d="M323.54 189.97C323.54 190.01 322.98 190.13 321.97 190.31C320.96 190.49 319.5 190.75 317.7 191.13C314.1 191.85 309.17 193.02 303.78 194.56C298.39 196.1 293.58 197.71 290.13 198.97C288.4 199.59 287.01 200.13 286.05 200.49C285.09 200.86 284.55 201.05 284.54 201.02C284.52 200.98 285.03 200.72 285.97 200.29C286.9 199.86 288.27 199.26 289.99 198.59C293.41 197.22 298.22 195.55 303.62 194C309.03 192.47 314 191.35 317.63 190.73C319.44 190.4 320.91 190.2 321.94 190.09C322.96 189.98 323.53 189.93 323.54 189.97Z" />
										</g>
									</g>
								</g>
							</g>
						</g>
						<g id="Group 8874">
							<g id="Group 8873">
								<g id="Group 8872">
									<g id="Group 8871">
										<g id="Group 8870">
											<path id="Path 2677" class="shp2" d="M271.28 246.68C271.27 246.69 271.16 246.53 270.97 246.22C270.75 245.85 270.48 245.4 270.16 244.85C269.46 243.66 268.5 241.9 267.33 239.71C265 235.34 261.98 229.2 258.73 222.39C255.47 215.57 252.51 209.41 250.27 205C249.18 202.85 248.28 201.09 247.61 199.78C247.32 199.21 247.09 198.74 246.89 198.35C246.73 198.02 246.66 197.85 246.68 197.84C246.69 197.83 246.8 197.99 246.99 198.3C247.21 198.67 247.48 199.12 247.8 199.67C248.5 200.86 249.47 202.62 250.63 204.81C252.96 209.18 255.99 215.32 259.24 222.14C262.49 228.95 265.45 235.11 267.69 239.52C268.78 241.67 269.68 243.43 270.35 244.74C270.64 245.31 270.87 245.78 271.07 246.17C271.23 246.5 271.3 246.67 271.28 246.68Z" />
										</g>
									</g>
								</g>
							</g>
						</g>
						<g id="Group 8879">
							<g id="Group 8878">
								<g id="Group 8877">
									<g id="Group 8876">
										<g id="Group 8875">
											<path id="Path 2678" class="shp2" d="M322.45 224.87C322.46 224.89 322.29 224.98 321.95 225.14C321.55 225.31 321.06 225.53 320.47 225.79C319.09 226.38 317.24 227.17 314.99 228.13C310.36 230.12 304 232.93 296.98 236.04C289.96 239.16 283.57 241.91 278.9 243.8C276.57 244.74 274.67 245.49 273.35 245.97C272.74 246.2 272.24 246.38 271.83 246.53C271.48 246.65 271.29 246.7 271.28 246.68C271.28 246.67 271.45 246.57 271.79 246.42C272.19 246.24 272.68 246.03 273.27 245.77C274.64 245.18 276.5 244.39 278.75 243.42C283.38 241.44 289.73 238.63 296.76 235.51C303.78 232.4 310.16 229.64 314.83 227.76C317.17 226.81 319.06 226.07 320.38 225.58C320.99 225.36 321.5 225.18 321.91 225.03C322.26 224.91 322.45 224.85 322.45 224.87Z" />
										</g>
									</g>
								</g>
							</g>
						</g>
					</g>
				</g>
				<g id="Treasure">
					<g id="Group 9110">
						<g id="Group 8812">
							<path id="Ellipse 49" class="shp1" d="M137.63 118.27C129.79 126.1 117.12 126.1 109.28 118.27C101.45 110.43 101.45 97.76 109.28 89.92C117.12 82.09 129.79 82.09 137.63 89.92C145.46 97.76 145.46 110.43 137.63 118.27Z" />
							<path id="Path 2631" class="shp3" d="M106.93 96.22C106.86 96.22 106.79 96.2 106.73 96.17C106.51 96.06 106.42 95.79 106.53 95.57C109.77 89.14 116.26 85.15 123.46 85.15C124.6 85.15 125.75 85.25 126.87 85.45C127.12 85.5 127.28 85.73 127.23 85.97C127.19 86.22 126.96 86.38 126.71 86.33C125.65 86.14 124.55 86.04 123.46 86.04C116.6 86.04 110.42 89.85 107.33 95.97C107.25 96.13 107.09 96.22 106.93 96.22Z" />
							<path id="Ellipse 50" class="shp4" d="M123.89 121.49C114.51 121.49 106.93 113.91 106.93 104.53C106.93 95.15 114.51 87.57 123.89 87.57C133.27 87.57 140.86 95.15 140.86 104.53C140.86 113.91 133.27 121.49 123.89 121.49Z" />
							<g id="Group 8811">
								<path id="Path 2632" class="shp5" d="M122.23 117.14L122.23 115.3C120.3 115.22 118.4 114.76 117.05 114.17C116.57 113.96 116.32 113.42 116.46 112.91L116.93 111.19C117.1 110.56 117.79 110.24 118.39 110.49C119.73 111.05 121.39 111.5 123.17 111.5C125.02 111.5 126.41 110.87 126.41 109.58C126.41 108.42 125.34 107.73 122.76 107.04C119.09 106.03 116.45 104.43 116.45 101.19C116.45 98.27 118.58 96.04 122.29 95.45L122.29 93.6C122.29 93.01 122.77 92.53 123.37 92.53L124.45 92.53C125.04 92.53 125.53 93.01 125.53 93.6L125.53 95.26C127.31 95.33 128.6 95.63 129.63 96C130.16 96.18 130.45 96.75 130.3 97.29L129.87 98.88C129.7 99.49 129.05 99.83 128.45 99.6C127.51 99.24 126.17 98.87 124.43 98.87C122.23 98.87 121.6 99.78 121.6 100.6C121.6 101.6 122.92 102.29 125.78 103.17C129.86 104.4 131.56 106.09 131.56 109.14C131.56 111.94 129.48 114.45 125.46 115.08L125.46 117.14C125.46 117.74 124.98 118.22 124.39 118.22L123.3 118.22C122.71 118.22 122.23 117.74 122.23 117.14Z" />
							</g>
						</g>
						<g id="Group 8833">
							<path id="Ellipse 49" class="shp1" d="M96.69 132.53C91.57 137.66 83.28 137.66 78.16 132.53C73.04 127.41 73.04 119.12 78.16 114C83.28 108.87 91.57 108.87 96.69 114C101.82 119.12 101.82 127.41 96.69 132.53Z" />
							<path id="Path 2631" class="shp3" d="M76.62 118.11C76.58 118.11 76.53 118.1 76.49 118.08C76.34 118.01 76.29 117.83 76.36 117.69C78.48 113.49 82.72 110.88 87.43 110.88C88.18 110.88 88.93 110.94 89.66 111.08C89.82 111.11 89.93 111.26 89.9 111.42C89.87 111.58 89.72 111.68 89.56 111.65C88.86 111.52 88.14 111.46 87.43 111.46C82.94 111.46 78.9 113.95 76.88 117.95C76.83 118.06 76.73 118.11 76.62 118.11Z" />
							<path id="Ellipse 50" class="shp4" d="M87.71 134.64C81.58 134.64 76.62 129.69 76.62 123.55C76.62 117.42 81.58 112.46 87.71 112.46C93.85 112.46 98.8 117.42 98.8 123.55C98.8 129.69 93.85 134.64 87.71 134.64Z" />
							<g id="Group 8811">
								<path id="Path 2632" class="shp5" d="M86.62 131.8L86.62 130.59C85.37 130.54 84.12 130.24 83.24 129.86C82.92 129.72 82.76 129.36 82.85 129.03L83.16 127.91C83.27 127.5 83.72 127.28 84.11 127.45C84.99 127.81 86.07 128.11 87.24 128.11C88.45 128.11 89.36 127.69 89.36 126.85C89.36 126.09 88.66 125.64 86.97 125.19C84.57 124.53 82.85 123.48 82.85 121.37C82.85 119.46 84.24 118 86.67 117.61L86.67 116.4C86.67 116.02 86.98 115.7 87.37 115.7L88.08 115.7C88.47 115.7 88.78 116.02 88.78 116.4L88.78 117.49C89.94 117.53 90.79 117.73 91.46 117.97C91.81 118.09 92 118.46 91.9 118.81L91.62 119.85C91.51 120.25 91.08 120.47 90.69 120.33C90.07 120.09 89.2 119.85 88.06 119.85C86.62 119.85 86.21 120.45 86.21 120.98C86.21 121.64 87.08 122.09 88.94 122.66C91.61 123.46 92.72 124.57 92.72 126.57C92.72 128.39 91.37 130.04 88.74 130.45L88.74 131.8C88.74 132.19 88.42 132.5 88.04 132.5L87.33 132.5C86.94 132.5 86.62 132.19 86.62 131.8Z" />
							</g>
						</g>
						<g id="Group 8834">
							<path id="Ellipse 49" class="shp1" d="M130.73 163C124.14 169.6 113.48 169.6 106.88 163C100.29 156.41 100.29 145.75 106.88 139.15C113.48 132.56 124.14 132.56 130.73 139.15C137.33 145.75 137.33 156.41 130.73 163Z" />
							<path id="Path 2631" class="shp3" d="M104.9 144.45C104.84 144.45 104.79 144.43 104.73 144.41C104.55 144.31 104.47 144.09 104.57 143.9C107.3 138.49 112.75 135.13 118.81 135.13C119.77 135.13 120.74 135.22 121.68 135.39C121.89 135.43 122.02 135.62 121.99 135.83C121.95 136.03 121.75 136.17 121.55 136.13C120.65 135.97 119.73 135.88 118.81 135.88C113.04 135.88 107.84 139.09 105.24 144.24C105.17 144.37 105.04 144.45 104.9 144.45Z" />
							<path id="Ellipse 50" class="shp4" d="M119.18 165.72C111.28 165.72 104.9 159.34 104.9 151.44C104.9 143.55 111.28 137.17 119.18 137.17C127.07 137.17 133.45 143.55 133.45 151.44C133.45 159.34 127.07 165.72 119.18 165.72Z" />
							<g id="Group 8811">
								<path id="Path 2632" class="shp5" d="M117.77 162.06L117.77 160.5C116.16 160.44 114.55 160.06 113.42 159.56C113.01 159.38 112.8 158.92 112.92 158.5L113.32 157.05C113.46 156.52 114.04 156.25 114.54 156.46C115.67 156.93 117.07 157.3 118.57 157.3C120.13 157.3 121.29 156.78 121.29 155.69C121.29 154.72 120.39 154.13 118.22 153.55C115.13 152.71 112.91 151.36 112.91 148.64C112.91 146.18 114.71 144.3 117.83 143.8L117.83 142.25C117.83 141.75 118.23 141.34 118.73 141.34L119.64 141.34C120.14 141.34 120.55 141.75 120.55 142.25L120.55 143.64C122.05 143.7 123.14 143.96 124 144.26C124.45 144.42 124.69 144.89 124.57 145.35L124.2 146.69C124.06 147.2 123.51 147.48 123.01 147.3C122.22 146.99 121.09 146.68 119.62 146.68C117.77 146.68 117.25 147.45 117.25 148.13C117.25 148.98 118.36 149.56 120.76 150.3C124.2 151.33 125.62 152.76 125.62 155.32C125.62 157.68 123.88 159.79 120.5 160.32L120.5 162.06C120.5 162.56 120.09 162.96 119.59 162.96L118.68 162.96C118.18 162.96 117.77 162.56 117.77 162.06Z" />
							</g>
						</g>
					</g>
					<g id="Group 8933">
						<g id="Group 8931">
							<path id="Rectangle 17437" class="shp6" d="M35.18 150.88L167.88 150.88L167.88 260.98L35.18 260.98L35.18 150.88Z" />
							<g id="Group 8883">
								<path id="Path 2683" class="shp2" d="M163.59 156.45C164.27 157.2 164.21 158.36 163.45 159.03C162.7 159.71 161.55 159.65 160.87 158.9C160.19 158.15 160.25 156.99 161.01 156.31C161.76 155.64 162.91 155.7 163.59 156.45Z" />
								<g id="Group 8882">
									<path id="Path 2684" class="shp7" d="M163.59 156.45C163.57 156.47 163.45 156.36 163.21 156.22C162.97 156.08 162.57 155.94 162.09 155.99C161.62 156.04 161.06 156.34 160.78 156.9C160.49 157.44 160.53 158.23 161.02 158.76C161.49 159.3 162.28 159.43 162.85 159.2C163.43 158.97 163.79 158.45 163.89 157.99C163.99 157.51 163.89 157.11 163.78 156.86C163.67 156.6 163.57 156.47 163.59 156.45C163.61 156.43 163.75 156.53 163.92 156.78C164.08 157.03 164.25 157.48 164.17 158.04C164.09 158.59 163.7 159.24 162.99 159.54C162.3 159.85 161.31 159.71 160.72 159.03C160.11 158.37 160.07 157.38 160.45 156.73C160.82 156.05 161.51 155.73 162.07 155.71C162.63 155.68 163.06 155.9 163.29 156.09C163.53 156.28 163.61 156.44 163.59 156.45Z" />
								</g>
							</g>
							<path id="Rectangle 17438" class="shp8" d="M48.52 164.09L154.51 164.09L154.51 247.45L48.52 247.45L48.52 164.09Z" />
							<g id="Group 8884">
								<path id="Path 2685" class="shp9" d="M126.94 165.47C126.94 165.58 116.57 165.67 103.77 165.67C90.97 165.67 80.6 165.58 80.6 165.47C80.6 165.36 90.97 165.27 103.77 165.27C116.57 165.27 126.94 165.36 126.94 165.47Z" />
							</g>
							<g id="Group 8885">
								<path id="Path 2686" class="shp7" d="M154.51 247.45C154.51 247.45 154.49 246.92 154.49 245.91C154.48 244.9 154.48 243.41 154.47 241.46C154.46 237.57 154.44 231.86 154.43 224.58C154.41 210.03 154.38 189.22 154.34 164.09L154.51 164.26C124.27 164.27 87.79 164.28 48.53 164.29L48.52 164.29L48.72 164.09C48.71 194.16 48.7 222.59 48.7 247.45L48.52 247.27C79.97 247.31 106.44 247.34 125.06 247.36C134.38 247.38 141.73 247.4 146.76 247.41C149.27 247.42 151.2 247.42 152.51 247.43C153.16 247.43 153.66 247.44 154 247.44C154.33 247.44 154.51 247.45 154.51 247.45C154.51 247.45 154.35 247.46 154.02 247.46C153.68 247.46 153.19 247.46 152.55 247.47C151.25 247.47 149.33 247.48 146.84 247.49C141.82 247.5 134.48 247.52 125.18 247.54C106.53 247.56 80.02 247.59 48.52 247.63L48.34 247.63L48.34 247.45C48.33 222.59 48.32 194.16 48.32 164.09L48.32 163.89L48.52 163.89L48.53 163.89C87.79 163.9 124.27 163.92 154.51 163.93L154.67 163.93L154.67 164.09C154.64 189.26 154.61 210.11 154.59 224.68C154.57 231.95 154.55 237.64 154.54 241.53C154.54 243.46 154.53 244.94 154.52 245.95C154.52 246.94 154.51 247.45 154.51 247.45Z" />
							</g>
							<g id="Group 8886">
								<path id="Path 2687" class="shp7" d="M154.51 235.81C154.51 235.92 130.77 236.01 101.5 236.01C72.22 236.01 48.5 235.92 48.5 235.81C48.5 235.7 72.22 235.61 101.5 235.61C130.77 235.61 154.51 235.7 154.51 235.81Z" />
							</g>
							<g id="Group 8887">
								<path id="Path 2688" class="shp7" d="M154.51 223.32C154.51 223.43 130.77 223.52 101.5 223.52C72.22 223.52 48.5 223.43 48.5 223.32C48.5 223.21 72.22 223.12 101.5 223.12C130.77 223.12 154.51 223.21 154.51 223.32Z" />
							</g>
							<g id="Group 8888">
								<path id="Path 2689" class="shp7" d="M154.51 210.83C154.51 210.94 130.77 211.03 101.5 211.03C72.22 211.03 48.5 210.94 48.5 210.83C48.5 210.72 72.22 210.63 101.5 210.63C130.77 210.63 154.51 210.72 154.51 210.83Z" />
							</g>
							<g id="Group 8889">
								<path id="Path 2690" class="shp7" d="M154.51 198.34C154.51 198.45 130.77 198.54 101.5 198.54C72.22 198.54 48.5 198.45 48.5 198.34C48.5 198.23 72.22 198.14 101.5 198.14C130.77 198.14 154.51 198.23 154.51 198.34Z" />
							</g>
							<g id="Group 8890">
								<path id="Path 2691" class="shp7" d="M154.51 185.85C154.51 185.96 130.77 186.05 101.5 186.05C72.22 186.05 48.5 185.96 48.5 185.85C48.5 185.74 72.22 185.65 101.5 185.65C130.77 185.65 154.51 185.74 154.51 185.85Z" />
							</g>
							<g id="Group 8891">
								<path id="Path 2692" class="shp7" d="M154.51 173.36C154.51 173.47 130.77 173.56 101.5 173.56C72.22 173.56 48.5 173.47 48.5 173.36C48.5 173.25 72.22 173.16 101.5 173.16C130.77 173.16 154.51 173.25 154.51 173.36Z" />
							</g>
							<g id="Group 8892">
								<path id="Path 2693" class="shp9" d="M99.22 174.45C99.22 174.56 93.18 174.65 85.73 174.65C78.27 174.65 72.24 174.56 72.24 174.45C72.24 174.34 78.27 174.25 85.73 174.25C93.18 174.25 99.22 174.34 99.22 174.45Z" />
							</g>
							<g id="Group 8893">
								<path id="Path 2694" class="shp9" d="M112.71 174.45C112.71 174.56 111.54 174.65 110.09 174.65C108.64 174.65 107.47 174.56 107.47 174.45C107.47 174.34 108.64 174.25 110.09 174.25C111.54 174.25 112.71 174.34 112.71 174.45Z" />
							</g>
							<g id="Group 8894">
								<path id="Path 2695" class="shp9" d="M125.19 187.54C125.19 187.65 119.69 187.74 112.91 187.74C106.12 187.74 100.63 187.65 100.63 187.54C100.63 187.43 106.12 187.34 112.91 187.34C119.69 187.34 125.19 187.43 125.19 187.54Z" />
							</g>
							<g id="Group 8895">
								<path id="Path 2696" class="shp9" d="M103.24 199.83C103.24 199.94 99.46 200.03 94.79 200.03C90.12 200.03 86.33 199.94 86.33 199.83C86.33 199.71 90.12 199.62 94.79 199.62C99.46 199.62 103.24 199.71 103.24 199.83Z" />
							</g>
							<g id="Group 8896">
								<path id="Path 2697" class="shp9" d="M110.69 211.91C110.69 212.02 108.62 212.11 106.06 212.11C103.51 212.11 101.43 212.02 101.43 211.91C101.43 211.8 103.51 211.71 106.06 211.71C108.62 211.71 110.69 211.8 110.69 211.91Z" />
							</g>
							<g id="Group 8898">
								<path id="Path 2698" class="shp2" d="M42.46 230.6C41.7 231.28 40.55 231.22 39.87 230.47C39.19 229.71 39.26 228.56 40.01 227.88C40.76 227.21 41.92 227.27 42.59 228.02C43.27 228.77 43.21 229.93 42.46 230.6Z" />
								<g id="Group 8897">
									<path id="Path 2699" class="shp7" d="M42.46 230.6C42.43 230.58 42.55 230.46 42.68 230.22C42.82 229.98 42.97 229.58 42.91 229.1C42.87 228.63 42.56 228.08 42.01 227.79C41.46 227.5 40.67 227.55 40.14 228.03C39.6 228.51 39.47 229.29 39.71 229.86C39.93 230.44 40.45 230.8 40.92 230.9C41.39 231.01 41.8 230.9 42.05 230.79C42.3 230.68 42.43 230.58 42.46 230.6C42.47 230.62 42.38 230.76 42.12 230.93C41.87 231.09 41.42 231.26 40.86 231.18C40.31 231.1 39.66 230.71 39.37 230C39.06 229.31 39.2 228.33 39.87 227.73C40.53 227.13 41.53 227.09 42.18 227.47C42.85 227.83 43.18 228.53 43.19 229.08C43.22 229.65 43 230.07 42.81 230.3C42.62 230.54 42.47 230.62 42.46 230.6Z" />
								</g>
							</g>
							<g id="Group 8900">
								<path id="Path 2700" class="shp2" d="M42.46 253.58C41.7 254.26 40.55 254.2 39.87 253.45C39.19 252.7 39.26 251.54 40.01 250.86C40.76 250.19 41.92 250.25 42.59 251C43.27 251.75 43.21 252.91 42.46 253.58Z" />
								<g id="Group 8899">
									<path id="Path 2701" class="shp7" d="M42.46 253.58C42.43 253.56 42.55 253.44 42.68 253.2C42.82 252.96 42.97 252.57 42.91 252.08C42.87 251.61 42.56 251.06 42.01 250.77C41.46 250.48 40.67 250.53 40.14 251.01C39.6 251.49 39.47 252.27 39.71 252.84C39.93 253.42 40.45 253.78 40.92 253.88C41.39 253.99 41.8 253.88 42.05 253.77C42.3 253.66 42.43 253.56 42.46 253.58C42.47 253.6 42.38 253.74 42.12 253.91C41.87 254.07 41.42 254.24 40.86 254.16C40.31 254.08 39.66 253.69 39.37 252.98C39.06 252.29 39.2 251.31 39.87 250.71C40.53 250.11 41.53 250.07 42.18 250.45C42.85 250.81 43.18 251.51 43.19 252.06C43.22 252.63 43 253.05 42.81 253.28C42.62 253.52 42.47 253.6 42.46 253.58Z" />
								</g>
							</g>
							<g id="Group 8902">
								<path id="Path 2702" class="shp2" d="M43.03 203.39C42.28 204.07 41.12 204.01 40.45 203.25C39.77 202.5 39.83 201.35 40.58 200.67C41.33 199.99 42.49 200.05 43.17 200.81C43.84 201.56 43.78 202.71 43.03 203.39Z" />
								<g id="Group 8901">
									<path id="Path 2703" class="shp7" d="M43.03 203.39C43.01 203.37 43.12 203.25 43.26 203C43.4 202.77 43.54 202.37 43.49 201.89C43.44 201.42 43.14 200.86 42.58 200.58C42.04 200.29 41.25 200.33 40.72 200.82C40.18 201.29 40.05 202.08 40.28 202.65C40.51 203.23 41.03 203.59 41.49 203.69C41.97 203.79 42.37 203.69 42.62 203.58C42.88 203.47 43.01 203.36 43.03 203.39C43.05 203.41 42.95 203.55 42.7 203.72C42.45 203.88 42 204.05 41.44 203.97C40.89 203.89 40.24 203.5 39.94 202.79C39.63 202.1 39.78 201.11 40.45 200.52C41.11 199.91 42.1 199.87 42.76 200.25C43.43 200.62 43.75 201.31 43.77 201.87C43.8 202.43 43.58 202.86 43.39 203.09C43.2 203.33 43.05 203.41 43.03 203.39Z" />
								</g>
							</g>
							<g id="Group 8904">
								<path id="Path 2704" class="shp2" d="M43.03 180.23C42.28 180.91 41.12 180.85 40.45 180.09C39.77 179.34 39.83 178.19 40.58 177.51C41.33 176.83 42.49 176.89 43.17 177.65C43.84 178.4 43.78 179.55 43.03 180.23Z" />
								<g id="Group 8903">
									<path id="Path 2705" class="shp7" d="M43.03 180.23C43.01 180.21 43.12 180.09 43.26 179.85C43.4 179.61 43.54 179.21 43.49 178.73C43.44 178.26 43.14 177.7 42.58 177.42C42.04 177.13 41.25 177.17 40.72 177.66C40.18 178.13 40.05 178.92 40.28 179.49C40.51 180.07 41.03 180.43 41.49 180.53C41.97 180.63 42.37 180.53 42.62 180.42C42.88 180.31 43.01 180.2 43.03 180.23C43.05 180.25 42.95 180.39 42.7 180.56C42.45 180.72 42 180.89 41.44 180.81C40.89 180.73 40.24 180.34 39.94 179.63C39.63 178.94 39.78 177.95 40.45 177.36C41.11 176.75 42.1 176.71 42.76 177.09C43.43 177.46 43.75 178.15 43.77 178.71C43.8 179.27 43.58 179.7 43.39 179.93C43.2 180.17 43.05 180.25 43.03 180.23Z" />
								</g>
							</g>
							<g id="Group 8906">
								<path id="Path 2706" class="shp2" d="M43.03 160.03C42.28 160.71 41.12 160.65 40.45 159.9C39.77 159.15 39.83 157.99 40.58 157.31C41.33 156.64 42.49 156.7 43.17 157.45C43.84 158.2 43.78 159.36 43.03 160.03Z" />
								<g id="Group 8905">
									<path id="Path 2707" class="shp7" d="M43.03 160.03C43.01 160.01 43.12 159.89 43.26 159.65C43.4 159.41 43.54 159.02 43.49 158.54C43.44 158.06 43.14 157.51 42.58 157.22C42.04 156.93 41.25 156.98 40.72 157.46C40.18 157.94 40.05 158.72 40.28 159.29C40.51 159.88 41.03 160.23 41.49 160.33C41.97 160.44 42.37 160.33 42.62 160.22C42.88 160.11 43.01 160.01 43.03 160.03C43.05 160.05 42.95 160.19 42.7 160.36C42.45 160.52 42 160.7 41.44 160.61C40.89 160.54 40.24 160.14 39.94 159.43C39.63 158.74 39.78 157.76 40.45 157.17C41.11 156.56 42.1 156.52 42.76 156.9C43.43 157.27 43.75 157.96 43.77 158.51C43.8 159.08 43.58 159.51 43.39 159.74C43.2 159.97 43.05 160.05 43.03 160.03Z" />
								</g>
							</g>
							<g id="Group 8908">
								<path id="Path 2708" class="shp2" d="M133.77 253.87C134.45 254.62 134.39 255.78 133.64 256.46C132.89 257.13 131.73 257.07 131.05 256.32C130.38 255.57 130.44 254.41 131.19 253.74C131.94 253.06 133.1 253.12 133.77 253.87Z" />
								<g id="Group 8907">
									<path id="Path 2709" class="shp7" d="M133.77 253.87C133.75 253.89 133.63 253.78 133.39 253.64C133.15 253.51 132.76 253.36 132.27 253.42C131.8 253.46 131.25 253.76 130.96 254.32C130.67 254.87 130.72 255.66 131.2 256.19C131.68 256.73 132.46 256.85 133.03 256.62C133.62 256.4 133.97 255.88 134.07 255.41C134.18 254.94 134.07 254.53 133.96 254.28C133.85 254.02 133.75 253.89 133.77 253.87C133.79 253.86 133.93 253.95 134.1 254.21C134.26 254.46 134.43 254.9 134.35 255.46C134.27 256.01 133.88 256.67 133.17 256.96C132.48 257.27 131.5 257.13 130.9 256.45C130.3 255.79 130.26 254.8 130.64 254.15C131 253.47 131.7 253.15 132.25 253.13C132.82 253.11 133.24 253.33 133.47 253.51C133.71 253.71 133.79 253.86 133.77 253.87Z" />
								</g>
							</g>
							<g id="Group 8910">
								<path id="Path 2710" class="shp2" d="M162.28 253.87C162.96 254.62 162.9 255.78 162.15 256.46C161.39 257.13 160.24 257.07 159.56 256.32C158.89 255.57 158.95 254.41 159.7 253.74C160.45 253.06 161.61 253.12 162.28 253.87Z" />
								<g id="Group 8909">
									<path id="Path 2711" class="shp7" d="M162.28 253.87C162.26 253.89 162.14 253.78 161.9 253.64C161.66 253.51 161.26 253.36 160.78 253.42C160.31 253.46 159.76 253.76 159.47 254.32C159.18 254.87 159.22 255.66 159.71 256.19C160.19 256.73 160.97 256.85 161.54 256.62C162.12 256.4 162.48 255.88 162.58 255.41C162.69 254.94 162.58 254.53 162.47 254.28C162.36 254.02 162.26 253.89 162.28 253.87C162.3 253.86 162.44 253.95 162.61 254.21C162.77 254.46 162.94 254.9 162.86 255.46C162.78 256.01 162.39 256.67 161.68 256.96C160.99 257.27 160.01 257.13 159.41 256.45C158.81 255.79 158.77 254.8 159.15 254.15C159.51 253.47 160.21 253.15 160.76 253.13C161.33 253.11 161.75 253.33 161.98 253.51C162.22 253.71 162.3 253.86 162.28 253.87Z" />
								</g>
							</g>
							<g id="Group 8912">
								<path id="Path 2712" class="shp2" d="M162.28 229.24C162.96 229.99 162.9 231.15 162.15 231.83C161.39 232.5 160.24 232.44 159.56 231.69C158.89 230.94 158.95 229.78 159.7 229.11C160.45 228.43 161.61 228.49 162.28 229.24Z" />
								<g id="Group 8911">
									<path id="Path 2713" class="shp7" d="M162.28 229.24C162.26 229.26 162.14 229.15 161.9 229.01C161.66 228.88 161.26 228.73 160.78 228.78C160.31 228.83 159.76 229.13 159.47 229.69C159.18 230.24 159.22 231.03 159.71 231.56C160.19 232.1 160.97 232.22 161.54 231.99C162.12 231.77 162.48 231.25 162.58 230.78C162.69 230.31 162.58 229.9 162.47 229.65C162.36 229.39 162.26 229.26 162.28 229.24C162.3 229.23 162.44 229.32 162.61 229.58C162.77 229.83 162.94 230.27 162.86 230.83C162.78 231.38 162.39 232.04 161.68 232.33C160.99 232.64 160.01 232.5 159.41 231.82C158.81 231.16 158.77 230.17 159.15 229.52C159.51 228.84 160.21 228.52 160.76 228.5C161.33 228.48 161.75 228.69 161.98 228.88C162.22 229.08 162.3 229.23 162.28 229.24Z" />
								</g>
							</g>
							<g id="Group 8914">
								<path id="Path 2714" class="shp2" d="M162.28 204.61C162.96 205.36 162.9 206.52 162.15 207.2C161.39 207.87 160.24 207.81 159.56 207.06C158.89 206.31 158.95 205.15 159.7 204.48C160.45 203.8 161.61 203.86 162.28 204.61Z" />
								<g id="Group 8913">
									<path id="Path 2715" class="shp7" d="M162.28 204.61C162.26 204.63 162.14 204.52 161.9 204.38C161.66 204.25 161.26 204.1 160.78 204.15C160.31 204.2 159.76 204.5 159.47 205.06C159.18 205.61 159.22 206.4 159.71 206.93C160.19 207.47 160.97 207.59 161.54 207.36C162.12 207.14 162.48 206.62 162.58 206.15C162.69 205.68 162.58 205.27 162.47 205.02C162.36 204.76 162.26 204.63 162.28 204.61C162.3 204.6 162.44 204.69 162.61 204.95C162.77 205.2 162.94 205.64 162.86 206.2C162.78 206.75 162.39 207.41 161.68 207.7C160.99 208.01 160.01 207.87 159.41 207.19C158.81 206.53 158.77 205.54 159.15 204.89C159.51 204.21 160.21 203.89 160.76 203.87C161.33 203.85 161.75 204.06 161.98 204.25C162.22 204.45 162.3 204.6 162.28 204.61Z" />
								</g>
							</g>
							<g id="Group 8916">
								<path id="Path 2716" class="shp2" d="M162.28 179.98C162.96 180.73 162.9 181.89 162.15 182.57C161.39 183.24 160.24 183.18 159.56 182.43C158.89 181.68 158.95 180.52 159.7 179.85C160.45 179.17 161.61 179.23 162.28 179.98Z" />
								<g id="Group 8915">
									<path id="Path 2717" class="shp7" d="M162.28 179.98C162.26 180 162.14 179.89 161.9 179.75C161.66 179.62 161.26 179.47 160.78 179.52C160.31 179.57 159.76 179.87 159.47 180.43C159.18 180.97 159.22 181.77 159.71 182.3C160.19 182.83 160.97 182.96 161.54 182.73C162.12 182.5 162.48 181.98 162.58 181.52C162.69 181.05 162.58 180.64 162.47 180.39C162.36 180.13 162.26 180 162.28 179.98C162.3 179.97 162.44 180.06 162.61 180.31C162.77 180.56 162.94 181.01 162.86 181.57C162.78 182.12 162.39 182.77 161.68 183.07C160.99 183.38 160.01 183.24 159.41 182.56C158.81 181.9 158.77 180.91 159.15 180.26C159.51 179.58 160.21 179.26 160.76 179.24C161.33 179.22 161.75 179.43 161.98 179.62C162.22 179.82 162.3 179.97 162.28 179.98Z" />
								</g>
							</g>
							<g id="Group 8918">
								<path id="Path 2718" class="shp2" d="M141.18 156.61C141.86 157.36 141.8 158.52 141.04 159.19C140.29 159.87 139.14 159.81 138.46 159.06C137.78 158.31 137.84 157.15 138.6 156.47C139.35 155.8 140.5 155.86 141.18 156.61Z" />
								<g id="Group 8917">
									<path id="Path 2719" class="shp7" d="M141.18 156.61C141.16 156.63 141.04 156.52 140.8 156.38C140.56 156.24 140.16 156.09 139.68 156.15C139.21 156.2 138.65 156.5 138.37 157.06C138.08 157.6 138.12 158.39 138.61 158.92C139.08 159.46 139.87 159.59 140.44 159.36C141.02 159.13 141.38 158.61 141.48 158.15C141.58 157.67 141.48 157.27 141.37 157.02C141.26 156.76 141.15 156.63 141.18 156.61C141.19 156.59 141.34 156.69 141.51 156.94C141.67 157.19 141.84 157.64 141.76 158.2C141.68 158.75 141.29 159.4 140.58 159.7C139.89 160.01 138.9 159.86 138.31 159.19C137.7 158.53 137.66 157.54 138.04 156.88C138.41 156.21 139.1 155.89 139.66 155.87C140.22 155.84 140.65 156.06 140.88 156.25C141.12 156.44 141.2 156.59 141.18 156.61Z" />
								</g>
							</g>
							<g id="Group 8920">
								<path id="Path 2720" class="shp2" d="M117.58 156.61C118.25 157.36 118.19 158.52 117.44 159.19C116.69 159.87 115.53 159.81 114.86 159.06C114.18 158.31 114.24 157.15 114.99 156.47C115.74 155.8 116.9 155.86 117.58 156.61Z" />
								<g id="Group 8919">
									<path id="Path 2721" class="shp7" d="M117.58 156.61C117.55 156.63 117.43 156.52 117.19 156.38C116.95 156.24 116.56 156.09 116.08 156.15C115.6 156.2 115.05 156.5 114.77 157.06C114.47 157.6 114.52 158.39 115 158.92C115.48 159.46 116.26 159.59 116.83 159.36C117.42 159.13 117.78 158.61 117.87 158.15C117.98 157.67 117.87 157.27 117.76 157.02C117.65 156.76 117.55 156.63 117.58 156.61C117.59 156.59 117.73 156.69 117.9 156.94C118.06 157.19 118.24 157.64 118.15 158.2C118.08 158.75 117.68 159.4 116.97 159.7C116.28 160.01 115.3 159.86 114.71 159.19C114.1 158.53 114.06 157.54 114.44 156.88C114.81 156.21 115.5 155.89 116.05 155.87C116.62 155.84 117.05 156.06 117.28 156.25C117.52 156.44 117.59 156.59 117.58 156.61Z" />
								</g>
							</g>
							<g id="Group 8922">
								<path id="Path 2722" class="shp2" d="M92.74 156.61C93.42 157.36 93.36 158.52 92.61 159.19C91.86 159.87 90.7 159.81 90.02 159.06C89.35 158.31 89.41 157.15 90.16 156.47C90.91 155.8 92.07 155.86 92.74 156.61Z" />
								<g id="Group 8921">
									<path id="Path 2723" class="shp7" d="M92.74 156.61C92.72 156.63 92.6 156.52 92.36 156.38C92.12 156.24 91.73 156.09 91.24 156.15C90.77 156.2 90.22 156.5 89.93 157.06C89.64 157.6 89.69 158.39 90.17 158.92C90.65 159.46 91.43 159.59 92 159.36C92.59 159.13 92.94 158.61 93.04 158.15C93.15 157.67 93.04 157.27 92.93 157.02C92.82 156.76 92.72 156.63 92.74 156.61C92.76 156.59 92.9 156.69 93.07 156.94C93.23 157.19 93.4 157.64 93.32 158.2C93.24 158.75 92.85 159.4 92.14 159.7C91.45 160.01 90.47 159.86 89.87 159.19C89.27 158.53 89.23 157.54 89.61 156.88C89.98 156.21 90.67 155.89 91.22 155.87C91.79 155.84 92.21 156.06 92.45 156.25C92.68 156.44 92.76 156.59 92.74 156.61Z" />
								</g>
							</g>
							<g id="Group 8924">
								<path id="Path 2724" class="shp2" d="M66.54 156.61C67.22 157.36 67.16 158.52 66.41 159.19C65.65 159.87 64.5 159.81 63.82 159.06C63.14 158.31 63.21 157.15 63.96 156.47C64.71 155.8 65.86 155.86 66.54 156.61Z" />
								<g id="Group 8923">
									<path id="Path 2725" class="shp7" d="M66.54 156.61C66.52 156.63 66.4 156.52 66.16 156.38C65.92 156.24 65.52 156.09 65.04 156.15C64.57 156.2 64.01 156.5 63.73 157.06C63.44 157.6 63.48 158.39 63.97 158.92C64.45 159.46 65.23 159.59 65.8 159.36C66.38 159.13 66.74 158.61 66.84 158.15C66.94 157.67 66.84 157.27 66.73 157.02C66.62 156.76 66.52 156.63 66.54 156.61C66.56 156.59 66.7 156.69 66.87 156.94C67.03 157.19 67.2 157.64 67.12 158.2C67.04 158.75 66.65 159.4 65.94 159.7C65.25 160.01 64.27 159.86 63.67 159.19C63.06 158.53 63.02 157.54 63.4 156.88C63.77 156.21 64.46 155.89 65.02 155.87C65.58 155.84 66.01 156.06 66.24 156.25C66.48 156.44 66.56 156.59 66.54 156.61Z" />
								</g>
							</g>
							<g id="Group 8926">
								<path id="Path 2726" class="shp2" d="M107.24 253.87C107.92 254.62 107.86 255.78 107.11 256.46C106.36 257.13 105.2 257.07 104.52 256.32C103.85 255.57 103.91 254.41 104.66 253.74C105.41 253.06 106.57 253.12 107.24 253.87Z" />
								<g id="Group 8925">
									<path id="Path 2727" class="shp7" d="M107.24 253.87C107.22 253.89 107.1 253.78 106.86 253.64C106.62 253.51 106.23 253.36 105.75 253.42C105.27 253.46 104.72 253.76 104.43 254.32C104.14 254.87 104.19 255.66 104.67 256.19C105.15 256.73 105.93 256.85 106.5 256.62C107.09 256.4 107.44 255.88 107.54 255.41C107.65 254.94 107.54 254.53 107.43 254.28C107.32 254.02 107.22 253.89 107.24 253.87C107.26 253.86 107.4 253.95 107.57 254.21C107.73 254.46 107.91 254.9 107.82 255.46C107.75 256.01 107.35 256.67 106.64 256.96C105.95 257.27 104.97 257.13 104.37 256.45C103.77 255.79 103.73 254.8 104.11 254.15C104.48 253.47 105.17 253.15 105.72 253.13C106.29 253.11 106.71 253.33 106.95 253.51C107.18 253.71 107.26 253.86 107.24 253.87Z" />
								</g>
							</g>
							<g id="Group 8928">
								<path id="Path 2728" class="shp2" d="M83.74 253.87C84.41 254.62 84.35 255.78 83.6 256.46C82.85 257.13 81.69 257.07 81.02 256.32C80.34 255.57 80.4 254.41 81.15 253.74C81.9 253.06 83.06 253.12 83.74 253.87Z" />
								<g id="Group 8927">
									<path id="Path 2729" class="shp7" d="M83.74 253.87C83.71 253.89 83.59 253.78 83.35 253.64C83.11 253.51 82.72 253.36 82.24 253.42C81.76 253.46 81.21 253.76 80.93 254.32C80.63 254.87 80.68 255.66 81.17 256.19C81.64 256.73 82.42 256.85 82.99 256.62C83.58 256.4 83.94 255.88 84.03 255.41C84.14 254.94 84.03 254.53 83.92 254.28C83.81 254.02 83.71 253.89 83.74 253.87C83.75 253.86 83.9 253.95 84.06 254.21C84.22 254.46 84.4 254.9 84.31 255.46C84.24 256.01 83.84 256.67 83.13 256.96C82.44 257.27 81.46 257.13 80.87 256.45C80.26 255.79 80.22 254.8 80.6 254.15C80.97 253.47 81.66 253.15 82.21 253.13C82.78 253.11 83.21 253.33 83.44 253.51C83.68 253.71 83.75 253.86 83.74 253.87Z" />
								</g>
							</g>
							<g id="Group 8930">
								<path id="Path 2730" class="shp2" d="M62.06 253.3C62.74 254.05 62.67 255.2 61.92 255.88C61.17 256.56 60.01 256.5 59.34 255.75C58.66 254.99 58.72 253.84 59.47 253.16C60.23 252.48 61.38 252.55 62.06 253.3Z" />
								<g id="Group 8929">
									<path id="Path 2731" class="shp7" d="M62.06 253.3C62.04 253.32 61.92 253.21 61.67 253.07C61.43 252.93 61.04 252.78 60.56 252.84C60.09 252.89 59.53 253.19 59.25 253.75C58.96 254.29 59 255.08 59.49 255.61C59.96 256.15 60.75 256.28 61.32 256.04C61.9 255.82 62.26 255.3 62.36 254.83C62.46 254.36 62.36 253.96 62.25 253.7C62.13 253.45 62.03 253.32 62.06 253.3C62.07 253.28 62.22 253.37 62.38 253.63C62.55 253.88 62.72 254.33 62.63 254.89C62.56 255.44 62.17 256.09 61.45 256.39C60.77 256.7 59.78 256.55 59.19 255.88C58.58 255.22 58.54 254.23 58.92 253.57C59.29 252.9 59.98 252.57 60.54 252.56C61.1 252.53 61.53 252.75 61.76 252.94C62 253.13 62.08 253.28 62.06 253.3Z" />
								</g>
							</g>
						</g>
						<g id="Group 8932">
							<path id="Path 2732" class="shp9" d="M162.23 151.66C162.23 151.77 135.27 151.86 102.02 151.86C68.76 151.86 41.81 151.77 41.81 151.66C41.81 151.55 68.76 151.46 102.02 151.46C135.27 151.46 162.23 151.55 162.23 151.66Z" />
						</g>
					</g>
					<g id="Group 8965">
						<path id="Path 2733" class="shp6" d="M105.44 30.17C103.98 31.7 21.56 140.26 21.56 140.26L35.18 150.88L118.88 37.59L105.44 30.17Z" />
						<path id="Path 2734" class="shp6" d="M21.64 140.26C21.64 140.26 12.73 96.53 37.28 65.23C67.72 26.42 105.57 30.27 105.57 30.27L106.1 37.72L21.64 140.26Z" />
						<path id="Path 2735" class="shp8" d="M31.55 135.21L104.45 39.88C104.45 39.88 70.22 41.32 48.52 69.71C24.16 101.58 31.55 135.21 31.55 135.21Z" />
						<g id="Group 8934">
							<path id="Path 2736" class="shp9" d="M116.22 40C116.22 40 116.16 40.11 116.03 40.3C115.89 40.51 115.7 40.79 115.46 41.16C114.93 41.92 114.18 43.02 113.21 44.43C111.26 47.26 108.41 51.34 104.86 56.37C97.76 66.43 87.84 80.23 76.63 95.3C65.42 110.37 55.06 123.85 47.47 133.54C43.67 138.39 40.59 142.3 38.43 144.98C37.36 146.31 36.53 147.35 35.95 148.07C35.67 148.41 35.45 148.67 35.3 148.86C35.15 149.04 35.06 149.13 35.06 149.13C35.06 149.13 35.12 149.02 35.26 148.84C35.41 148.64 35.62 148.37 35.89 148.02C36.45 147.29 37.27 146.23 38.31 144.88C40.43 142.15 43.48 138.22 47.24 133.37C54.77 123.64 65.1 110.13 76.31 95.06C87.51 79.99 97.47 66.22 104.63 56.21C108.19 51.21 111.08 47.15 113.09 44.34C114.08 42.95 114.85 41.86 115.39 41.11C115.65 40.76 115.85 40.48 116 40.28C116.14 40.09 116.22 40 116.22 40Z" />
						</g>
						<g id="Group 8935">
							<path id="Path 2737" class="shp7" d="M31.55 135.21C31.55 135.22 31.53 135.16 31.51 135.05L31.41 134.57C31.32 134.14 31.21 133.51 31.09 132.67C30.85 130.99 30.57 128.49 30.46 125.27C30.26 118.84 30.66 109.37 33.87 98.26C35.48 92.72 37.81 86.8 41.07 80.84C42.68 77.85 44.59 74.9 46.67 71.94C48.75 68.98 51.13 66.1 53.77 63.34C59.06 57.83 65.53 52.92 72.87 49.03C80.22 45.15 88.43 42.25 97.09 40.64C99.59 40.18 102.08 39.82 104.44 39.68L104.88 39.65L104.61 40C63.88 93.07 32.85 133.52 31.55 135.21C32.84 133.52 63.74 92.97 104.29 39.76L104.46 40.08C102.14 40.22 99.65 40.58 97.17 41.03C88.54 42.63 80.37 45.53 73.06 49.38C65.74 53.24 59.3 58.12 54.04 63.6C51.4 66.34 49.03 69.19 46.96 72.14C44.88 75.08 42.97 78.02 41.37 81C38.1 86.93 35.76 92.82 34.14 98.34C30.91 109.41 30.46 118.85 30.62 125.26C30.7 128.48 30.96 130.97 31.17 132.66C31.28 133.5 31.38 134.14 31.45 134.56L31.53 135.05L31.55 135.21Z" />
						</g>
						<g id="Group 8936">
							<path id="Path 2738" class="shp7" d="M93.52 41.58C93.61 41.65 79.57 59.65 62.17 81.79C44.76 103.93 30.58 121.82 30.5 121.75C30.41 121.69 44.45 103.69 61.85 81.54C79.26 59.41 93.44 41.51 93.52 41.58Z" />
						</g>
						<g id="Group 8937">
							<path id="Path 2739" class="shp7" d="M76.2 47.58C76.29 47.65 66.8 59.64 55.02 74.36C43.23 89.09 33.6 100.97 33.51 100.9C33.43 100.83 42.91 88.84 54.7 74.11C66.49 59.39 76.12 47.51 76.2 47.58Z" />
						</g>
						<g id="Group 8939">
							<path id="Path 2740" class="shp2" d="M26.81 119.91C26.81 120.92 25.99 121.74 24.98 121.74C23.97 121.74 23.15 120.92 23.15 119.91C23.15 118.9 23.97 118.08 24.98 118.08C25.99 118.08 26.81 118.9 26.81 119.91Z" />
							<g id="Group 8938">
								<path id="Path 2741" class="shp7" d="M26.81 119.91C26.77 119.91 26.76 119.75 26.68 119.48C26.59 119.22 26.4 118.85 26 118.57C25.62 118.28 25 118.14 24.42 118.36C23.84 118.57 23.34 119.19 23.35 119.91C23.34 120.63 23.84 121.25 24.42 121.45C25 121.68 25.62 121.53 26 121.25C26.4 120.97 26.59 120.6 26.68 120.34C26.76 120.07 26.77 119.91 26.81 119.91C26.83 119.91 26.87 120.07 26.83 120.37C26.78 120.67 26.61 121.12 26.17 121.48C25.75 121.84 25.02 122.06 24.29 121.8C23.57 121.57 22.94 120.81 22.95 119.91C22.94 119.01 23.57 118.25 24.29 118.02C25.02 117.76 25.75 117.98 26.17 118.34C26.61 118.7 26.78 119.15 26.83 119.44C26.87 119.74 26.83 119.91 26.81 119.91Z" />
							</g>
						</g>
						<g id="Group 8941">
							<path id="Path 2742" class="shp2" d="M30.18 94.56C30.18 95.58 29.36 96.39 28.35 96.39C27.34 96.39 26.52 95.58 26.52 94.56C26.52 93.55 27.34 92.73 28.35 92.73C29.36 92.73 30.18 93.55 30.18 94.56Z" />
							<g id="Group 8940">
								<path id="Path 2743" class="shp7" d="M30.18 94.56C30.15 94.57 30.14 94.4 30.05 94.14C29.96 93.88 29.77 93.5 29.37 93.22C28.99 92.94 28.38 92.79 27.79 93.02C27.21 93.23 26.71 93.85 26.72 94.56C26.71 95.28 27.21 95.9 27.79 96.11C28.38 96.34 28.99 96.19 29.37 95.91C29.77 95.63 29.96 95.25 30.05 94.99C30.14 94.73 30.15 94.56 30.18 94.56C30.2 94.56 30.25 94.73 30.2 95.03C30.15 95.33 29.98 95.77 29.54 96.13C29.12 96.49 28.39 96.71 27.66 96.46C26.94 96.23 26.31 95.46 26.32 94.56C26.31 93.67 26.94 92.9 27.66 92.67C28.39 92.42 29.12 92.64 29.54 93C29.98 93.36 30.15 93.8 30.2 94.1C30.25 94.4 30.2 94.57 30.18 94.56Z" />
							</g>
						</g>
						<g id="Group 8943">
							<path id="Path 2744" class="shp2" d="M39.77 73.44C39.02 74.12 37.86 74.06 37.19 73.31C36.51 72.56 36.57 71.4 37.32 70.72C38.07 70.05 39.23 70.11 39.91 70.86C40.58 71.61 40.52 72.77 39.77 73.44Z" />
							<g id="Group 8942">
								<path id="Path 2745" class="shp7" d="M39.77 73.44C39.75 73.42 39.86 73.3 40 73.06C40.13 72.82 40.28 72.43 40.23 71.95C40.18 71.47 39.88 70.92 39.32 70.63C38.78 70.34 37.99 70.39 37.46 70.87C36.92 71.35 36.79 72.13 37.02 72.7C37.25 73.29 37.77 73.64 38.23 73.74C38.7 73.85 39.11 73.74 39.36 73.63C39.62 73.52 39.75 73.42 39.77 73.44C39.79 73.46 39.69 73.6 39.44 73.77C39.19 73.93 38.74 74.11 38.18 74.02C37.63 73.95 36.98 73.55 36.68 72.84C36.37 72.15 36.51 71.17 37.19 70.58C37.85 69.97 38.84 69.93 39.49 70.31C40.17 70.68 40.49 71.37 40.51 71.92C40.53 72.49 40.32 72.91 40.13 73.15C39.94 73.38 39.78 73.46 39.77 73.44Z" />
							</g>
						</g>
						<g id="Group 8945">
							<path id="Path 2746" class="shp2" d="M58.25 54.58C57.5 55.26 56.34 55.2 55.66 54.45C54.99 53.7 55.05 52.54 55.8 51.86C56.55 51.19 57.71 51.25 58.38 52C59.06 52.75 59 53.91 58.25 54.58Z" />
							<g id="Group 8944">
								<path id="Path 2747" class="shp7" d="M58.25 54.58C58.23 54.56 58.34 54.44 58.48 54.2C58.61 53.96 58.76 53.57 58.7 53.09C58.66 52.61 58.36 52.06 57.8 51.77C57.25 51.48 56.46 51.53 55.93 52.01C55.39 52.49 55.27 53.27 55.5 53.84C55.72 54.43 56.24 54.78 56.71 54.88C57.18 54.99 57.59 54.88 57.84 54.77C58.1 54.66 58.23 54.56 58.25 54.58C58.26 54.6 58.17 54.74 57.91 54.91C57.66 55.07 57.22 55.25 56.66 55.16C56.11 55.09 55.45 54.69 55.16 53.98C54.85 53.29 54.99 52.31 55.67 51.71C56.33 51.11 57.32 51.07 57.97 51.45C58.65 51.82 58.97 52.51 58.99 53.06C59.01 53.63 58.79 54.05 58.61 54.29C58.41 54.52 58.26 54.6 58.25 54.58Z" />
							</g>
						</g>
						<g id="Group 8947">
							<path id="Path 2748" class="shp2" d="M77.43 42.94C76.68 43.62 75.52 43.56 74.84 42.81C74.17 42.05 74.23 40.9 74.98 40.22C75.73 39.55 76.89 39.61 77.57 40.36C78.24 41.11 78.18 42.27 77.43 42.94Z" />
							<g id="Group 8946">
								<path id="Path 2749" class="shp7" d="M77.43 42.94C77.41 42.92 77.52 42.8 77.66 42.56C77.79 42.32 77.94 41.92 77.89 41.44C77.84 40.97 77.54 40.42 76.98 40.13C76.44 39.84 75.64 39.88 75.11 40.37C74.58 40.85 74.45 41.63 74.68 42.2C74.9 42.78 75.43 43.14 75.89 43.24C76.36 43.35 76.77 43.24 77.02 43.13C77.28 43.02 77.41 42.92 77.43 42.94C77.44 42.96 77.35 43.1 77.1 43.27C76.84 43.43 76.4 43.6 75.84 43.52C75.29 43.44 74.64 43.05 74.34 42.34C74.03 41.65 74.17 40.67 74.85 40.07C75.51 39.47 76.5 39.43 77.15 39.81C77.83 40.17 78.15 40.87 78.17 41.42C78.19 41.99 77.98 42.41 77.79 42.64C77.6 42.88 77.44 42.96 77.43 42.94Z" />
							</g>
						</g>
						<g id="Group 8949">
							<path id="Path 2750" class="shp2" d="M98.81 36.47C98.06 37.14 96.91 37.08 96.23 36.33C95.55 35.58 95.62 34.42 96.37 33.74C97.12 33.07 98.27 33.13 98.95 33.88C99.63 34.63 99.57 35.79 98.81 36.47Z" />
							<g id="Group 8948">
								<path id="Path 2751" class="shp7" d="M98.81 36.47C98.79 36.44 98.91 36.32 99.04 36.08C99.18 35.84 99.33 35.45 99.27 34.97C99.22 34.49 98.92 33.94 98.36 33.65C97.82 33.36 97.03 33.41 96.5 33.89C95.96 34.37 95.83 35.15 96.07 35.72C96.29 36.31 96.81 36.67 97.28 36.76C97.75 36.87 98.16 36.76 98.41 36.65C98.66 36.54 98.79 36.44 98.81 36.47C98.83 36.48 98.74 36.62 98.48 36.79C98.23 36.95 97.78 37.13 97.22 37.04C96.67 36.97 96.02 36.57 95.72 35.86C95.42 35.17 95.56 34.19 96.23 33.6C96.89 32.99 97.89 32.95 98.54 33.33C99.21 33.7 99.54 34.39 99.55 34.94C99.58 35.51 99.36 35.94 99.17 36.17C98.98 36.4 98.83 36.48 98.81 36.47Z" />
							</g>
						</g>
						<g id="Group 8951">
							<path id="Path 2752" class="shp2" d="M105.67 48.94C104.92 49.62 103.76 49.56 103.09 48.8C102.41 48.05 102.47 46.9 103.22 46.22C103.98 45.54 105.13 45.6 105.81 46.36C106.49 47.11 106.42 48.26 105.67 48.94Z" />
							<g id="Group 8950">
								<path id="Path 2753" class="shp7" d="M105.67 48.94C105.65 48.92 105.76 48.8 105.9 48.55C106.04 48.31 106.19 47.92 106.13 47.44C106.08 46.97 105.78 46.41 105.22 46.13C104.68 45.84 103.89 45.88 103.36 46.37C102.82 46.84 102.69 47.63 102.93 48.2C103.15 48.78 103.67 49.14 104.13 49.24C104.61 49.34 105.01 49.24 105.27 49.13C105.52 49.02 105.65 48.91 105.67 48.94C105.69 48.95 105.59 49.1 105.34 49.27C105.09 49.43 104.64 49.6 104.08 49.52C103.53 49.44 102.88 49.05 102.58 48.34C102.27 47.65 102.42 46.66 103.09 46.07C103.75 45.46 104.74 45.42 105.4 45.8C106.07 46.17 106.4 46.86 106.41 47.42C106.44 47.98 106.22 48.41 106.03 48.64C105.84 48.88 105.69 48.96 105.67 48.94Z" />
							</g>
						</g>
						<g id="Group 8953">
							<path id="Path 2754" class="shp2" d="M94.25 64.67C93.5 65.35 92.34 65.29 91.66 64.54C90.99 63.79 91.05 62.63 91.8 61.95C92.55 61.28 93.71 61.34 94.38 62.09C95.06 62.84 95 64 94.25 64.67Z" />
							<g id="Group 8952">
								<path id="Path 2755" class="shp7" d="M94.25 64.67C94.22 64.65 94.34 64.53 94.48 64.29C94.61 64.05 94.76 63.66 94.7 63.18C94.66 62.7 94.36 62.15 93.8 61.86C93.25 61.57 92.46 61.62 91.93 62.1C91.39 62.58 91.27 63.36 91.5 63.93C91.72 64.52 92.24 64.87 92.71 64.97C93.18 65.08 93.59 64.97 93.84 64.86C94.1 64.75 94.23 64.65 94.25 64.67C94.26 64.69 94.17 64.83 93.91 65C93.66 65.16 93.22 65.33 92.66 65.25C92.11 65.18 91.45 64.78 91.16 64.07C90.85 63.38 90.99 62.4 91.67 61.8C92.33 61.2 93.32 61.16 93.97 61.54C94.65 61.91 94.97 62.6 94.99 63.15C95.01 63.72 94.79 64.14 94.61 64.38C94.41 64.61 94.26 64.69 94.25 64.67Z" />
							</g>
						</g>
						<g id="Group 8955">
							<path id="Path 2756" class="shp2" d="M80.38 82.76C79.63 83.44 78.47 83.38 77.79 82.63C77.12 81.88 77.18 80.72 77.93 80.04C78.68 79.37 79.84 79.43 80.51 80.18C81.19 80.93 81.13 82.09 80.38 82.76Z" />
							<g id="Group 8954">
								<path id="Path 2757" class="shp7" d="M80.38 82.76C80.35 82.74 80.47 82.62 80.61 82.38C80.74 82.14 80.89 81.75 80.83 81.27C80.79 80.79 80.49 80.24 79.93 79.95C79.38 79.66 78.59 79.71 78.06 80.19C77.52 80.67 77.4 81.45 77.63 82.02C77.85 82.61 78.37 82.96 78.84 83.06C79.31 83.17 79.72 83.06 79.97 82.95C80.23 82.84 80.36 82.74 80.38 82.76C80.39 82.78 80.3 82.92 80.04 83.09C79.79 83.25 79.35 83.43 78.79 83.34C78.24 83.27 77.58 82.87 77.29 82.16C76.98 81.47 77.12 80.49 77.79 79.9C78.46 79.29 79.45 79.25 80.1 79.63C80.78 80 81.1 80.69 81.12 81.24C81.14 81.81 80.92 82.24 80.74 82.47C80.54 82.7 80.39 82.78 80.38 82.76Z" />
							</g>
						</g>
						<g id="Group 8957">
							<path id="Path 2758" class="shp2" d="M62.67 106.94C61.91 107.62 60.76 107.56 60.08 106.8C59.4 106.05 59.47 104.89 60.22 104.22C60.97 103.54 62.13 103.6 62.8 104.35C63.48 105.11 63.42 106.26 62.67 106.94Z" />
							<g id="Group 8956">
								<path id="Path 2759" class="shp7" d="M62.67 106.94C62.64 106.92 62.76 106.8 62.89 106.55C63.03 106.31 63.18 105.92 63.12 105.44C63.08 104.97 62.77 104.41 62.22 104.13C61.67 103.84 60.88 103.88 60.35 104.37C59.81 104.84 59.68 105.63 59.92 106.2C60.14 106.78 60.66 107.14 61.13 107.24C61.6 107.34 62.01 107.24 62.26 107.13C62.52 107.02 62.64 106.91 62.67 106.94C62.68 106.95 62.59 107.1 62.33 107.27C62.08 107.43 61.63 107.6 61.07 107.51C60.52 107.44 59.87 107.05 59.58 106.34C59.27 105.65 59.41 104.66 60.08 104.07C60.74 103.46 61.74 103.42 62.39 103.8C63.06 104.17 63.39 104.86 63.4 105.42C63.43 105.98 63.21 106.41 63.02 106.64C62.83 106.88 62.68 106.96 62.67 106.94Z" />
							</g>
						</g>
						<g id="Group 8959">
							<path id="Path 2760" class="shp2" d="M45.45 128.55C44.7 129.23 43.54 129.17 42.86 128.42C42.19 127.67 42.25 126.51 43 125.83C43.75 125.16 44.91 125.22 45.58 125.97C46.26 126.72 46.2 127.88 45.45 128.55Z" />
							<g id="Group 8958">
								<path id="Path 2761" class="shp7" d="M45.45 128.55C45.43 128.53 45.54 128.41 45.68 128.17C45.81 127.93 45.96 127.54 45.91 127.06C45.86 126.58 45.56 126.03 45 125.74C44.46 125.45 43.66 125.5 43.13 125.98C42.6 126.46 42.47 127.24 42.7 127.81C42.92 128.4 43.45 128.75 43.91 128.85C44.38 128.96 44.79 128.85 45.04 128.74C45.3 128.63 45.43 128.53 45.45 128.55C45.46 128.57 45.37 128.71 45.12 128.88C44.86 129.04 44.42 129.21 43.86 129.13C43.31 129.06 42.65 128.66 42.36 127.95C42.05 127.26 42.19 126.28 42.87 125.68C43.53 125.08 44.52 125.04 45.17 125.42C45.85 125.79 46.17 126.48 46.19 127.03C46.21 127.6 46 128.02 45.81 128.26C45.61 128.49 45.46 128.57 45.45 128.55Z" />
							</g>
						</g>
						<g id="Group 8960">
							<path id="Path 2762" class="shp9" d="M66.09 62.57C66.17 62.64 62.83 67.09 58.63 72.51C54.42 77.93 50.94 82.27 50.85 82.21C50.77 82.14 54.11 77.69 58.31 72.27C62.52 66.85 66 62.51 66.09 62.57Z" />
						</g>
						<g id="Group 8961">
							<path id="Path 2763" class="shp9" d="M71.24 56.2C71.33 56.27 70.73 57.18 69.91 58.22C69.09 59.26 68.35 60.05 68.26 59.99C68.18 59.92 68.77 59.02 69.59 57.97C70.42 56.93 71.15 56.14 71.24 56.2Z" />
						</g>
						<g id="Group 8962">
							<path id="Path 2764" class="shp9" d="M92.4 45.2C92.48 45.27 88.96 49.78 84.53 55.26C80.09 60.75 76.43 65.14 76.34 65.07C76.26 65 79.78 60.5 84.21 55.01C88.65 49.53 92.31 45.13 92.4 45.2Z" />
						</g>
						<g id="Group 8963">
							<path id="Path 2765" class="shp9" d="M75.18 80.41C75.27 80.48 70.83 86.17 65.26 93.12C59.7 100.07 55.12 105.65 55.03 105.58C54.95 105.51 59.39 99.82 64.95 92.87C70.51 85.92 75.09 80.35 75.18 80.41Z" />
						</g>
						<g id="Group 8964">
							<path id="Path 2766" class="shp9" d="M48.91 66.72C48.93 66.74 48.68 67.03 48.22 67.53C47.75 68.03 47.09 68.77 46.29 69.7C44.7 71.56 42.63 74.26 40.7 77.46C38.78 80.66 37.37 83.75 36.48 86.03C36.03 87.17 35.68 88.1 35.46 88.75C35.23 89.4 35.1 89.76 35.07 89.75C35.04 89.74 35.13 89.37 35.31 88.71C35.49 88.04 35.79 87.09 36.21 85.93C37.04 83.61 38.42 80.48 40.36 77.25C42.3 74.02 44.42 71.34 46.08 69.52C46.9 68.6 47.6 67.89 48.1 67.42C48.61 66.95 48.89 66.7 48.91 66.72Z" />
						</g>
					</g>
				</g>
				<g id="Character">
					<g id="Group 9108">
						<g id="Group 9014">
							<g id="Group 8999">
								<g id="Group 8969">
									<g id="Group 8968">
										<g id="Group 8967">
											<g id="Group 8966">
												<path id="Path 2767" class="shp10" d="M277.15 248.86L298.13 242.97C298.13 242.97 311.17 262.32 315.15 261.61L305.19 220.51L272.12 228.35L277.15 248.86Z" />
											</g>
										</g>
									</g>
								</g>
								<g id="Group 8974" style="opacity: 0.6">
									<g id="Group 8973">
										<g id="Group 8972">
											<g id="Group 8971">
												<g id="Group 8970">
													<path id="Path 2768" class="shp9" d="M293.27 230.69C293.3 229.84 294.06 229.08 294.91 229.07C295.75 229.06 296.54 229.83 296.53 230.67C296.52 231.52 295.63 232.47 294.79 232.39C293.95 232.3 293.07 231.35 293.29 230.53" />
												</g>
											</g>
										</g>
									</g>
								</g>
								<g id="Group 8978" style="opacity: 0.6">
									<g id="Group 8977">
										<g id="Group 8976">
											<g id="Group 8975">
												<path id="Path 2769" class="shp9" d="M305.19 220.51L301.89 221.43L312.68 260.49C312.68 260.49 313.91 262.13 315.15 261.61L305.19 220.51Z" />
											</g>
										</g>
									</g>
								</g>
								<g id="Group 8983">
									<g id="Group 8982">
										<g id="Group 8981">
											<g id="Group 8980">
												<g id="Group 8979">
													<path id="Path 2770" class="shp7" d="M298.08 243.69C298.28 243.63 298.13 242.61 298.54 241.46C298.91 240.31 299.66 239.59 299.54 239.42C299.45 239.25 298.32 239.84 297.86 241.23C297.38 242.62 297.91 243.78 298.08 243.69Z" />
												</g>
											</g>
										</g>
									</g>
								</g>
								<g id="Group 8988">
									<g id="Group 8987">
										<g id="Group 8986">
											<g id="Group 8985">
												<g id="Group 8984">
													<path id="Path 2771" class="shp7" d="M300.91 247.57C301.12 247.57 301.25 246.61 301.93 245.73C302.59 244.82 303.47 244.42 303.41 244.23C303.4 244.03 302.19 244.18 301.36 245.3C300.52 246.41 300.72 247.61 300.91 247.57Z" />
												</g>
											</g>
										</g>
									</g>
								</g>
								<g id="Group 8993">
									<g id="Group 8992">
										<g id="Group 8991">
											<g id="Group 8990">
												<g id="Group 8989">
													<path id="Path 2772" class="shp7" d="M306.67 248.76C306.66 248.57 305.59 248.54 304.62 249.32C303.64 250.09 303.44 251.14 303.62 251.19C303.82 251.26 304.26 250.51 305.07 249.88C305.86 249.23 306.69 248.97 306.67 248.76Z" />
												</g>
											</g>
										</g>
									</g>
								</g>
								<g id="Group 8998">
									<g id="Group 8997">
										<g id="Group 8996">
											<g id="Group 8995">
												<g id="Group 8994">
													<path id="Path 2773" class="shp7" d="M293.15 244.5C293.32 244.37 292.82 243.52 292.62 242.36C292.4 241.22 292.56 240.24 292.37 240.18C292.19 240.1 291.66 241.14 291.91 242.49C292.15 243.85 293.02 244.64 293.15 244.5Z" />
												</g>
											</g>
										</g>
									</g>
								</g>
							</g>
							<g id="Group 9003" style="opacity: 0.302">
								<g id="Group 9002">
									<g id="Group 9001">
										<g id="Group 9000">
											<path id="Path 2774" class="shp11" d="M281.3 247.69L285.04 246.65L279.96 226.49L275.6 227.51L281.3 247.69Z" />
										</g>
									</g>
								</g>
							</g>
							<g id="Group 9008">
								<g id="Group 9007">
									<g id="Group 9006">
										<g id="Group 9005">
											<g id="Group 9004">
												<path id="Path 2775" class="shp7" d="M288.9 245.61C288.98 245.59 288.91 244.77 288.39 243.55C288.13 242.95 287.74 242.26 287.2 241.56C286.94 241.21 286.63 240.87 286.29 240.53C286.12 240.37 285.95 240.18 285.66 240.03C285.39 239.85 284.83 239.86 284.57 240.19C284.3 240.48 284.25 240.89 284.32 241.18C284.38 241.49 284.5 241.72 284.61 241.93C284.84 242.36 285.09 242.75 285.36 243.1C285.91 243.8 286.52 244.33 287.07 244.7C288.18 245.44 289.01 245.58 289.03 245.51C289.08 245.4 288.34 245.09 287.37 244.29C286.89 243.9 286.37 243.37 285.89 242.71C285.66 242.38 285.44 242.01 285.24 241.61C285.02 241.21 284.93 240.84 285.1 240.68C285.16 240.62 285.19 240.61 285.34 240.67C285.48 240.73 285.64 240.88 285.8 241.04C286.13 241.35 286.42 241.66 286.69 241.98C287.22 242.61 287.63 243.23 287.93 243.78C288.55 244.88 288.79 245.64 288.9 245.61Z" />
											</g>
										</g>
									</g>
								</g>
							</g>
							<g id="Group 9013">
								<g id="Group 9012">
									<g id="Group 9011">
										<g id="Group 9010">
											<g id="Group 9009">
												<path id="Path 2776" class="shp7" d="M289.12 245.28C289.14 245.2 288.32 244.98 287 245.22C286.35 245.34 285.58 245.6 284.82 246.05C284.43 246.27 284.05 246.55 283.69 246.87C283.35 247.21 282.87 247.64 282.97 248.44C283.06 248.85 283.46 249.11 283.75 249.16C284.07 249.23 284.31 249.2 284.56 249.19C285.06 249.15 285.53 249.02 285.95 248.85C286.79 248.51 287.43 247.98 287.86 247.46C288.73 246.4 288.77 245.5 288.7 245.5C288.58 245.46 288.36 246.25 287.49 247.11C287.06 247.54 286.46 247.97 285.71 248.23C285.34 248.37 284.93 248.46 284.51 248.48C284.06 248.53 283.67 248.45 283.67 248.27C283.62 248.07 283.86 247.64 284.17 247.39C284.49 247.09 284.83 246.83 285.16 246.61C285.84 246.17 286.53 245.89 287.12 245.71C288.31 245.36 289.12 245.4 289.12 245.28Z" />
											</g>
										</g>
									</g>
								</g>
							</g>
						</g>
						<g id="Group 9106">
							<g id="Group 9020">
								<path id="Path 2777" class="shp7" d="M219.83 166.15C219.83 166.15 180.62 158.93 167.97 166.74L167.97 210.83C181.98 218.37 201.73 231.06 201.73 231.06L221.12 200.63L219.83 166.15Z" />
								<path id="Path 2778" class="shp7" d="M219.83 166.15L221.12 200.63C221.12 200.63 199.05 232.39 195.31 238.28C193.24 241.54 186.78 254.49 190.69 261.63C194.61 268.77 209.2 270.54 214.96 270.31C220.72 270.08 283.94 252.37 283.94 252.37L277.3 225.44L248.55 231.06C248.55 231.06 271.55 213.85 274.45 208.15C277.02 203.12 279.72 188 279.81 187.67L219.83 166.15Z" />
								<g id="Group 9015">
									<path id="Path 2779" class="shp12" d="M213.42 210.6C213.38 210.62 213.03 210.01 212.27 209.03C211.49 208.05 210.26 206.7 208.47 205.36C206.69 204.02 204.36 202.69 201.6 201.64C198.84 200.56 195.69 199.73 192.36 198.94C189.01 198.16 185.86 197.31 182.95 196.78C180.03 196.21 177.4 195.78 175.18 195.45C172.96 195.11 171.16 194.89 169.91 194.75C169.32 194.7 168.84 194.65 168.47 194.61C168.14 194.58 167.97 194.56 167.97 194.54C167.97 194.53 168.14 194.52 168.48 194.53C168.81 194.53 169.29 194.56 169.92 194.6C171.18 194.69 172.99 194.87 175.22 195.17C177.44 195.47 180.09 195.87 183.02 196.42C185.95 196.93 189.11 197.77 192.45 198.55C195.78 199.34 198.96 200.18 201.73 201.29C204.51 202.38 206.86 203.75 208.64 205.14C210.44 206.52 211.65 207.92 212.39 208.93C212.75 209.45 213.02 209.85 213.18 210.15C213.35 210.43 213.43 210.59 213.42 210.6Z" />
								</g>
								<g id="Group 9016">
									<path id="Path 2780" class="shp12" d="M278.39 194.54C278.38 194.56 278.18 194.55 277.79 194.51C277.36 194.46 276.81 194.4 276.12 194.33C274.62 194.14 272.55 193.88 270.04 193.57L270.21 193.44C269.76 197.02 268.43 201.54 265.9 205.9C265.14 207.19 264.32 208.4 263.47 209.53C262.59 210.65 261.71 211.69 260.79 212.61C259.89 213.55 258.92 214.31 258.3 215.26C257.66 216.19 257.26 217.17 257.02 218.11C256.78 219.04 256.71 219.92 256.73 220.69C256.72 221.47 256.68 222.14 256.64 222.69C256.59 223.23 256.53 223.65 256.48 223.94C256.43 224.22 256.4 224.37 256.39 224.37C256.37 224.37 256.38 224.22 256.4 223.93C256.42 223.6 256.45 223.18 256.48 222.67C256.5 222.13 256.52 221.46 256.5 220.69C256.47 219.91 256.52 219.01 256.74 218.04C256.97 217.07 257.38 216.05 258.03 215.07C258.35 214.58 258.74 214.11 259.19 213.68C259.63 213.25 260.09 212.82 260.53 212.35C261.42 211.43 262.29 210.4 263.15 209.3C263.99 208.17 264.8 206.97 265.56 205.7C268.06 201.39 269.4 196.94 269.9 193.39L269.92 193.24L270.08 193.26C272.58 193.63 274.64 193.93 276.14 194.15C276.83 194.26 277.38 194.35 277.81 194.42C278.19 194.49 278.39 194.53 278.39 194.54Z" />
								</g>
								<g id="Group 9017">
									<path id="Path 2781" class="shp12" d="M254.98 226.03C254.99 226.04 254.87 226.14 254.62 226.33C254.35 226.53 253.99 226.79 253.56 227.11C252.62 227.77 251.26 228.72 249.55 229.86C246.08 232.14 241.37 235.24 236.16 238.66C233.52 240.38 230.87 241.76 228.57 243.17C226.26 244.59 224.27 246 222.86 247.48C221.45 248.94 220.57 250.36 220.15 251.42C219.71 252.47 219.56 253.09 219.51 253.08C219.5 253.08 219.53 252.92 219.61 252.63C219.7 252.34 219.76 251.89 220 251.36C220.39 250.27 221.25 248.79 222.66 247.28C224.06 245.75 226.07 244.3 228.37 242.86C230.68 241.42 233.33 240.03 235.94 238.33C241.15 234.86 245.95 231.85 249.4 229.62C251.08 228.53 252.46 227.63 253.47 226.98C253.92 226.68 254.29 226.45 254.58 226.26C254.83 226.1 254.97 226.02 254.98 226.03Z" />
								</g>
								<g id="Group 9018">
									<path id="Path 2782" class="shp12" d="M221.12 199.53C221.13 199.53 221.06 199.68 220.9 199.94C220.72 200.24 220.49 200.62 220.21 201.09C219.57 202.12 218.68 203.54 217.61 205.27C215.35 208.82 212.29 213.65 208.9 218.98C205.48 224.3 202.39 229.11 200.12 232.65C199.01 234.36 198.1 235.76 197.44 236.78C197.14 237.24 196.9 237.61 196.71 237.9C196.54 238.16 196.45 238.29 196.43 238.28C196.42 238.28 196.49 238.13 196.64 237.86C196.79 237.59 197.01 237.2 197.31 236.7C197.9 235.7 198.78 234.27 199.88 232.5C202.07 228.97 205.14 224.11 208.56 218.77C211.98 213.42 215.09 208.6 217.37 205.11C218.49 203.41 219.41 202.02 220.08 201C220.39 200.55 220.64 200.19 220.83 199.9C221.01 199.65 221.11 199.52 221.12 199.53Z" />
								</g>
								<g id="Group 9019">
									<path id="Path 2783" class="shp12" d="M220.67 168.56C220.68 168.55 220.76 168.61 220.9 168.75C221.04 168.87 221.23 169.09 221.47 169.37C221.93 169.94 222.54 170.83 223 172.08C223.45 173.31 223.75 174.91 223.53 176.66C223.32 178.42 222.53 180.18 222.09 182.1C221.21 185.96 221.57 189.6 221.83 192.17C221.98 193.41 222.1 194.44 222.2 195.24C222.29 195.96 222.32 196.36 222.3 196.37C222.27 196.37 222.18 195.98 222.05 195.26C221.91 194.54 221.73 193.5 221.55 192.21C221.22 189.64 220.8 185.95 221.7 182.01C222.15 180.04 222.95 178.3 223.16 176.61C223.39 174.94 223.14 173.39 222.73 172.17C221.88 169.72 220.59 168.61 220.67 168.56Z" />
								</g>
							</g>
							<path id="Path 2784" class="shp13" d="M126.26 51.11C126.26 51.11 150.88 97.03 156.32 98.78C161.76 100.53 214.47 103.67 214.47 103.67L217.79 75.01L165.69 78.35L135.64 44.19L126.26 51.11Z" />
							<path id="Path 2785" class="shp12" d="M216.77 72.73L213.57 73.68L211.18 102.72L216.19 137.59L215.04 177.66C215.04 177.66 267.46 195.12 276.27 191.72C282.45 189.33 281.32 179.47 281.32 179.47L271.57 113.29L270.03 101.56C268.78 92.02 265.19 82.91 259.46 75.18C256.07 70.6 252.16 66.29 248.55 64.69L241.66 62.67L216.77 72.73Z" />
							<path id="Path 2786" class="shp12" d="M213.56 73.68L189.22 75.94L189.22 103.67L212.35 106.06L213.56 73.68Z" />
							<g id="Group 9021">
								<path id="Path 2787" class="shp7" d="M216.25 138.3C216.14 138.32 214.37 124.96 212.31 108.46C210.24 91.96 208.65 78.58 208.76 78.57C208.88 78.55 210.64 91.91 212.7 108.41C214.77 124.91 216.36 138.29 216.25 138.3Z" />
							</g>
							<g id="Group 9022">
								<path id="Path 2788" class="shp9" d="M188.43 100.33C188.43 100.34 188.35 100.34 188.22 100.33C188.05 100.32 187.85 100.31 187.6 100.29C187.03 100.24 186.23 100.18 185.23 100.1C183.17 99.92 180.2 99.65 176.53 99.29C172.86 98.93 168.49 98.49 163.64 97.89C162.43 97.75 161.19 97.58 159.92 97.4C159.29 97.3 158.65 97.22 158.01 97.09C157.68 97.02 157.36 96.98 157.03 96.89L156.52 96.72C156.36 96.64 156.2 96.47 156.1 96.35C155.23 95.31 154.49 94.19 153.7 93.06C152.94 91.92 152.17 90.76 151.39 89.59C145.22 80.16 139.84 71.5 135.95 65.23C134.03 62.11 132.48 59.57 131.38 57.78C130.86 56.92 130.45 56.24 130.16 55.75C130.03 55.53 129.93 55.35 129.85 55.21C129.78 55.09 129.75 55.02 129.76 55.02C129.76 55.02 129.81 55.08 129.88 55.19L130.23 55.7C130.54 56.19 130.97 56.85 131.51 57.7C132.63 59.47 134.23 61.99 136.19 65.08C140.14 71.31 145.56 79.95 151.72 89.37C152.5 90.54 153.27 91.69 154.03 92.83C154.81 93.96 155.56 95.09 156.39 96.09C156.51 96.22 156.58 96.3 156.7 96.38L157.14 96.51C157.43 96.6 157.77 96.64 158.08 96.71C158.71 96.84 159.35 96.92 159.98 97.02C161.24 97.21 162.48 97.38 163.69 97.53C168.52 98.14 172.89 98.61 176.56 99.01C180.2 99.4 183.16 99.72 185.25 99.95C186.25 100.06 187.04 100.15 187.61 100.21C187.86 100.24 188.06 100.27 188.22 100.29C188.36 100.31 188.43 100.32 188.43 100.33Z" />
							</g>
							<g id="Group 9023">
								<path id="Path 2789" class="shp9" d="M211.18 104.51C211.18 104.62 206.42 104.35 200.57 103.91C194.71 103.48 189.97 103.03 189.98 102.92C189.99 102.81 194.74 103.08 200.6 103.51C206.45 103.95 211.19 104.39 211.18 104.51Z" />
							</g>
							<g id="Group 9024">
								<path id="Path 2790" class="shp9" d="M217.12 150.88C217.11 150.88 217.11 150.73 217.13 150.45C217.15 150.14 217.18 149.74 217.22 149.23C217.32 148.12 217.46 146.58 217.63 144.65L217.63 144.66C217.6 142.17 217.51 138.99 217.22 135.36C216.94 131.73 216.48 127.64 215.89 123.34C214.86 115.77 213.74 108.94 213.06 103.97C212.71 101.49 212.46 99.48 212.31 98.09C212.24 97.42 212.18 96.89 212.14 96.48C212.1 96.12 212.09 95.92 212.1 95.92C212.12 95.92 212.16 96.11 212.22 96.47C212.28 96.88 212.36 97.41 212.46 98.07C212.68 99.5 212.98 101.49 213.34 103.93C214.09 108.88 215.25 115.71 216.29 123.29C216.88 127.59 217.32 131.69 217.58 135.33C217.84 138.98 217.9 142.17 217.88 144.66L217.88 144.67L217.88 144.67C217.66 146.6 217.48 148.14 217.36 149.25C217.29 149.75 217.24 150.15 217.2 150.46C217.16 150.74 217.13 150.88 217.12 150.88Z" />
							</g>
							<g id="Group 9094">
								<path id="Path 2791" class="shp7" d="M231.83 17.49C232.54 14.89 232.07 12 230.57 9.76C229.69 8.43 228.49 7.36 227.26 6.35C225.82 5.18 224.3 4.06 222.55 3.44C222.28 3.35 223.31 3.81 222.55 3.44C222.23 3.28 221.48 2 221.23 1.74C219.93 0.37 219.21 0.09 218.59 0.08C217.43 0.07 217.16 0.04 216.01 0.21C214.86 0.38 213.21 1.74 212.47 2.64C211.65 1.33 210.06 0.58 208.52 0.63C206.97 0.68 205.5 1.49 204.51 2.69C204.4 2.81 204.29 2.96 204.13 2.99C203.94 3.02 203.77 2.9 203.61 2.79C202.42 1.99 200.79 1.8 199.54 2.51C198.3 3.22 197.64 4.9 198.25 6.19C196.97 5.7 195.41 6.07 194.49 7.08C193.57 8.1 193.35 9.69 193.97 10.92C192.94 11 191.77 11.17 191.17 12.01C190.45 13.04 190.45 14.75 190.99 15.89C191.32 16.59 192.48 18 193.42 18.42C194.57 18.95 195.18 18.21 196.44 18.11C198.31 17.96 200.27 17.77 201.82 16.7" />
								<g id="Group 9041">
									<g id="Group 9040">
										<g id="Group 9039">
											<g id="Group 9026">
												<g id="Group 9025">
													<path id="Path 2792" class="shp13" d="M193.74 30.4C191.42 19.9 197.55 9.38 207.83 6.22L208.85 5.91C220.06 3.17 228.65 11.16 231.08 22.44L242.12 64.42L218 76.95L214.52 64.96C214.52 64.96 203.42 66.56 200.04 56.02C198.41 50.92 195.9 40.16 193.74 30.4Z" />
												</g>
											</g>
											<g id="Group 9038">
												<g id="Group 9037">
													<g id="Group 9036">
														<g id="Group 9035">
															<g id="Group 9034">
																<g id="Group 9033">
																	<g id="Group 9032">
																		<g id="Group 9031">
																			<g id="Group 9030">
																				<g id="Group 9029">
																					<g id="Group 9028">
																						<g id="Group 9027">
																							<path id="Path 2793" class="shp14" d="M214.43 64.97C214.43 64.97 221.31 63.3 227.05 56.65C227.05 56.65 226.13 65.27 215.27 67.56L214.43 64.97Z" />
																						</g>
																					</g>
																				</g>
																			</g>
																		</g>
																	</g>
																</g>
															</g>
														</g>
													</g>
												</g>
											</g>
										</g>
									</g>
								</g>
								<g id="Group 9045">
									<g id="Group 9044">
										<g id="Group 9043">
											<g id="Group 9042">
												<path id="Path 2794" class="shp7" d="M198.83 38.11C199.05 38.91 199.91 39.4 200.76 39.18C201.6 38.97 202.12 38.15 201.9 37.34C201.68 36.54 200.82 36.05 199.97 36.26C199.13 36.47 198.62 37.3 198.83 38.11Z" />
											</g>
										</g>
									</g>
								</g>
								<g id="Group 9050">
									<g id="Group 9049">
										<g id="Group 9048">
											<g id="Group 9047">
												<g id="Group 9046">
													<path id="Path 2795" class="shp7" d="M197.61 34.88C197.85 35.02 198.74 33.82 200.37 33.32C201.99 32.8 203.44 33.27 203.55 33.02C203.61 32.91 203.31 32.61 202.68 32.39C202.05 32.17 201.06 32.07 200.05 32.39C199.04 32.7 198.3 33.34 197.93 33.87C197.55 34.41 197.49 34.82 197.61 34.88Z" />
												</g>
											</g>
										</g>
									</g>
								</g>
								<g id="Group 9054">
									<g id="Group 9053">
										<g id="Group 9052">
											<g id="Group 9051">
												<path id="Path 2796" class="shp7" d="M214.2 33.92C214.42 34.73 215.28 35.21 216.13 35C216.97 34.79 217.48 33.96 217.27 33.15C217.05 32.35 216.19 31.87 215.34 32.08C214.49 32.29 213.98 33.11 214.2 33.92Z" />
											</g>
										</g>
									</g>
								</g>
								<g id="Group 9059">
									<g id="Group 9058">
										<g id="Group 9057">
											<g id="Group 9056">
												<g id="Group 9055">
													<path id="Path 2797" class="shp7" d="M213.87 30.8C214.12 30.94 215.01 29.74 216.64 29.25C218.26 28.73 219.71 29.2 219.82 28.95C219.88 28.83 219.58 28.54 218.94 28.32C218.32 28.1 217.33 28 216.32 28.31C215.31 28.63 214.57 29.27 214.2 29.8C213.82 30.34 213.76 30.74 213.87 30.8Z" />
												</g>
											</g>
										</g>
									</g>
								</g>
								<g id="Group 9063">
									<g id="Group 9062">
										<g id="Group 9061">
											<g id="Group 9060">
												<path id="Path 2798" class="shp7" d="M211.49 44.15C211.47 44.05 210.41 44.19 208.7 44.48C208.27 44.57 207.86 44.6 207.7 44.34C207.51 44.07 207.54 43.57 207.6 43.03C207.68 41.9 207.77 40.72 207.85 39.48C208.18 34.46 208.27 30.38 208.07 30.36C207.87 30.35 207.44 34.42 207.12 39.45C207.05 40.68 206.98 41.86 206.92 42.99C206.91 43.51 206.8 44.13 207.21 44.69C207.41 44.96 207.79 45.09 208.08 45.08C208.37 45.08 208.6 45.01 208.81 44.96C210.49 44.55 211.51 44.24 211.49 44.15Z" />
											</g>
										</g>
									</g>
								</g>
								<path id="Path 2799" class="shp7" d="M211.25 24.82C211.54 25.22 213.11 24.53 215.1 24.2C217.07 23.82 218.78 23.93 218.92 23.46C218.98 23.23 218.58 22.9 217.83 22.65C217.09 22.4 215.98 22.29 214.79 22.49C213.61 22.71 212.61 23.2 211.99 23.69C211.37 24.18 211.12 24.63 211.25 24.82Z" />
								<path id="Path 2800" class="shp7" d="M195.38 28.98C195.81 29.28 197.14 28.61 198.83 28.26C200.51 27.86 202.01 27.9 202.26 27.43C202.36 27.21 202.06 26.88 201.37 26.64C200.68 26.41 199.59 26.32 198.43 26.58C197.27 26.84 196.33 27.38 195.82 27.89C195.3 28.39 195.18 28.82 195.38 28.98Z" />
								<g id="Group 9073">
									<g id="Group 9072">
										<g id="Group 9071">
											<g id="Group 9070">
												<g id="Group 9069">
													<g id="Group 9068">
														<g id="Group 9067">
															<g id="Group 9066">
																<g id="Group 9065">
																	<g id="Group 9064">
																		<path id="Path 2801" class="shp13" d="M231.89 30.77C232.04 30.63 238.5 26.38 240.49 33.69C242.48 41 234.74 41.49 234.67 41.28C234.6 41.08 231.89 30.77 231.89 30.77Z" />
																	</g>
																</g>
															</g>
														</g>
													</g>
												</g>
											</g>
										</g>
									</g>
								</g>
								<g id="Group 9084">
									<g id="Group 9083">
										<g id="Group 9082">
											<g id="Group 9081">
												<g id="Group 9080">
													<g id="Group 9079">
														<g id="Group 9078">
															<g id="Group 9077">
																<g id="Group 9076">
																	<g id="Group 9075">
																		<g id="Group 9074">
																			<path id="Path 2802" class="shp14" d="M235.51 38.1C235.53 38.07 235.66 38.15 235.9 38.2C236.14 38.23 236.52 38.2 236.86 37.96C237.55 37.46 237.87 36.06 237.54 34.73C237.38 34.06 237.07 33.47 236.69 33.01C236.32 32.53 235.88 32.25 235.47 32.29C235.06 32.31 234.84 32.61 234.81 32.84C234.77 33.07 234.86 33.21 234.82 33.23C234.8 33.25 234.63 33.15 234.61 32.83C234.6 32.68 234.64 32.48 234.77 32.3C234.91 32.11 235.14 31.96 235.42 31.92C236 31.8 236.64 32.18 237.06 32.69C237.51 33.19 237.87 33.85 238.06 34.61C238.41 36.09 238.03 37.68 237.06 38.27C236.58 38.54 236.11 38.5 235.84 38.39C235.57 38.27 235.48 38.12 235.51 38.1Z" />
																		</g>
																	</g>
																</g>
															</g>
														</g>
													</g>
												</g>
											</g>
										</g>
									</g>
								</g>
								<path id="Path 2803" class="shp15" d="M220.58 10.69L216.05 8.69L205.2 13.9L196.58 14.28L192.02 16.47C193.28 17.4 192.05 16.01 193.45 14.08C196.47 9.9 200.73 6.57 205.63 4.99C207.56 4.36 210.58 4.44 214.08 4.95C218.76 5.62 224.2 7.25 226.98 8.65C230.67 10.49 231.37 12.85 231.37 12.85C233.01 16.63 232.18 21.75 232.48 25.86C232.63 27.98 233.6 34.24 233.6 34.24L233.6 34.24C231.93 34.74 230.91 33.61 230.66 31.88L229 25.34C229 25.34 222.12 23.04 222.55 14.86C222.81 14.14 222.9 11.17 220.58 10.69Z" />
								<path id="Path 2804" class="shp7" d="M222.58 11.96C221.31 10.09 218.66 9.49 216.51 10.18C214.36 10.86 212.68 12.61 211.55 14.57C211.26 15.07 210.99 15.61 210.58 16.02C210.17 16.44 209.57 16.73 209 16.61C208.83 16.58 208.63 16.51 208.48 16.6C208.37 16.67 208.33 16.8 208.29 16.92C208.03 17.7 207.7 18.48 207.1 19.02C206.49 19.56 205.53 19.79 204.85 19.35C204.28 20.32 203.11 20.9 202 20.76C200.89 20.63 199.89 19.79 199.57 18.72C198.73 19.33 197.52 19.07 196.63 18.52C195.22 17.66 194.22 16.14 194 14.49C193.78 12.85 194.33 11.12 195.46 9.91C196.33 8.97 197.49 8.37 198.65 7.83C200.47 6.98 202.35 6.25 204.26 5.65C205.1 5.38 205.97 5.14 206.85 5.18C208.07 5.25 209.26 5.86 210.46 5.65C211.23 5.52 211.9 5.06 212.56 4.63C213.5 4.01 214.5 3.42 215.6 3.19C217.78 2.73 220 3.72 221.89 4.89C223.22 5.72 224.53 6.69 225.29 8.06C226.04 9.43 226.11 11.29 225.08 12.47C224.68 12.93 224.08 13.27 223.47 13.2C222.85 13.13 222.3 12.54 222.42 11.94" />
								<path id="Path 2805" class="shp14" d="M216.58 47.65C216.25 46.91 215.56 46.31 214.76 46.2C213.96 46.08 212.56 46.94 212.25 47.69C212.11 48.25 212.33 48.83 212.53 49.36C212.77 49.97 213.01 50.58 213.44 51.07C213.86 51.56 214.5 51.91 215.14 51.8C215.97 51.67 216.5 50.84 216.72 50.03C216.92 49.24 216.92 48.39 216.58 47.65Z" />
								<g id="Group 9085">
									<path id="Path 2806" class="shp7" d="M215.31 51.76C215.29 51.59 215.77 51.39 216.05 50.68C216.34 50.01 216.47 48.81 215.88 47.92C215.59 47.48 215.16 47.16 214.73 47.02C214.31 46.88 213.89 46.91 213.54 47.02C212.82 47.24 212.51 47.71 212.35 47.63C212.28 47.6 212.25 47.44 212.36 47.17C212.46 46.9 212.71 46.53 213.17 46.26C213.61 45.98 214.29 45.79 215.01 45.95C215.73 46.1 216.43 46.56 216.89 47.26C217.35 47.96 217.47 48.77 217.4 49.44C217.33 50.12 217.1 50.7 216.78 51.12C216.47 51.54 216.08 51.78 215.79 51.84C215.49 51.91 215.33 51.83 215.31 51.76Z" />
								</g>
								<g id="Group 9086">
									<path id="Path 2807" class="shp9" d="M217.69 72.75C217.58 72.78 217.21 71.57 216.86 70.07C216.51 68.56 216.32 67.32 216.43 67.29C216.53 67.27 216.9 68.47 217.25 69.98C217.6 71.48 217.8 72.73 217.69 72.75Z" />
								</g>
								<g id="Group 9087">
									<path id="Path 2808" class="shp9" d="M218.57 61.25C218.58 61.26 218.5 61.32 218.36 61.43C218.21 61.53 218.01 61.7 217.71 61.86C217.14 62.22 216.25 62.65 215.08 62.99C213.91 63.33 212.46 63.54 210.84 63.43C209.24 63.33 207.48 62.87 205.84 61.96C204.2 61.03 203 59.63 202.18 58.25C201.36 56.86 200.85 55.5 200.5 54.34C200.16 53.18 199.97 52.22 199.86 51.56C199.75 50.89 199.72 50.52 199.75 50.52C199.83 50.5 200.04 51.98 200.77 54.26C201.15 55.39 201.68 56.72 202.5 58.06C203.31 59.39 204.47 60.72 206.04 61.61C207.61 62.49 209.31 62.94 210.87 63.06C212.44 63.19 213.86 63.02 215 62.72C217.32 62.12 218.52 61.17 218.57 61.25Z" />
								</g>
								<g id="Group 9088">
									<path id="Path 2809" class="shp9" d="M216.83 51.31C216.92 51.35 216.6 52.1 215.78 52.6C214.96 53.1 214.16 53.06 214.16 52.96C214.15 52.84 214.85 52.71 215.57 52.25C216.3 51.82 216.73 51.25 216.83 51.31Z" />
								</g>
								<g id="Group 9089">
									<path id="Path 2810" class="shp9" d="M200.44 39.72C200.46 39.83 200.12 40 199.67 39.95C199.22 39.9 198.92 39.65 198.98 39.55C199.03 39.45 199.34 39.51 199.72 39.55C200.09 39.6 200.41 39.61 200.44 39.72Z" />
								</g>
								<g id="Group 9090">
									<path id="Path 2811" class="shp9" d="M201.8 28.28C201.84 28.38 200.58 29 198.9 29.4C197.22 29.82 195.81 29.85 195.81 29.74C195.8 29.62 197.16 29.42 198.8 29.01C200.45 28.62 201.75 28.17 201.8 28.28Z" />
								</g>
								<g id="Group 9091">
									<path id="Path 2812" class="shp9" d="M216.14 35.43C216.19 35.53 215.84 35.77 215.35 35.79C214.85 35.82 214.48 35.62 214.51 35.52C214.54 35.41 214.9 35.42 215.32 35.39C215.75 35.37 216.1 35.33 216.14 35.43Z" />
								</g>
								<g id="Group 9092">
									<path id="Path 2813" class="shp9" d="M219.07 24.98C219.09 25.09 217.48 25.47 215.45 25.66C213.42 25.84 211.77 25.75 211.77 25.64C211.77 25.53 213.4 25.44 215.41 25.26C217.42 25.08 219.05 24.87 219.07 24.98Z" />
								</g>
								<g id="Group 9093">
									<path id="Path 2814" class="shp9" d="M205.74 17.26C205.76 17.27 205.67 17.51 205.37 17.86C205.08 18.22 204.56 18.68 203.78 18.96C203 19.25 201.92 19.33 200.9 18.83C199.9 18.35 199 17.35 198.74 16.06L198.71 15.91L199.03 16.04C197.98 16.77 196.73 17 195.65 16.86C194.56 16.72 193.68 16.19 193.1 15.63C192.51 15.07 192.18 14.48 192.02 14.07C191.85 13.65 191.83 13.4 191.85 13.4C191.92 13.35 192.12 14.39 193.29 15.43C193.86 15.93 194.69 16.39 195.7 16.49C196.69 16.61 197.85 16.38 198.8 15.72L199.05 15.54L199.11 15.85L199.14 15.98C199.36 17.13 200.17 18.05 201.07 18.5C201.97 18.97 202.95 18.93 203.69 18.69C204.43 18.46 204.95 18.06 205.26 17.76C205.58 17.45 205.71 17.24 205.74 17.26Z" />
								</g>
							</g>
							<g id="Group 9097">
								<path id="Path 2815" class="shp13" d="M108.4 30.07C108.4 30.07 107.11 31.47 109.62 32.48C111.97 33.42 118.96 37.24 118.96 37.24L118.96 37.24C118.96 37.24 118.43 38.89 118.52 40.22C118.61 41.55 119.54 41.97 119.54 41.97C119.54 41.97 119.14 46.21 121.44 48.6C123.75 51 128.11 51.47 128.11 51.47L136.85 45.88C136.85 45.88 127.09 32.67 126.32 31.89C125.84 31.41 123.76 29.74 122.39 29.4C121.02 29.06 112.54 26.78 112.54 26.78L105.42 27.81C105.42 27.81 105.03 30.16 107.05 30.16C109.43 30.16 108.4 30.07 108.4 30.07Z" />
								<g id="Group 9095">
									<path id="Path 2816" class="shp14" d="M124.84 43.7C124.79 43.72 124.37 43.13 123.73 42.16C123.09 41.18 122.22 39.81 121.29 38.29C121.06 37.92 120.82 37.58 120.52 37.33C120.21 37.07 119.88 36.85 119.59 36.88C119.51 36.89 119.44 36.91 119.37 36.94C119.32 36.95 119.33 36.97 119.31 36.98L119.24 37.06C119.15 37.19 119.08 37.35 119.02 37.5C118.9 37.81 118.81 38.11 118.74 38.39C118.59 38.95 118.52 39.41 118.5 39.73C118.47 40.05 118.54 40.2 118.52 40.22C118.51 40.25 118.35 40.07 118.34 39.73C118.32 39.4 118.35 38.91 118.46 38.33C118.51 38.04 118.59 37.72 118.71 37.38C118.77 37.22 118.84 37.04 118.95 36.86C118.98 36.82 119.01 36.77 119.05 36.73C119.1 36.69 119.17 36.62 119.22 36.61C119.32 36.56 119.43 36.53 119.55 36.52C120.05 36.46 120.44 36.77 120.77 37.03C121.13 37.32 121.39 37.7 121.63 38.08C122.57 39.6 123.39 40.99 123.97 42.01C124.55 43.02 124.88 43.67 124.84 43.7Z" />
								</g>
								<g id="Group 9096">
									<path id="Path 2817" class="shp14" d="M124.25 35.37C124.21 35.41 123.49 34.74 122.4 33.62C121.85 33.07 121.16 32.45 120.19 32.16C119.7 32 119.18 31.91 118.62 31.8C118.06 31.7 117.49 31.56 116.9 31.41C114.58 30.79 112.49 30.28 110.93 30.15C109.38 29.99 108.41 30.14 108.4 30.07C108.4 30.04 108.64 29.99 109.07 29.92C109.51 29.87 110.16 29.82 110.95 29.87C112.54 29.92 114.69 30.4 117 31.02C117.58 31.17 118.15 31.31 118.7 31.42C119.25 31.53 119.8 31.63 120.3 31.81C121.34 32.14 122.08 32.85 122.6 33.42C123.65 34.6 124.29 35.33 124.25 35.37Z" />
								</g>
							</g>
							<g id="Group 9105">
								<g id="Group 9102">
									<path id="Path 2818" class="shp13" d="M184.4 160.99L234.06 155.2L234.38 114.9L258.61 114.02C258.61 114.02 257.04 156.48 256.94 163.67C256.87 168.56 250.67 174.85 245.33 176.08C242.72 176.67 187.48 175.59 187.48 175.59L184.4 160.99Z" />
									<path id="Path 2819" class="shp12" d="M255.99 75.99C252.42 72.51 246.82 72.13 242.76 75.01C238.38 78.11 231.73 85.74 230.88 95.54C229.89 106.98 231.73 120.56 231.73 120.56L260.09 120.44L265.5 99.07" />
									<g id="Group 9098">
										<path id="Path 2820" class="shp9" d="M236.37 122.62C236.38 122.62 236.39 122.68 236.39 122.79L236.41 123.29C236.42 123.76 236.43 124.41 236.44 125.24C236.46 126.96 236.48 129.41 236.5 132.46C236.52 138.64 236.54 147.22 236.57 157L236.57 157.17L236.4 157.2C233.81 157.58 231.11 157.97 228.35 158.33C216.7 159.88 206.11 160.85 198.43 161.38C194.59 161.65 191.48 161.82 189.33 161.92C188.28 161.97 187.45 162 186.86 162.02C186.59 162.03 186.38 162.03 186.21 162.04C186.07 162.04 185.99 162.04 185.99 162.03C185.99 162.02 186.07 162.01 186.21 162C186.38 161.98 186.59 161.97 186.85 161.94C187.45 161.9 188.28 161.84 189.33 161.77C191.5 161.61 194.6 161.38 198.41 161.1C206.08 160.49 216.66 159.48 228.3 157.93C231.06 157.57 233.75 157.19 236.35 156.81L236.18 157C236.2 147.22 236.23 138.64 236.25 132.46C236.27 129.41 236.29 126.96 236.3 125.24C236.32 124.41 236.33 123.76 236.34 123.29L236.36 122.79C236.36 122.68 236.37 122.62 236.37 122.62Z" />
									</g>
									<g id="Group 9099">
										<path id="Path 2821" class="shp9" d="M240.43 79.77C240.45 79.8 240.07 80.18 239.43 80.91C238.79 81.63 237.92 82.73 237 84.2C235.13 87.1 233.3 91.62 232.52 96.85C231.73 102.08 231.88 106.9 232 110.37C232.07 112.06 232.13 113.45 232.18 114.48L232.21 115.6C232.22 115.85 232.21 115.99 232.2 115.99C232.18 115.99 232.16 115.86 232.13 115.6C232.1 115.3 232.06 114.93 232.02 114.49C231.93 113.52 231.82 112.12 231.72 110.38C231.53 106.91 231.33 102.07 232.12 96.79C232.91 91.5 234.81 86.94 236.76 84.04C237.72 82.59 238.63 81.5 239.32 80.8C239.65 80.44 239.94 80.2 240.12 80.02C240.31 79.85 240.42 79.76 240.43 79.77Z" />
									</g>
									<path id="Path 2822" class="shp13" d="M172.28 147.21L181.92 155.3L187.78 163.29L188.51 175.34L176.86 176.85C176.86 176.85 162.01 175.54 160.9 173.64C159.75 171.65 161.21 171.24 161.21 171.24C161.21 171.24 158.04 170.71 155.53 170.13C154.24 169.83 153.25 167.1 154.51 166.98C158.05 166.63 167.71 166.92 167.97 166.74C168.32 166.51 155.24 162.42 153.81 161.57C152.89 161.03 152.61 159.09 153.74 158.65C154.87 158.21 166.95 160.05 166.95 160.05L171.63 159.69L166.04 156.48L158.18 153.63C158.18 153.63 156.25 150.92 158.97 150.75C161.7 150.58 169.24 151.89 169.24 151.89L173.85 154.13C173.85 154.13 170.28 150.09 172.28 147.21Z" />
									<g id="Group 9100">
										<path id="Path 2823" class="shp14" d="M180.77 157.83C180.72 157.92 179.13 157.12 177.18 156.09C175.23 155.06 173.71 154.1 173.78 154C173.83 153.91 175.42 154.71 177.37 155.74C179.32 156.76 180.83 157.73 180.77 157.83Z" />
									</g>
									<g id="Group 9101">
										<path id="Path 2824" class="shp14" d="M173 172.24C172.99 172.35 170.27 172.21 166.93 171.93C163.59 171.65 160.89 171.33 160.9 171.22C160.91 171.11 163.63 171.25 166.97 171.53C170.31 171.81 173.01 172.13 173 172.24Z" />
									</g>
								</g>
								<g id="Group 9103">
									<path id="Path 2825" class="shp7" d="M231.86 110.37C231.88 110.37 231.9 110.61 231.92 111.05C231.94 111.54 231.97 112.2 232.01 113.01C232.07 114.75 232.15 117.19 232.25 120.17L232.1 120.01C236.71 120 242.69 119.99 249.21 119.97C253.82 119.98 258.16 119.98 261.9 119.99L261.73 120.15C262.3 115.97 262.78 112.46 263.13 109.94C263.3 108.74 263.44 107.78 263.55 107.08C263.6 106.77 263.64 106.52 263.67 106.32C263.7 106.15 263.72 106.06 263.73 106.06C263.74 106.07 263.74 106.16 263.73 106.33C263.71 106.53 263.68 106.78 263.66 107.09C263.58 107.8 263.47 108.77 263.33 109.97C263.02 112.49 262.59 116.01 262.08 120.19L262.06 120.35L261.9 120.35C258.16 120.35 253.82 120.36 249.21 120.37C242.69 120.35 236.71 120.34 232.1 120.32L231.94 120.32L231.94 120.17C231.9 117.2 231.86 114.76 231.84 113.01C231.83 112.2 231.83 111.55 231.83 111.06C231.83 110.61 231.84 110.37 231.86 110.37Z" />
								</g>
								<g id="Group 9104">
									<path id="Path 2826" class="shp7" d="M259.99 84.37C259.9 84.4 259.65 83.22 258.47 81.78C257.32 80.34 255.14 78.8 252.39 78.12C249.63 77.46 247.01 77.58 245.15 77.67C243.28 77.78 242.12 77.88 242.12 77.82C242.11 77.79 242.4 77.73 242.92 77.66C243.44 77.58 244.19 77.48 245.13 77.39C246.99 77.23 249.65 77.05 252.49 77.73C255.32 78.43 257.56 80.07 258.69 81.61C259.27 82.37 259.61 83.07 259.78 83.57C259.96 84.07 260.01 84.36 259.99 84.37Z" />
								</g>
							</g>
						</g>
						<g id="Group 9107">
							<path id="Path 2827" class="shp12" d="M241.67 196.08C241.66 196.15 240.49 196.1 238.59 196.14C236.7 196.18 234.09 196.36 231.24 196.84C228.39 197.33 225.87 198.02 224.07 198.61C222.27 199.2 221.18 199.63 221.15 199.57C221.14 199.55 221.4 199.41 221.89 199.19C222.37 198.96 223.08 198.67 223.98 198.34C225.76 197.68 228.3 196.93 231.17 196.44C234.05 195.96 236.69 195.83 238.59 195.86C239.55 195.87 240.32 195.91 240.85 195.97C241.38 196.02 241.67 196.06 241.67 196.08Z" />
						</g>
					</g>
				</g>
			</g>
		</g>
	</g>
</svg>