<svg xmlns="http://www.w3.org/2000/svg" width="38.933" height="50.766" viewBox="0 0 38.933 50.766"><g transform="translate(-0.434 0.001)"><path d="M32.882,13.845,30.4,18.684l2.933-14.6a3.38,3.38,0,0,0-2.76-4.05,3.486,3.486,0,0,0-3.885,2.754L25.132,9.641,23.48,17.293l-.2-13.134a3.386,3.386,0,1,0-6.771.1V19.071L15.245,16.4a3.374,3.374,0,0,0-4.018-1.806L6.675,15.932a2.568,2.568,0,0,0-1.347.981L3.113,20.064a3.192,3.192,0,0,0-.468,2.771c0,.013.012.024.015.036a2.531,2.531,0,0,0-2.226,2.5v6.555A2.538,2.538,0,0,0,1.2,33.743l8.228,7.774a2.623,2.623,0,0,1,.614.945,5.922,5.922,0,0,0,.552,1.048v4.717a2.539,2.539,0,0,0,2.539,2.539H26.67a2.539,2.539,0,0,0,2.539-2.539V43.592A9.262,9.262,0,0,0,30.8,40.284a39.484,39.484,0,0,0,1-5.868c.114-.96.231-1.934.382-2.917a15.846,15.846,0,0,1,1.615-4.824l5.234-9.993a3.381,3.381,0,0,0-1.728-4.6,3.464,3.464,0,0,0-4.416,1.758Zm-20.82,14.2L10.27,30.708a2.809,2.809,0,0,1-.677-.361l-1.2-.908a.847.847,0,0,1-.339-.677v-.846a5.031,5.031,0,0,0-1.04-3.071,3.243,3.243,0,0,0,.98-.665l1.954-2.023a.575.575,0,0,1,.931.261l1.262,5.031a.793.793,0,0,1-.075.6Zm24.575-14.4a1.687,1.687,0,0,1,.931.971,1.653,1.653,0,0,1-.053,1.3l-5.224,9.973a17.535,17.535,0,0,0-1.786,5.348c-.155,1-.274,2-.391,2.976a38.233,38.233,0,0,1-.951,5.62c-.522,1.9-1.672,4.16-4.186,4.16a.846.846,0,0,0,0,1.693,5.193,5.193,0,0,0,2.539-.651v3.19a.846.846,0,0,1-.847.846H13.129a.846.846,0,0,1-.847-.846V45.089a5.311,5.311,0,0,0,2.539.6.846.846,0,0,0,0-1.693,3.161,3.161,0,0,1-3.216-2.161,4.285,4.285,0,0,0-1.024-1.548L2.372,32.529a.839.839,0,0,1-.245-.6V25.376a.84.84,0,0,1,.822-.846,3.385,3.385,0,0,1,3.41,3.385v.846a2.551,2.551,0,0,0,1.016,2.031l1.207.906a4.586,4.586,0,0,0,1.854.8l.072.014a4.751,4.751,0,0,0,3-.454.847.847,0,1,0-.757-1.515,3.344,3.344,0,0,1-.451.178l1.185-1.758a2.5,2.5,0,0,0,.3-1.931l-1.26-5.022A2.235,2.235,0,0,0,10.345,20.3a2.209,2.209,0,0,0-1.624.69l-1.939,2A1.509,1.509,0,0,1,4.5,21.039l2.218-3.157a.866.866,0,0,1,.452-.327l4.541-1.335a1.693,1.693,0,0,1,2.015.9l2.555,5.4a1.016,1.016,0,0,0,1.931-.435V4.245a1.693,1.693,0,0,1,3.385-.057l.279,18.7a1.055,1.055,0,0,0,2.088.212l2.825-13.092,1.56-6.855A1.777,1.777,0,0,1,30.3,1.708a1.685,1.685,0,0,1,1.379,2.036l-3.9,19.4a1.016,1.016,0,0,0,1.894.677L34.4,14.6a1.8,1.8,0,0,1,2.241-.955Zm0,0" fill="#fff"/><path d="M172.064,281.473a.846.846,0,1,0-.24,1.676c1.523.219,5.755,1.32,6.979,3.772a.847.847,0,0,0,1.515-.757c-1.87-3.739-8-4.654-8.254-4.691Zm0,0" transform="translate(-153.737 -253.549)" fill="#fff"/><path d="M163.578,315.6a.846.846,0,1,0-.63,1.571c.037.015,3.7,1.542,3.7,6.831a.846.846,0,1,0,1.693,0C168.341,317.579,163.771,315.677,163.578,315.6Zm0,0" transform="translate(-145.902 -284.238)" fill="#fff"/></g></svg>