<svg xmlns="http://www.w3.org/2000/svg" width="39" height="47.745" viewBox="0 0 39 47.745"><g transform="translate(-0.001 0)"><path d="M89.222,32.32a2.667,2.667,0,1,0,2.667,2.667A2.67,2.67,0,0,0,89.222,32.32Zm0,3.936a1.268,1.268,0,1,1,1.268-1.268A1.27,1.27,0,0,1,89.222,36.256Zm0,0" transform="translate(-78.482 -29.307)" fill="#fff"/><path d="M158.98,37.655h4.446a2.667,2.667,0,0,0,0-5.334H158.98a2.667,2.667,0,1,0,0,5.334Zm0-3.936h4.446a1.268,1.268,0,0,1,0,2.537H158.98a1.268,1.268,0,1,1,0-2.537Zm0,0" transform="translate(-141.735 -29.306)" fill="#fff"/><path d="M139.957,413.672a3.488,3.488,0,1,0,3.488,3.488A3.492,3.492,0,0,0,139.957,413.672Zm0,5.578a2.089,2.089,0,1,1,2.089-2.089A2.092,2.092,0,0,1,139.957,419.25Zm0,0" transform="translate(-123.742 -375.096)" fill="#fff"/><path d="M38.3,32.949a.7.7,0,0,0,.7-.7V7.152A7.16,7.16,0,0,0,31.848,0H7.153A7.16,7.16,0,0,0,0,7.152V40.593a7.16,7.16,0,0,0,7.152,7.152h24.7A7.16,7.16,0,0,0,39,40.593V35.329a.7.7,0,1,0-1.4,0v5.264a5.76,5.76,0,0,1-5.754,5.754H29.52a7.146,7.146,0,0,0,2.909-5.754V7.152A7.146,7.146,0,0,0,29.52,1.4h2.328A5.76,5.76,0,0,1,37.6,7.152v25.1A.7.7,0,0,0,38.3,32.949Zm-13.024,13.4H7.153A5.76,5.76,0,0,1,1.4,40.593V37.781H31.03v2.811a5.76,5.76,0,0,1-5.754,5.754ZM31.03,7.152V9.964H6.6a.7.7,0,0,0,0,1.4H31.03v25.02H1.4V11.362h2.19a.7.7,0,1,0,0-1.4H1.4V7.152A5.76,5.76,0,0,1,7.153,1.4H25.277A5.76,5.76,0,0,1,31.03,7.152Zm0,0" fill="#fff"/><path d="M195.7,165.583a3.236,3.236,0,0,0,3.233-3.233V146.593a1.738,1.738,0,0,0-3.2-.945,18.057,18.057,0,0,0-2.762,8.293,2.218,2.218,0,0,0,.815,1.915c.072.089.38.269.451.367a2.613,2.613,0,0,0-1.773,2.471v3.655a3.236,3.236,0,0,0,3.233,3.233Zm-1.332-11.524a16.654,16.654,0,0,1,2.544-7.651.316.316,0,0,1,.378-.14.324.324,0,0,1,.244.326v9.493h-1.8a2.357,2.357,0,0,0-.984-1.26.826.826,0,0,1-.38-.768Zm-.5,4.636a1.211,1.211,0,0,1,1.21-1.21h2.458v4.865a1.834,1.834,0,1,1-3.668,0Zm0,0" transform="translate(-174.517 -131.345)" fill="#fff"/><path d="M96.336,161.317v2.394s-2.721-.342-2.721,2.285v3.791a3.421,3.421,0,0,0,6.842,0V166c0-2.447-2.721-2.285-2.721-2.285v-2.394a3.588,3.588,0,0,0,2.883-3.513v-3.842a.7.7,0,0,0-1.4,0V157.8a2.187,2.187,0,0,1-1.484,2.068v-5.91a.7.7,0,0,0-1.4,0v5.91a2.187,2.187,0,0,1-1.484-2.068v-3.842a.7.7,0,0,0-1.4,0V157.8A3.588,3.588,0,0,0,96.336,161.317ZM99.058,166v3.791a2.022,2.022,0,0,1-4.044,0V166a.887.887,0,0,1,.886-.886h2.272A.887.887,0,0,1,99.058,166Zm0,0" transform="translate(-84.738 -138.97)" fill="#fff"/></g></svg>