<svg xmlns="http://www.w3.org/2000/svg" viewBox="0 0 290 337" width="290" height="337">
	<defs>
		<linearGradient id="grd1" gradientUnits="userSpaceOnUse"  x1="112.312" y1="64.189" x2="109.152" y2="21.703">
			<stop offset="0" stop-color="#fe7062"  />
			<stop offset="1" stop-color="#ff928e"  />
		</linearGradient>
		<linearGradient id="grd2" gradientUnits="userSpaceOnUse"  x1="75.167" y1="68.359" x2="73.101" y2="40.578">
			<stop offset="0" stop-color="#fe7062"  />
			<stop offset="1" stop-color="#ff928e"  />
		</linearGradient>
		<linearGradient id="grd3" gradientUnits="userSpaceOnUse"  x1="107.153" y1="104.3" x2="104.494" y2="68.55">
			<stop offset="0" stop-color="#fe7062"  />
			<stop offset="1" stop-color="#ff928e"  />
		</linearGradient>
		<linearGradient id="grd4" gradientUnits="userSpaceOnUse"  x1="326.311" y1="67.756" x2="64.127" y2="148.855">
			<stop offset="0" stop-color="#e1473d"  />
			<stop offset="1" stop-color="#e9605a"  />
		</linearGradient>
		<linearGradient id="grd5" gradientUnits="userSpaceOnUse"  x1="327.616" y1="71.977" x2="65.432" y2="153.076">
			<stop offset="0" stop-color="#e1473d"  />
			<stop offset="1" stop-color="#e9605a"  />
		</linearGradient>
		<linearGradient id="grd6" gradientUnits="userSpaceOnUse"  x1="328.769" y1="75.705" x2="66.585" y2="156.804">
			<stop offset="0" stop-color="#e1473d"  />
			<stop offset="1" stop-color="#e9605a"  />
		</linearGradient>
		<linearGradient id="grd7" gradientUnits="userSpaceOnUse"  x1="330.074" y1="79.925" x2="67.89" y2="161.025">
			<stop offset="0" stop-color="#e1473d"  />
			<stop offset="1" stop-color="#e9605a"  />
		</linearGradient>
		<linearGradient id="grd8" gradientUnits="userSpaceOnUse"  x1="331.232" y1="83.653" x2="69.043" y2="164.753">
			<stop offset="0" stop-color="#e1473d"  />
			<stop offset="1" stop-color="#e9605a"  />
		</linearGradient>
		<linearGradient id="grd9" gradientUnits="userSpaceOnUse"  x1="332.533" y1="87.874" x2="70.349" y2="168.973">
			<stop offset="0" stop-color="#e1473d"  />
			<stop offset="1" stop-color="#e9605a"  />
		</linearGradient>
		<linearGradient id="grd10" gradientUnits="userSpaceOnUse"  x1="333.686" y1="91.602" x2="71.502" y2="172.701">
			<stop offset="0" stop-color="#e1473d"  />
			<stop offset="1" stop-color="#e9605a"  />
		</linearGradient>
		<linearGradient id="grd11" gradientUnits="userSpaceOnUse"  x1="334.991" y1="95.822" x2="72.807" y2="176.922">
			<stop offset="0" stop-color="#e1473d"  />
			<stop offset="1" stop-color="#e9605a"  />
		</linearGradient>
		<linearGradient id="grd12" gradientUnits="userSpaceOnUse"  x1="336.145" y1="99.55" x2="73.961" y2="180.65">
			<stop offset="0" stop-color="#e1473d"  />
			<stop offset="1" stop-color="#e9605a"  />
		</linearGradient>
		<linearGradient id="grd13" gradientUnits="userSpaceOnUse"  x1="337.45" y1="103.771" x2="75.266" y2="184.87">
			<stop offset="0" stop-color="#e1473d"  />
			<stop offset="1" stop-color="#e9605a"  />
		</linearGradient>
		<linearGradient id="grd14" gradientUnits="userSpaceOnUse"  x1="338.603" y1="107.499" x2="76.419" y2="188.598">
			<stop offset="0" stop-color="#e1473d"  />
			<stop offset="1" stop-color="#e9605a"  />
		</linearGradient>
		<linearGradient id="grd15" gradientUnits="userSpaceOnUse"  x1="339.908" y1="111.72" x2="77.725" y2="192.819">
			<stop offset="0" stop-color="#e1473d"  />
			<stop offset="1" stop-color="#e9605a"  />
		</linearGradient>
		<linearGradient id="grd16" gradientUnits="userSpaceOnUse"  x1="63.69" y1="119.328" x2="87.131" y2="37.639">
			<stop offset="0" stop-color="#febbba"  />
			<stop offset="1" stop-color="#ff928e"  />
		</linearGradient>
		<linearGradient id="grd17" gradientUnits="userSpaceOnUse"  x1="79.002" y1="123.722" x2="102.443" y2="42.033">
			<stop offset="0" stop-color="#febbba"  />
			<stop offset="1" stop-color="#ff928e"  />
		</linearGradient>
		<linearGradient id="grd18" gradientUnits="userSpaceOnUse"  x1="91.729" y1="127.374" x2="115.17" y2="45.684">
			<stop offset="0" stop-color="#febbba"  />
			<stop offset="1" stop-color="#ff928e"  />
		</linearGradient>
		<linearGradient id="grd19" gradientUnits="userSpaceOnUse"  x1="104.84" y1="131.136" x2="128.281" y2="49.447">
			<stop offset="0" stop-color="#febbba"  />
			<stop offset="1" stop-color="#ff928e"  />
		</linearGradient>
		<linearGradient id="grd20" gradientUnits="userSpaceOnUse"  x1="116.96" y1="134.614" x2="140.402" y2="52.925">
			<stop offset="0" stop-color="#febbba"  />
			<stop offset="1" stop-color="#ff928e"  />
		</linearGradient>
		<linearGradient id="grd21" gradientUnits="userSpaceOnUse"  x1="130.071" y1="138.376" x2="153.513" y2="56.687">
			<stop offset="0" stop-color="#febbba"  />
			<stop offset="1" stop-color="#ff928e"  />
		</linearGradient>
		<linearGradient id="grd22" gradientUnits="userSpaceOnUse"  x1="142.798" y1="142.028" x2="166.24" y2="60.339">
			<stop offset="0" stop-color="#febbba"  />
			<stop offset="1" stop-color="#ff928e"  />
		</linearGradient>
		<linearGradient id="grd23" gradientUnits="userSpaceOnUse"  x1="255.256" y1="135.601" x2="-78.027" y2="162.264">
			<stop offset="0" stop-color="#febbba"  />
			<stop offset="1" stop-color="#ff928e"  />
		</linearGradient>
		<linearGradient id="grd24" gradientUnits="userSpaceOnUse"  x1="255.33" y1="136.529" x2="-77.952" y2="163.192">
			<stop offset="0" stop-color="#febbba"  />
			<stop offset="1" stop-color="#ff928e"  />
		</linearGradient>
		<linearGradient id="grd25" gradientUnits="userSpaceOnUse"  x1="255.419" y1="137.624" x2="-77.867" y2="164.287">
			<stop offset="0" stop-color="#febbba"  />
			<stop offset="1" stop-color="#ff928e"  />
		</linearGradient>
		<linearGradient id="grd26" gradientUnits="userSpaceOnUse"  x1="255.617" y1="140.113" x2="-77.666" y2="166.776">
			<stop offset="0" stop-color="#febbba"  />
			<stop offset="1" stop-color="#ff928e"  />
		</linearGradient>
		<linearGradient id="grd27" gradientUnits="userSpaceOnUse"  x1="255.516" y1="138.847" x2="-77.768" y2="165.509">
			<stop offset="0" stop-color="#febbba"  />
			<stop offset="1" stop-color="#ff928e"  />
		</linearGradient>
		<linearGradient id="grd28" gradientUnits="userSpaceOnUse"  x1="-1870.224" y1="-1287.42" x2="-1835.791" y2="-1348.703">
			<stop offset="0" stop-color="#febbba"  />
			<stop offset="1" stop-color="#ff928e"  />
		</linearGradient>
	</defs>
	<style>
		tspan { white-space:pre }
		.shp0 { fill: #dcdcdc } 
		.shp1 { fill: url(#grd1) } 
		.shp2 { fill: #ff7d26 } 
		.shp3 { opacity: 0.78;fill: #ffffff } 
		.shp4 { fill: #4f4f4f } 
		.shp5 { fill: url(#grd2) } 
		.shp6 { fill: url(#grd3) } 
		.shp7 { fill: url(#grd4) } 
		.shp8 { fill: url(#grd5) } 
		.shp9 { fill: url(#grd6) } 
		.shp10 { fill: url(#grd7) } 
		.shp11 { fill: url(#grd8) } 
		.shp12 { fill: url(#grd9) } 
		.shp13 { fill: url(#grd10) } 
		.shp14 { fill: url(#grd11) } 
		.shp15 { fill: url(#grd12) } 
		.shp16 { fill: url(#grd13) } 
		.shp17 { fill: url(#grd14) } 
		.shp18 { fill: url(#grd15) } 
		.shp19 { fill: #ffffff } 
		.shp20 { fill: url(#grd16) } 
		.shp21 { fill: url(#grd17) } 
		.shp22 { fill: url(#grd18) } 
		.shp23 { fill: url(#grd19) } 
		.shp24 { fill: url(#grd20) } 
		.shp25 { fill: url(#grd21) } 
		.shp26 { fill: url(#grd22) } 
		.shp27 { fill: url(#grd23) } 
		.shp28 { fill: url(#grd24) } 
		.shp29 { fill: url(#grd25) } 
		.shp30 { fill: url(#grd26) } 
		.shp31 { fill: url(#grd27) } 
		.shp32 { fill: #d3ad91 } 
		.shp33 { fill: #3f3f3f } 
		.shp34 { fill: #e3b592 } 
		.shp35 { fill: #6e6e6e } 
		.shp36 { fill: #262626 } 
		.shp37 { fill: url(#grd28) } 
		.shp38 { fill: #646464 } 
		.shp39 { fill: #aeaeae } 
	</style>
	<g id="Ordergo - Landing">
		<g id="Group 9111">
			<g id="Illustration">
				<g id="Group 2460">
					<path id="Ellipse 15" class="shp0" d="M141.94 336.76C63.47 336.76 0.04 273.33 0.04 194.86C0.04 116.39 63.47 52.96 141.94 52.96C220.41 52.96 283.84 116.39 283.84 194.86C283.84 273.33 220.41 336.76 141.94 336.76Z" />
				</g>
				<g id="Group 8832">
					<g id="Group 8817">
						<g id="Group 8812">
							<path id="Ellipse 48" class="shp1" d="M123.75 35.5C115.64 43.61 102.54 43.61 94.43 35.5C86.32 27.4 86.32 14.29 94.43 6.19C102.54 -1.92 115.64 -1.92 123.75 6.19C131.85 14.29 131.85 27.4 123.75 35.5Z" />
							<path id="Ellipse 49" class="shp2" d="M123.26 35.02C115.42 42.85 102.75 42.85 94.92 35.02C87.08 27.18 87.08 14.51 94.92 6.67C102.75 -1.16 115.42 -1.16 123.26 6.67C131.1 14.51 131.1 27.18 123.26 35.02Z" />
							<path id="Path 2631" class="shp3" d="M92.56 12.97C92.49 12.97 92.42 12.95 92.36 12.92C92.14 12.81 92.05 12.54 92.16 12.32C95.41 5.89 101.89 1.9 109.09 1.9C110.24 1.9 111.39 2 112.51 2.2C112.75 2.25 112.91 2.48 112.87 2.72C112.82 2.97 112.59 3.13 112.35 3.08C111.28 2.89 110.18 2.79 109.09 2.79C102.23 2.79 96.05 6.6 92.96 12.72C92.88 12.88 92.72 12.97 92.56 12.97Z" />
							<path id="Path 2868" class="shp0" d="M109.52 4.32C118.89 4.32 126.49 11.91 126.49 21.28C126.49 30.65 118.89 38.25 109.52 38.25C100.16 38.25 92.56 30.65 92.56 21.28C92.56 11.91 100.16 4.32 109.52 4.32Z" />
							<g id="Group 8811">
								<path id="Path 2632" class="shp4" d="M107.86 33.89L107.86 32.05C105.94 31.97 104.03 31.52 102.68 30.92C102.2 30.71 101.95 30.17 102.09 29.66L102.56 27.94C102.73 27.31 103.42 26.99 104.02 27.24C105.36 27.8 107.02 28.25 108.8 28.25C110.66 28.25 112.04 27.62 112.04 26.33C112.04 25.17 110.97 24.48 108.39 23.79C104.72 22.78 102.08 21.18 102.08 17.94C102.08 15.02 104.22 12.79 107.92 12.2L107.92 10.35C107.92 9.76 108.4 9.28 109 9.28L110.08 9.28C110.68 9.28 111.16 9.76 111.16 10.35L111.16 12.01C112.94 12.08 114.23 12.38 115.26 12.75C115.79 12.93 116.08 13.5 115.93 14.04L115.5 15.63C115.33 16.24 114.68 16.58 114.08 16.35C113.14 15.99 111.8 15.62 110.06 15.62C107.86 15.62 107.23 16.53 107.23 17.35C107.23 18.35 108.55 19.04 111.41 19.92C115.49 21.15 117.19 22.84 117.19 25.89C117.19 28.69 115.12 31.2 111.1 31.83L111.1 33.89C111.1 34.49 110.61 34.97 110.02 34.97L108.94 34.97C108.34 34.97 107.86 34.49 107.86 33.89Z" />
							</g>
						</g>
						<g id="Group 8833">
							<path id="Ellipse 48" class="shp5" d="M82.64 49.6C77.34 54.9 68.77 54.9 63.47 49.6C58.17 44.3 58.17 35.73 63.47 30.43C68.77 25.13 77.34 25.13 82.64 30.43C87.95 35.73 87.95 44.3 82.64 49.6Z" />
							<path id="Ellipse 49" class="shp2" d="M82.33 49.28C77.2 54.41 68.92 54.41 63.79 49.28C58.67 44.16 58.67 35.87 63.79 30.75C68.92 25.63 77.2 25.63 82.33 30.75C87.45 35.87 87.45 44.16 82.33 49.28Z" />
							<path id="Path 2631" class="shp3" d="M62.25 34.87C62.21 34.87 62.16 34.86 62.12 34.83C61.98 34.76 61.92 34.59 61.99 34.44C64.11 30.24 68.35 27.63 73.06 27.63C73.81 27.63 74.56 27.69 75.29 27.83C75.45 27.86 75.56 28.01 75.53 28.17C75.5 28.33 75.35 28.43 75.19 28.4C74.49 28.28 73.77 28.21 73.06 28.21C68.58 28.21 64.54 30.7 62.51 34.7C62.46 34.81 62.36 34.87 62.25 34.87Z" />
							<path id="Ellipse 50" class="shp0" d="M73.34 51.39C67.21 51.39 62.25 46.44 62.25 40.3C62.25 34.17 67.21 29.21 73.34 29.21C79.48 29.21 84.44 34.17 84.44 40.3C84.44 46.44 79.48 51.39 73.34 51.39Z" />
							<g id="Group 8811">
								<path id="Path 2632" class="shp4" d="M72.26 48.55L72.26 47.34C71 47.29 69.75 46.99 68.87 46.61C68.55 46.47 68.39 46.11 68.48 45.78L68.79 44.66C68.9 44.25 69.35 44.03 69.75 44.2C70.62 44.57 71.71 44.86 72.87 44.86C74.08 44.86 74.99 44.45 74.99 43.6C74.99 42.84 74.29 42.39 72.61 41.94C70.2 41.28 68.48 40.24 68.48 38.12C68.48 36.21 69.87 34.75 72.3 34.36L72.3 33.16C72.3 32.77 72.61 32.45 73 32.45L73.71 32.45C74.1 32.45 74.41 32.77 74.41 33.16L74.41 34.24C75.58 34.29 76.42 34.48 77.1 34.72C77.44 34.84 77.63 35.21 77.53 35.56L77.25 36.6C77.14 37.01 76.71 37.23 76.33 37.08C75.71 36.84 74.83 36.6 73.69 36.6C72.26 36.6 71.85 37.2 71.85 37.73C71.85 38.39 72.71 38.84 74.58 39.41C77.25 40.21 78.36 41.32 78.36 43.32C78.36 45.14 77 46.79 74.37 47.2L74.37 48.55C74.37 48.94 74.06 49.25 73.67 49.25L72.96 49.25C72.57 49.25 72.26 48.94 72.26 48.55Z" />
							</g>
						</g>
						<g id="Group 8834">
							<path id="Ellipse 48" class="shp6" d="M116.78 80.16C109.95 86.98 98.93 86.98 92.1 80.16C85.28 73.34 85.28 62.31 92.1 55.49C98.93 48.67 109.95 48.67 116.78 55.49C123.6 62.31 123.6 73.34 116.78 80.16Z" />
							<path id="Ellipse 49" class="shp2" d="M116.37 79.75C109.77 86.35 99.11 86.35 92.51 79.75C85.92 73.16 85.92 62.5 92.51 55.9C99.11 49.31 109.77 49.31 116.37 55.9C122.96 62.5 122.96 73.16 116.37 79.75Z" />
							<path id="Path 2631" class="shp3" d="M90.53 61.2C90.48 61.2 90.42 61.19 90.36 61.16C90.18 61.06 90.1 60.84 90.2 60.65C92.93 55.24 98.39 51.88 104.44 51.88C105.41 51.88 106.37 51.97 107.32 52.14C107.52 52.18 107.66 52.38 107.62 52.58C107.58 52.78 107.39 52.92 107.18 52.88C106.28 52.72 105.36 52.64 104.44 52.64C98.67 52.64 93.47 55.84 90.87 60.99C90.8 61.12 90.67 61.2 90.53 61.2Z" />
							<path id="Path 2869" class="shp0" d="M104.81 53.92C112.69 53.92 119.08 60.31 119.08 68.2C119.08 76.08 112.69 82.47 104.81 82.47C96.92 82.47 90.53 76.08 90.53 68.2C90.53 60.31 96.92 53.92 104.81 53.92Z" />
							<g id="Group 8811">
								<path id="Path 2632" class="shp4" d="M103.41 78.81L103.41 77.25C101.79 77.19 100.19 76.81 99.05 76.31C98.64 76.13 98.44 75.68 98.55 75.25L98.95 73.8C99.09 73.27 99.67 73 100.18 73.21C101.3 73.68 102.7 74.06 104.2 74.06C105.76 74.06 106.92 73.53 106.92 72.44C106.92 71.47 106.02 70.88 103.86 70.3C100.76 69.46 98.54 68.11 98.54 65.39C98.54 62.93 100.34 61.05 103.46 60.55L103.46 59C103.46 58.5 103.86 58.09 104.36 58.09L105.28 58.09C105.78 58.09 106.18 58.5 106.18 59L106.18 60.39C107.68 60.45 108.77 60.71 109.64 61.01C110.08 61.17 110.32 61.65 110.2 62.1L109.84 63.44C109.7 63.95 109.14 64.24 108.64 64.05C107.85 63.75 106.72 63.43 105.26 63.43C103.41 63.43 102.88 64.2 102.88 64.89C102.88 65.73 103.99 66.31 106.39 67.05C109.83 68.08 111.26 69.51 111.26 72.07C111.26 74.43 109.51 76.54 106.13 77.07L106.13 78.81C106.13 79.31 105.72 79.71 105.22 79.71L104.31 79.71C103.81 79.71 103.41 79.31 103.41 78.81Z" />
							</g>
						</g>
					</g>
					<g id="Group 8826">
						<path id="Rectangle 17395" class="shp4" d="M37.55 146.96L230.54 146.96L230.54 146.96L230.54 278.65C230.54 287.92 223.05 295.41 213.78 295.41L54.31 295.41C45.04 295.41 37.55 287.92 37.55 278.65L37.55 146.96L37.55 146.96Z" />
						<path id="Path 2664" class="shp2" d="M37.55 140.66L230.54 140.66L230.54 269.78C230.54 278.04 223.84 284.74 215.58 284.74L52.51 284.74C44.25 284.74 37.55 278.04 37.55 269.78L37.55 140.66Z" />
						<g id="Group 8818">
							<path id="Rectangle 17397" class="shp7" d="M48.66 146.96L55.31 146.96L55.31 158.26L48.66 158.26L48.66 146.96Z" />
							<path id="Rectangle 17398" class="shp8" d="M63.61 146.96L70.26 146.96L70.26 158.26L63.61 158.26L63.61 146.96Z" />
							<path id="Rectangle 17399" class="shp9" d="M76.82 146.96L83.46 146.96L83.46 158.26L76.82 158.26L76.82 146.96Z" />
							<path id="Rectangle 17400" class="shp10" d="M91.77 146.96L98.41 146.96L98.41 158.26L91.77 158.26L91.77 146.96Z" />
							<path id="Rectangle 17401" class="shp11" d="M104.97 146.96L111.62 146.96L111.62 158.26L104.97 158.26L104.97 146.96Z" />
							<path id="Rectangle 17402" class="shp12" d="M119.92 146.96L126.57 146.96L126.57 158.26L119.92 158.26L119.92 146.96Z" />
							<path id="Rectangle 17403" class="shp13" d="M133.13 146.96L139.77 146.96L139.77 158.26L133.13 158.26L133.13 146.96Z" />
							<path id="Rectangle 17404" class="shp14" d="M148.08 146.96L154.72 146.96L154.72 158.26L148.08 158.26L148.08 146.96Z" />
							<path id="Rectangle 17405" class="shp15" d="M161.28 146.96L167.93 146.96L167.93 158.26L161.28 158.26L161.28 146.96Z" />
							<path id="Rectangle 17406" class="shp16" d="M176.23 146.96L182.88 146.96L182.88 158.26L176.23 158.26L176.23 146.96Z" />
							<path id="Rectangle 17407" class="shp17" d="M189.44 146.96L196.08 146.96L196.08 158.26L189.44 158.26L189.44 146.96Z" />
							<path id="Rectangle 17408" class="shp18" d="M204.39 146.96L211.03 146.96L211.03 158.26L204.39 158.26L204.39 146.96Z" />
						</g>
						<g id="Group 8824">
							<g id="Group 8819">
								<path id="Rectangle 17409" class="shp19" d="M123.44 164.1L143.5 164.1L143.5 184.16L123.44 184.16L123.44 164.1Z" />
								<path id="Rectangle 17410" class="shp19" d="M147.82 164.1L167.87 164.1L167.87 184.16L147.82 184.16L147.82 164.1Z" />
								<path id="Rectangle 17411" class="shp19" d="M171.94 164.1L191.99 164.1L191.99 184.16L171.94 184.16L171.94 164.1Z" />
								<path id="Rectangle 17412" class="shp19" d="M195.87 164.1L215.92 164.1L215.92 184.16L195.87 184.16L195.87 164.1Z" />
							</g>
							<g id="Group 8820">
								<path id="Rectangle 17413" class="shp19" d="M51.04 189.32L71.1 189.32L71.1 209.38L51.04 209.38L51.04 189.32Z" />
								<path id="Rectangle 17414" class="shp19" d="M75.17 189.32L95.22 189.32L95.22 209.38L75.17 209.38L75.17 189.32Z" />
								<path id="Rectangle 17415" class="shp19" d="M99.09 189.32L119.15 189.32L119.15 209.38L99.09 209.38L99.09 189.32Z" />
								<path id="Rectangle 17416" class="shp19" d="M123.42 189.32L143.47 189.32L143.47 209.38L123.42 209.38L123.42 189.32Z" />
								<path id="Rectangle 17417" class="shp19" d="M147.79 189.32L167.85 189.32L167.85 209.38L147.79 209.38L147.79 189.32Z" />
								<path id="Rectangle 17418" class="shp19" d="M48.76 189.32L68.81 189.32L68.81 209.38L48.76 209.38L48.76 189.32Z" />
								<path id="Rectangle 17419" class="shp19" d="M195.84 189.32L215.9 189.32L215.9 209.38L195.84 209.38L195.84 189.32Z" />
							</g>
							<g id="Group 8821">
								<path id="Rectangle 17420" class="shp19" d="M51.64 213.35L71.69 213.35L71.69 233.4L51.64 233.4L51.64 213.35Z" />
								<path id="Rectangle 17421" class="shp19" d="M75.76 213.35L95.82 213.35L95.82 233.4L75.76 233.4L75.76 213.35Z" />
								<path id="Rectangle 17422" class="shp19" d="M99.69 213.35L119.74 213.35L119.74 233.4L99.69 233.4L99.69 213.35Z" />
								<path id="Rectangle 17423" class="shp19" d="M124.01 213.35L144.07 213.35L144.07 233.4L124.01 233.4L124.01 213.35Z" />
								<path id="Rectangle 17424" class="shp19" d="M148.39 213.35L168.44 213.35L168.44 233.4L148.39 233.4L148.39 213.35Z" />
								<path id="Rectangle 17425" class="shp19" d="M172.51 213.35L192.57 213.35L192.57 233.4L172.51 233.4L172.51 213.35Z" />
								<path id="Rectangle 17426" class="shp19" d="M88.45 213.35L108.51 213.35L108.51 233.4L88.45 233.4L88.45 213.35Z" />
							</g>
							<g id="Group 8822">
								<path id="Rectangle 17427" class="shp19" d="M52.23 237.07L72.29 237.07L72.29 257.13L52.23 257.13L52.23 237.07Z" />
								<path id="Rectangle 17428" class="shp19" d="M76.36 237.07L96.41 237.07L96.41 257.13L76.36 257.13L76.36 237.07Z" />
								<path id="Rectangle 17429" class="shp19" d="M100.29 237.07L120.34 237.07L120.34 257.13L100.29 257.13L100.29 237.07Z" />
								<path id="Rectangle 17430" class="shp19" d="M124.61 237.07L144.66 237.07L144.66 257.13L124.61 257.13L124.61 237.07Z" />
								<path id="Rectangle 17431" class="shp19" d="M148.98 237.07L169.04 237.07L169.04 257.13L148.98 257.13L148.98 237.07Z" />
								<path id="Rectangle 17432" class="shp19" d="M173.11 237.07L193.16 237.07L193.16 257.13L173.11 257.13L173.11 237.07Z" />
								<path id="Rectangle 17433" class="shp19" d="M197.03 237.07L217.09 237.07L217.09 257.13L197.03 257.13L197.03 237.07Z" />
							</g>
							<g id="Group 8823">
								<path id="Rectangle 17434" class="shp19" d="M52.23 260.75L72.29 260.75L72.29 280.8L52.23 280.8L52.23 260.75Z" />
								<path id="Rectangle 17435" class="shp19" d="M76.36 260.75L96.41 260.75L96.41 280.8L76.36 280.8L76.36 260.75Z" />
								<path id="Rectangle 17436" class="shp19" d="M100.29 260.75L120.34 260.75L120.34 280.8L100.29 280.8L100.29 260.75Z" />
							</g>
						</g>
						<g id="Group 8825">
							<path id="Path 2637" class="shp20" d="M61.78 137.97L53.25 137.97C51.28 137.97 49.68 139.58 49.68 141.54L49.68 149.48L52.26 149.48L52.26 144.32C52.26 142.36 53.86 140.75 55.83 140.75L64.36 140.75C64.68 140.75 64.99 140.8 65.29 140.88C64.97 139.23 63.52 137.97 61.78 137.97Z" />
							<path id="Path 2638" class="shp21" d="M78.35 137.97L69.82 137.97C67.86 137.97 66.25 139.58 66.25 141.54L66.25 149.48L68.83 149.48L68.83 144.32C68.83 142.36 70.44 140.75 72.4 140.75L80.93 140.75C81.25 140.75 81.56 140.8 81.86 140.88C81.54 139.23 80.09 137.97 78.35 137.97Z" />
							<path id="Path 2639" class="shp22" d="M92.13 137.97L83.6 137.97C81.63 137.97 80.03 139.58 80.03 141.54L80.03 149.48L82.6 149.48L82.6 144.32C82.6 142.36 84.21 140.75 86.18 140.75L94.71 140.75C95.03 140.75 95.34 140.8 95.63 140.88C95.32 139.23 93.86 137.97 92.13 137.97Z" />
							<path id="Path 2640" class="shp23" d="M106.32 137.97L97.79 137.97C95.82 137.97 94.22 139.58 94.22 141.54L94.22 149.48L96.8 149.48L96.8 144.32C96.8 142.36 98.4 140.75 100.37 140.75L108.9 140.75C109.22 140.75 109.53 140.8 109.82 140.88C109.51 139.23 108.05 137.97 106.32 137.97Z" />
							<path id="Path 2641" class="shp24" d="M119.44 137.97L110.91 137.97C108.94 137.97 107.33 139.58 107.33 141.54L107.33 149.48L109.91 149.48L109.91 144.32C109.91 142.36 111.52 140.75 113.48 140.75L122.02 140.75C122.34 140.75 122.65 140.8 122.94 140.88C122.63 139.23 121.17 137.97 119.44 137.97Z" />
							<path id="Path 2642" class="shp25" d="M133.63 137.97L125.1 137.97C123.13 137.97 121.53 139.58 121.53 141.54L121.53 149.48L124.1 149.48L124.1 144.32C124.1 142.36 125.71 140.75 127.68 140.75L136.21 140.75C136.53 140.75 136.84 140.8 137.13 140.88C136.82 139.23 135.36 137.97 133.63 137.97Z" />
							<path id="Path 2643" class="shp26" d="M147.4 137.97L138.87 137.97C136.91 137.97 135.3 139.58 135.3 141.54L135.3 149.48L137.88 149.48L137.88 144.32C137.88 142.36 139.49 140.75 141.45 140.75L149.98 140.75C150.3 140.75 150.61 140.8 150.91 140.88C150.59 139.23 149.14 137.97 147.4 137.97Z" />
							<path id="Path 2644" class="shp27" d="M162.78 137.97L154.25 137.97C152.29 137.97 150.68 139.58 150.68 141.54L150.68 149.48L153.26 149.48L153.26 144.32C153.26 142.36 154.87 140.75 156.83 140.75L165.36 140.75C165.68 140.75 165.99 140.8 166.29 140.88C165.98 139.23 164.52 137.97 162.78 137.97Z" />
							<path id="Path 2645" class="shp28" d="M176.05 137.85L167.52 137.85C165.55 137.85 163.95 139.45 163.95 141.42L163.95 149.35L166.52 149.35L166.52 144.19C166.52 142.23 168.13 140.62 170.1 140.62L178.63 140.62C178.95 140.62 179.26 140.67 179.55 140.75C179.24 139.1 177.78 137.85 176.05 137.85Z" />
							<path id="Path 2646" class="shp29" d="M189.82 137.85L181.29 137.85C179.33 137.85 177.72 139.45 177.72 141.42L177.72 149.35L180.3 149.35L180.3 144.19C180.3 142.23 181.91 140.62 183.87 140.62L192.4 140.62C192.72 140.62 193.03 140.67 193.33 140.75C193.01 139.1 191.56 137.85 189.82 137.85Z" />
							<path id="Path 2647" class="shp30" d="M217.1 138.17L208.57 138.17C206.61 138.17 205 139.78 205 141.74L205 149.68L207.58 149.68L207.58 144.52C207.58 142.55 209.19 140.95 211.15 140.95L219.68 140.95C220 140.95 220.31 140.99 220.61 141.07C220.29 139.42 218.84 138.17 217.1 138.17Z" />
							<path id="Path 2648" class="shp31" d="M205.2 137.85L196.67 137.85C194.71 137.85 193.1 139.45 193.1 141.42L193.1 149.35L195.68 149.35L195.68 144.19C195.68 142.23 197.29 140.62 199.25 140.62L207.78 140.62C208.1 140.62 208.41 140.67 208.71 140.75C208.4 139.1 206.94 137.85 205.2 137.85Z" />
						</g>
					</g>
					<g id="Group 8831">
						<path id="Path 2649" class="shp32" d="M284.29 203.11C284.2 203.07 236.56 119.65 230.12 111.79C229.04 110.47 227.36 109.8 225.66 110L212.37 111.59L196.75 145.38L222.77 130.23C220.2 148.04 253.63 174.5 265.09 184.16C266.26 185.14 266.35 186.9 265.3 188L260.72 192.79C268.24 200.41 276.91 205.3 286.7 207.56L284.29 203.11Z" />
						<path id="Path 2650" class="shp33" d="M263.37 190.2C263.37 190.2 260.45 191.15 259.46 193.75C258.99 194.99 259.5 196.4 260.58 197.18C265.39 200.62 281.26 211.75 288.58 213.93C289.18 214.11 289.75 213.57 289.62 212.95C289.24 211.25 288.03 207.86 284.11 202.88L284.46 203.59C284.91 204.49 283.93 205.43 283.05 204.94C278.16 202.17 268.18 196.12 263.37 190.2Z" />
						<path id="Path 2651" class="shp34" d="M265.73 223.58C265.65 223.53 258.5 206.31 258.42 206.26C251.87 166.36 235.88 132.19 231.16 123.2C230.37 121.69 228.87 120.69 227.16 120.54L213.82 119.4L191.69 149.34L220.24 139.76C214.11 156.68 241.5 189.37 250.77 201.14C251.71 202.34 251.45 204.08 250.2 204.94L244.74 208.71C250.56 217.69 258.06 224.23 267.19 228.43L265.73 223.58Z" />
						<path id="Path 2652" class="shp33" d="M247.86 206.71C247.86 206.71 244.81 207.04 243.31 209.39C242.6 210.52 242.81 212 243.72 212.98C247.73 217.33 261.02 231.44 267.75 235.05C268.3 235.35 268.97 234.93 268.96 234.31C268.94 232.56 268.43 228.99 265.6 223.33L265.8 224.1C266.06 225.07 264.91 225.79 264.15 225.13C259.92 221.43 251.37 213.48 247.86 206.71Z" />
						<g id="Group 8827">
							<path id="Path 2653" class="shp35" d="M151.37 113.1C151.37 113.1 139.3 131.05 138.31 139.24C137.32 147.43 141.64 150.26 154.28 151.31C191.87 154.41 210.4 143.15 210.4 143.15C212.98 126.75 214.81 122.58 236.28 113.66C236.28 113.66 209.12 115.82 203.65 113.7C198.18 111.58 151.37 113.1 151.37 113.1Z" />
						</g>
						<g id="Group 8829">
							<path id="Path 2654" class="shp36" d="M199.5 12.52C199.5 12.52 191.09 2.57 182.15 14.78C180.54 16.99 174.32 15.16 172.04 19.79C170.86 22.18 168.32 23.53 165.7 23.05C159.18 21.85 148.52 21.75 143.26 31.97C139.24 39.77 142.34 44.33 146.36 46.94C149.31 48.85 150.36 52.73 148.58 55.76C146.87 58.66 146.54 62.6 150.96 67.33C160.86 77.94 180.46 60.6 180.46 60.6L196.01 23.83L199.5 12.52Z" />
							<path id="Path 2655" class="shp2" d="M184.01 110.72C184.01 110.72 198.07 97.34 204.98 88.47C208.72 83.68 209.9 77.37 208.17 71.55C205.01 60.9 199.4 49.88 198.88 48.17C198.1 45.54 182.34 45.65 182.34 45.65C182.34 45.65 151.33 65.77 139.14 99.87L152.83 104.13C152.83 104.13 160.92 90.54 168.93 81.91C168.93 81.91 155.08 100.2 154.59 107.68L184.01 110.72Z" />
							<path id="Path 2656" class="shp34" d="M210.79 116L200.23 104.51L188.03 107.8C188.03 107.8 173.81 110 165.67 107.8L157.53 105.59L139.14 99.87L136.25 108.03C135.52 110.11 136.26 112.41 138.05 113.68C139.64 114.81 141.51 116.05 142.69 116.57C145.12 117.63 198.49 116.91 198.49 116.91L210.79 116Z" />
							<path id="Path 2657" class="shp32" d="M193.17 26.7L182.58 46.4C183.28 50.7 194.11 50.82 195.78 48.25C195.95 47.99 196.05 47.69 196.11 47.38L202.45 34.22C202.72 32.94 199.2 28.61 198.04 28L193.83 25.75C192.21 24.89 198.98 24.82 193.17 26.7Z" />
							<g id="Group 8828">
								<path id="Path 2658" class="shp34" d="M214.61 22.08C214.61 22.08 215.8 28.73 210.57 37.19C205.34 45.65 200.13 45.27 197.49 42.25C194.84 39.24 191.67 34.21 193.12 25.77C194.56 17.33 212.8 13.59 214.61 22.08Z" />
								<path id="Path 2659" class="shp36" d="M199.45 26.69C199.45 26.69 207.92 15.56 214.42 25.26L214.31 28.61C214.31 28.61 222.76 28.22 221.85 20.42C220.93 12.63 214.03 7.31 204.46 9.97C194.89 12.63 189.3 15.66 188.21 22.31C187.13 28.95 192.56 27.87 192.56 27.87C192.56 27.87 194.63 23.28 197.13 22.97C199.64 22.66 198.73 26.28 198.73 26.28L199.45 26.69Z" />
								<path id="Path 2660" class="shp37" d="M197.5 26.39C197.5 26.39 201.89 20.7 197.9 19.52C193.9 18.34 194.05 25.1 194.31 27.61L197.5 26.39Z" />
							</g>
						</g>
						<g id="Group 8830">
							<path id="Path 2661" class="shp38" d="M175.83 120.55C175.87 120.55 175.91 120.55 175.94 120.55L224.52 120.5C225.72 120.5 226.69 119.53 226.69 118.33C226.69 117.12 225.71 116.13 224.52 116.15L175.94 116.21C174.74 116.21 173.76 117.18 173.77 118.38C173.77 119.55 174.68 120.5 175.83 120.55Z" />
							<path id="Path 2662" class="shp39" d="M268.19 76.45L227.73 76.45C224.75 76.45 222.03 78.17 220.76 80.87L202.06 120.53L252.33 120.53C254.26 120.53 255.98 119.35 256.69 117.56L271.19 80.87C272.03 78.74 270.47 76.45 268.19 76.45Z" />
							<path id="Path 2663" class="shp19" d="M239.69 96.78C238.81 99.5 239.46 102.15 241.13 102.69C242.81 103.23 244.88 101.46 245.76 98.73C246.63 96.01 245.98 93.36 244.31 92.83C242.63 92.29 240.56 94.06 239.69 96.78Z" />
						</g>
					</g>
				</g>
			</g>
		</g>
	</g>
</svg>