<svg xmlns="http://www.w3.org/2000/svg" viewBox="0 0 346 285" width="346" height="285">
	<style>
		tspan { white-space:pre }
		.shp0 { fill: #dcdcdc } 
		.shp1 { fill: #676767 } 
		.shp2 { fill: #fefefe } 
		.shp3 { fill: #ff7d26 } 
	</style>
	<g id="Ordergo - Landing">
		<g id="Group 9111">
			<g id="Group 9136">
				<g id="Group 9131">
					<path id="Ellipse 15" class="shp0" d="M194.94 284.56C116.47 284.56 53.04 221.13 53.04 142.66C53.04 64.19 116.47 0.76 194.94 0.76C273.41 0.76 336.84 64.19 336.84 142.66C336.84 221.13 273.41 284.56 194.94 284.56Z" />
				</g>
				<g id="Page-1">
					<g id="Group 9135">
						<g id="Group 9132">
							<path id="Path 2897" class="shp1" d="M243.68 152.93L247.27 153.03C247.3 154.03 247.17 154.89 246.84 155.64C246.5 156.38 246.08 157.02 245.44 157.49C244.81 158.01 243.97 158.42 242.86 158.71C241.54 159.07 240.44 159.18 239.46 159.03C238.52 158.87 237.63 158.4 236.75 157.57C235.89 156.79 235.22 155.61 234.82 154.12C234.29 152.13 234.43 150.43 235.18 149.04C235.93 147.66 237.35 146.75 239.28 146.23C240.83 145.81 242.08 145.83 243.13 146.2C244.17 146.58 245.09 147.34 245.83 148.56L242.71 150.17C242.49 149.81 242.31 149.56 242.1 149.44C241.8 149.22 241.52 149.06 241.15 148.99C240.77 148.91 240.42 148.94 240.09 149.03C239.26 149.25 238.69 149.76 238.44 150.6C238.24 151.19 238.3 152.06 238.58 153.11C238.93 154.44 239.41 155.32 239.93 155.71C240.45 156.1 241.13 156.22 241.85 156.02C242.57 155.83 243.06 155.46 243.29 154.99C243.6 154.37 243.72 153.74 243.68 152.93Z" />
							<path id="Path 2898" fill-rule="evenodd" class="shp1" d="M248.03 150.58C247.5 148.59 247.63 146.89 248.44 145.49C249.25 144.09 250.65 143.12 252.64 142.59C254.69 142.04 256.38 142.18 257.77 142.93C259.17 143.74 260.12 145.09 260.66 147.08C261.04 148.51 261.13 149.73 260.87 150.75C260.61 151.77 260.14 152.66 259.33 153.41C258.58 154.15 257.49 154.73 256.17 155.09C254.79 155.46 253.62 155.53 252.56 155.34C251.56 155.14 250.67 154.67 249.79 153.84C248.92 153 248.41 152.01 248.03 150.58ZM251.79 149.57C252.11 150.79 252.57 151.61 253.16 152.04C253.75 152.48 254.43 152.59 255.26 152.37C256.09 152.15 256.63 151.71 256.93 151.09C257.23 150.42 257.2 149.42 256.84 148.1C256.53 146.94 256.09 146.17 255.46 145.8C254.87 145.37 254.14 145.32 253.37 145.53C252.6 145.74 252.06 146.18 251.77 146.85C251.45 147.41 251.46 148.35 251.79 149.57Z" />
							<path id="Path 2899" class="shp1" d="M260.99 140.59L265.91 139.27L269.77 146.17L269.67 138.26L274.59 136.95L277.84 149.1L274.75 149.93L272.26 140.65L272.37 150.57L269.61 151.31L264.74 142.66L267.23 151.95L264.14 152.78L260.88 140.62L260.99 140.59Z" />
							<path id="Path 2900" fill-rule="evenodd" class="shp1" d="M283.26 134.62C284.64 134.25 285.73 134.32 286.57 134.8C287.41 135.29 287.98 136.08 288.3 137.3C288.63 138.51 288.51 139.61 287.97 140.47C287.44 141.38 286.37 142.02 284.88 142.42L282.83 142.97L284.05 147.5L280.29 148.51L277.02 136.29L283.26 134.62ZM282.17 140.48L283.11 140.23C283.83 140.04 284.29 139.79 284.55 139.43C284.75 139.08 284.84 138.76 284.74 138.37C284.64 137.98 284.44 137.68 284.09 137.48C283.74 137.28 283.27 137.29 282.55 137.48L281.5 137.76L282.22 140.47L282.17 140.48Z" />
							<path id="Path 2901" class="shp1" d="M289.29 133.01L293.04 132L295.5 141.17L301.36 139.6L302.16 142.59L292.54 145.16L289.29 133.01L289.29 133.01Z" />
							<path id="Path 2902" class="shp1" d="M300.78 129.93L304.54 128.92L307.8 141.08L304.04 142.08L300.78 129.93Z" />
							<path id="Path 2903" fill-rule="evenodd" class="shp1" d="M317.42 136.31L313.16 137.45L313.09 139.6L309.28 140.62L310.6 127.23L314.69 126.14L322.54 137.07L318.62 138.12L317.42 136.31ZM315.95 133.92L313.45 129.91L313.3 134.63L315.95 133.92Z" />
							<path id="Path 2904" class="shp1" d="M320.46 124.65L323.94 123.72L330.33 129.23L328.53 122.49L332.06 121.54L335.32 133.7L331.78 134.65L325.46 129.18L327.25 135.86L323.71 136.81L320.46 124.65L320.46 124.65Z" />
							<path id="Path 2905" class="shp1" d="M333.72 121.1L345.16 118.03L345.96 121.02L342.15 122.04L344.61 131.21L340.85 132.22L338.39 123.05L334.58 124.07L333.78 121.09L333.72 121.1Z" />
						</g>
						<g id="Rectangle-3-+-Letters">
							<path id="Rectangle-3" class="shp1" d="M201.51 176.37L211.48 170.03L205.84 163.13C204.12 167.08 202.64 171.98 201.51 176.37ZM188.2 141.49L154.13 99.68L0.31 150.37L75.22 256.83L151.47 208.26C144.12 202.05 139.76 193.51 144.71 187.44C150.23 180.63 162.11 183.61 170.86 189.97C174.37 177.66 185.6 148.17 188.2 141.49Z" />
							<g id="Letters">
								<path id="Oval-1" fill-rule="evenodd" class="shp2" d="M158.47 135.33C164.99 133.58 168.96 127.19 167.3 121C165.64 114.81 159.01 111.26 152.48 113C145.96 114.75 141.99 121.15 143.65 127.34C145.29 133.47 151.94 137.08 158.47 135.33ZM163.63 193.3L182.98 188.12L169.43 137.55L150.08 142.73L163.63 193.3Z" />
								<path id="Path-3" class="shp2" d="M144.48 160.05C144.66 160.06 144.75 159.98 144.71 159.81L141.27 146.99C141.23 146.82 141.07 146.69 140.88 146.62C140.88 146.62 137.89 145.64 130.04 147.27C129.59 147.16 122.78 148.92 121.03 149.69C93.45 159.51 97.86 180.18 98.1 181.07L99.43 186.04C99.59 186.65 105.18 207.48 134.9 201.47C137.84 200.92 143.36 199.21 143.91 199.06C150.65 197.25 154.75 193.96 154.75 193.96C154.9 193.86 154.96 193.67 154.92 193.5L151.71 181.51C151.66 181.34 151.54 181.32 151.46 181.46C151.46 181.46 149.8 183.68 140.88 187.08C138.35 188.05 137.05 188.28 136.07 188.37C122.43 189.65 119.28 180.31 119.28 180.31C119.24 180.14 119.11 179.88 119.08 179.77L118.1 176.12C118.05 175.96 117.98 175.68 118.01 175.55C118.01 175.55 116.15 165.09 128.62 160.57L133.43 159.28C139.2 158.5 144.48 160.05 144.48 160.05Z" />
								<path id="Path-1" fill-rule="evenodd" class="shp2" d="M38.35 172.97C38.31 172.8 38.39 172.66 38.56 172.62L62.98 166.07C69.1 164.14 88.46 160.78 92.74 176.76C98.14 196.93 67.45 202.84 67.45 202.84C67.28 202.89 67.2 203.03 67.24 203.19L71.18 217.89C71.23 218.06 71.15 218.2 70.98 218.25L52.13 223.3C51.97 223.34 51.83 223.26 51.78 223.09L38.35 172.97ZM69.03 190.4C69.03 190.4 74.76 188.56 74.2 182.97C74.28 182.83 73.68 180.56 73.48 180.26C71.7 175.82 64.94 177.34 64.94 177.34L60.29 178.58L63.83 191.79L69.03 190.4Z" />
							</g>
							<path id="Path-7" class="shp3" d="M180.4 214.96C181.94 214.55 183.16 214.22 184.91 212.8C190.8 207.37 198.81 144.63 218.57 120.68C218.71 120.52 218.83 120.31 218.9 120.12C219 119.85 218.95 119.63 218.95 119.63C218.95 119.63 218.63 118.47 215.04 119.43C193.16 124.64 182.77 176.3 175.72 197.5C175.61 197.76 174.78 197.75 174.78 197.75C174.78 197.75 164.3 190.49 156.43 188.74C156.25 188.73 155.4 188.66 154.59 188.94C154.04 189.09 151.01 190.61 149.93 192.56C148.67 194.91 149 195.95 149.61 198.21C149.65 198.38 149.97 199.12 150.3 199.45C152.81 201.98 163.34 210.53 171.26 214.68C172.39 215.15 174.37 216.57 180.4 214.96Z" />
						</g>
						<g id="Group 9133">
							<path id="Path 2906" fill-rule="evenodd" class="shp1" d="M238.48 97.04C242.07 96.08 245.08 95.81 247.49 96.17C249.97 96.57 252.16 97.46 254.01 98.86C255.94 100.3 257.55 102.12 258.8 104.33C260.1 106.53 261.11 108.98 261.84 111.69C262.96 115.89 263.34 119.29 263.02 121.86C262.7 124.43 261.9 126.72 260.61 128.78C259.31 130.79 257.77 132.33 255.98 133.4C253.52 134.83 251.18 135.81 249.03 136.39L230.95 141.23L220.41 101.88L238.48 97.04ZM234.95 107.52L240.71 129.02L243.7 128.22C246.24 127.54 247.99 126.78 248.89 125.94C249.79 125.11 250.41 123.88 250.65 122.33C250.89 120.79 250.6 118.38 249.75 115.23C248.63 111.03 247.21 108.39 245.41 107.21C243.62 106.03 241.2 105.85 237.99 106.71L234.95 107.52Z" />
							<path id="Path 2907" class="shp1" d="M267.04 117.64L278.46 113.81C279.24 115.62 280.12 116.92 281.16 117.71C282.86 118.97 284.84 119.27 287.16 118.65C288.87 118.19 290.15 117.43 290.87 116.35C291.58 115.27 291.83 114.2 291.55 113.15C291.28 112.15 290.59 111.33 289.48 110.74C288.37 110.15 286.08 109.99 282.63 110.15C276.94 110.37 272.75 109.77 269.9 108.41C267.05 107.04 265.26 104.79 264.43 101.7C263.88 99.65 263.99 97.61 264.66 95.48C265.33 93.34 266.73 91.49 268.82 89.8C270.92 88.11 273.99 86.76 278.08 85.66C283.11 84.31 287.23 84.21 290.33 85.4C293.49 86.57 295.84 89.14 297.43 93.09L286.11 96.84C285.31 95.16 284.36 94.05 283.14 93.49C281.92 92.92 280.49 92.89 278.78 93.35C277.34 93.74 276.37 94.29 275.81 95.09C275.26 95.89 275.12 96.7 275.35 97.59C275.52 98.19 275.96 98.73 276.7 99.06C277.38 99.41 278.9 99.54 281.17 99.4C286.79 99.14 290.91 99.28 293.54 99.82C296.18 100.36 298.23 101.41 299.74 102.84C301.25 104.27 302.28 106.13 302.86 108.28C303.54 110.82 303.45 113.34 302.63 115.81C301.82 118.33 300.26 120.47 298.07 122.24C295.88 124.01 292.82 125.42 289.01 126.45C282.32 128.24 277.34 128.21 274.05 126.31C270.81 124.39 268.5 121.52 267.04 117.64Z" />
						</g>
						<g id="Group 9134">
							<path id="Path 2908" class="shp1" d="M305.9 107.23L317.31 103.4C318.09 105.21 318.97 106.51 320.01 107.3C321.71 108.56 323.69 108.86 326.01 108.24C327.72 107.78 329 107.02 329.72 105.94C330.44 104.86 330.68 103.79 330.4 102.74C330.13 101.74 329.44 100.92 328.33 100.33C327.23 99.74 324.93 99.58 321.48 99.74C315.79 99.96 311.61 99.36 308.75 98C305.95 96.61 304.11 94.38 303.28 91.29C302.73 89.24 302.84 87.2 303.51 85.07C304.18 82.93 305.58 81.07 307.68 79.39C309.77 77.7 312.84 76.34 316.93 75.25C321.96 73.9 326.08 73.8 329.18 74.99C332.34 76.16 334.69 78.73 336.28 82.68L324.96 86.43C324.16 84.75 323.21 83.64 321.99 83.07C320.78 82.51 319.34 82.48 317.63 82.94C316.19 83.33 315.22 83.88 314.66 84.68C314.11 85.48 313.97 86.29 314.21 87.18C314.37 87.78 314.81 88.32 315.55 88.65C316.23 89 317.75 89.13 320.02 88.99C325.64 88.73 329.76 88.87 332.4 89.41C335.03 89.95 337.09 91 338.6 92.43C340.1 93.86 341.14 95.72 341.71 97.87C342.39 100.41 342.3 102.93 341.48 105.4C340.67 107.92 339.11 110.06 336.92 111.83C334.73 113.6 331.68 115.01 327.86 116.04C321.17 117.83 316.19 117.8 312.9 115.9C309.6 114 307.29 111.12 305.9 107.23Z" />
						</g>
					</g>
				</g>
			</g>
		</g>
	</g>
</svg>